<?xml version="1.0" encoding="utf-8" standalone="no"?>
<!DOCTYPE svg PUBLIC "-//W3C//DTD SVG 1.1//EN"
  "http://www.w3.org/Graphics/SVG/1.1/DTD/svg11.dtd">
<svg xmlns:xlink="http://www.w3.org/1999/xlink" width="1006.45pt" height="472.290937pt" viewBox="0 0 1006.45 472.290937" xmlns="http://www.w3.org/2000/svg" version="1.1">
 <metadata>
  <rdf:RDF xmlns:dc="http://purl.org/dc/elements/1.1/" xmlns:cc="http://creativecommons.org/ns#" xmlns:rdf="http://www.w3.org/1999/02/22-rdf-syntax-ns#">
   <cc:Work>
    <dc:type rdf:resource="http://purl.org/dc/dcmitype/StillImage"/>
    <dc:date>2024-02-28T09:36:44.114097</dc:date>
    <dc:format>image/svg+xml</dc:format>
    <dc:creator>
     <cc:Agent>
      <dc:title>Matplotlib v3.8.3, https://matplotlib.org/</dc:title>
     </cc:Agent>
    </dc:creator>
   </cc:Work>
  </rdf:RDF>
 </metadata>
 <defs>
  <style type="text/css">*{stroke-linejoin: round; stroke-linecap: butt}</style>
 </defs>
 <g id="figure_1">
  <g id="patch_1">
   <path d="M 0 472.290937 
L 1006.45 472.290937 
L 1006.45 0 
L 0 0 
z
" style="fill: #ffffff"/>
  </g>
  <g id="axes_1">
   <g id="patch_2">
    <path d="M 136.8 402.878437 
L 517.254545 402.878437 
L 517.254545 14.798437 
L 136.8 14.798437 
z
" style="fill: #ffffff"/>
   </g>
   <g id="matplotlib.axis_1">
    <g id="xtick_1">
     <g id="line2d_1">
      <defs>
       <path id="md1b8a39999" d="M 0 0 
L 0 3.5 
" style="stroke: #000000; stroke-width: 0.8"/>
      </defs>
      <g>
       <use xlink:href="#md1b8a39999" x="176.548982" y="402.878437" style="stroke: #000000; stroke-width: 0.8"/>
      </g>
     </g>
     <g id="text_1">
      <!-- 1 Feb -->
      <g transform="translate(149.305232 431.575312) scale(0.2 -0.2)">
       <defs>
        <path id="DejaVuSans-31" d="M 794 531 
L 1825 531 
L 1825 4091 
L 703 3866 
L 703 4441 
L 1819 4666 
L 2450 4666 
L 2450 531 
L 3481 531 
L 3481 0 
L 794 0 
L 794 531 
z
" transform="scale(0.015625)"/>
        <path id="DejaVuSans-20" transform="scale(0.015625)"/>
        <path id="DejaVuSans-46" d="M 628 4666 
L 3309 4666 
L 3309 4134 
L 1259 4134 
L 1259 2759 
L 3109 2759 
L 3109 2228 
L 1259 2228 
L 1259 0 
L 628 0 
L 628 4666 
z
" transform="scale(0.015625)"/>
        <path id="DejaVuSans-65" d="M 3597 1894 
L 3597 1613 
L 953 1613 
Q 991 1019 1311 708 
Q 1631 397 2203 397 
Q 2534 397 2845 478 
Q 3156 559 3463 722 
L 3463 178 
Q 3153 47 2828 -22 
Q 2503 -91 2169 -91 
Q 1331 -91 842 396 
Q 353 884 353 1716 
Q 353 2575 817 3079 
Q 1281 3584 2069 3584 
Q 2775 3584 3186 3129 
Q 3597 2675 3597 1894 
z
M 3022 2063 
Q 3016 2534 2758 2815 
Q 2500 3097 2075 3097 
Q 1594 3097 1305 2825 
Q 1016 2553 972 2059 
L 3022 2063 
z
" transform="scale(0.015625)"/>
        <path id="DejaVuSans-62" d="M 3116 1747 
Q 3116 2381 2855 2742 
Q 2594 3103 2138 3103 
Q 1681 3103 1420 2742 
Q 1159 2381 1159 1747 
Q 1159 1113 1420 752 
Q 1681 391 2138 391 
Q 2594 391 2855 752 
Q 3116 1113 3116 1747 
z
M 1159 2969 
Q 1341 3281 1617 3432 
Q 1894 3584 2278 3584 
Q 2916 3584 3314 3078 
Q 3713 2572 3713 1747 
Q 3713 922 3314 415 
Q 2916 -91 2278 -91 
Q 1894 -91 1617 61 
Q 1341 213 1159 525 
L 1159 0 
L 581 0 
L 581 4863 
L 1159 4863 
L 1159 2969 
z
" transform="scale(0.015625)"/>
       </defs>
       <use xlink:href="#DejaVuSans-31"/>
       <use xlink:href="#DejaVuSans-20" x="63.623047"/>
       <use xlink:href="#DejaVuSans-46" x="95.410156"/>
       <use xlink:href="#DejaVuSans-65" x="147.429688"/>
       <use xlink:href="#DejaVuSans-62" x="208.953125"/>
      </g>
     </g>
    </g>
    <g id="xtick_2">
     <g id="line2d_2">
      <g>
       <use xlink:href="#md1b8a39999" x="341.223338" y="402.878437" style="stroke: #000000; stroke-width: 0.8"/>
      </g>
     </g>
     <g id="text_2">
      <!-- 1 Mar -->
      <g transform="translate(312.815525 431.575312) scale(0.2 -0.2)">
       <defs>
        <path id="DejaVuSans-4d" d="M 628 4666 
L 1569 4666 
L 2759 1491 
L 3956 4666 
L 4897 4666 
L 4897 0 
L 4281 0 
L 4281 4097 
L 3078 897 
L 2444 897 
L 1241 4097 
L 1241 0 
L 628 0 
L 628 4666 
z
" transform="scale(0.015625)"/>
        <path id="DejaVuSans-61" d="M 2194 1759 
Q 1497 1759 1228 1600 
Q 959 1441 959 1056 
Q 959 750 1161 570 
Q 1363 391 1709 391 
Q 2188 391 2477 730 
Q 2766 1069 2766 1631 
L 2766 1759 
L 2194 1759 
z
M 3341 1997 
L 3341 0 
L 2766 0 
L 2766 531 
Q 2569 213 2275 61 
Q 1981 -91 1556 -91 
Q 1019 -91 701 211 
Q 384 513 384 1019 
Q 384 1609 779 1909 
Q 1175 2209 1959 2209 
L 2766 2209 
L 2766 2266 
Q 2766 2663 2505 2880 
Q 2244 3097 1772 3097 
Q 1472 3097 1187 3025 
Q 903 2953 641 2809 
L 641 3341 
Q 956 3463 1253 3523 
Q 1550 3584 1831 3584 
Q 2591 3584 2966 3190 
Q 3341 2797 3341 1997 
z
" transform="scale(0.015625)"/>
        <path id="DejaVuSans-72" d="M 2631 2963 
Q 2534 3019 2420 3045 
Q 2306 3072 2169 3072 
Q 1681 3072 1420 2755 
Q 1159 2438 1159 1844 
L 1159 0 
L 581 0 
L 581 3500 
L 1159 3500 
L 1159 2956 
Q 1341 3275 1631 3429 
Q 1922 3584 2338 3584 
Q 2397 3584 2469 3576 
Q 2541 3569 2628 3553 
L 2631 2963 
z
" transform="scale(0.015625)"/>
       </defs>
       <use xlink:href="#DejaVuSans-31"/>
       <use xlink:href="#DejaVuSans-20" x="63.623047"/>
       <use xlink:href="#DejaVuSans-4d" x="95.410156"/>
       <use xlink:href="#DejaVuSans-61" x="181.689453"/>
       <use xlink:href="#DejaVuSans-72" x="242.96875"/>
      </g>
     </g>
    </g>
    <g id="xtick_3">
     <g id="line2d_3">
      <g>
       <use xlink:href="#md1b8a39999" x="517.254545" y="402.878437" style="stroke: #000000; stroke-width: 0.8"/>
      </g>
     </g>
     <g id="text_3">
      <!-- 1 Apr -->
      <g transform="translate(490.41392 431.575312) scale(0.2 -0.2)">
       <defs>
        <path id="DejaVuSans-41" d="M 2188 4044 
L 1331 1722 
L 3047 1722 
L 2188 4044 
z
M 1831 4666 
L 2547 4666 
L 4325 0 
L 3669 0 
L 3244 1197 
L 1141 1197 
L 716 0 
L 50 0 
L 1831 4666 
z
" transform="scale(0.015625)"/>
        <path id="DejaVuSans-70" d="M 1159 525 
L 1159 -1331 
L 581 -1331 
L 581 3500 
L 1159 3500 
L 1159 2969 
Q 1341 3281 1617 3432 
Q 1894 3584 2278 3584 
Q 2916 3584 3314 3078 
Q 3713 2572 3713 1747 
Q 3713 922 3314 415 
Q 2916 -91 2278 -91 
Q 1894 -91 1617 61 
Q 1341 213 1159 525 
z
M 3116 1747 
Q 3116 2381 2855 2742 
Q 2594 3103 2138 3103 
Q 1681 3103 1420 2742 
Q 1159 2381 1159 1747 
Q 1159 1113 1420 752 
Q 1681 391 2138 391 
Q 2594 391 2855 752 
Q 3116 1113 3116 1747 
z
" transform="scale(0.015625)"/>
       </defs>
       <use xlink:href="#DejaVuSans-31"/>
       <use xlink:href="#DejaVuSans-20" x="63.623047"/>
       <use xlink:href="#DejaVuSans-41" x="95.410156"/>
       <use xlink:href="#DejaVuSans-70" x="163.818359"/>
       <use xlink:href="#DejaVuSans-72" x="227.294922"/>
      </g>
     </g>
    </g>
    <g id="text_4">
     <!-- Time -->
     <g transform="translate(302.560085 460.931562) scale(0.2 -0.2)">
      <defs>
       <path id="DejaVuSans-54" d="M -19 4666 
L 3928 4666 
L 3928 4134 
L 2272 4134 
L 2272 0 
L 1638 0 
L 1638 4134 
L -19 4134 
L -19 4666 
z
" transform="scale(0.015625)"/>
       <path id="DejaVuSans-69" d="M 603 3500 
L 1178 3500 
L 1178 0 
L 603 0 
L 603 3500 
z
M 603 4863 
L 1178 4863 
L 1178 4134 
L 603 4134 
L 603 4863 
z
" transform="scale(0.015625)"/>
       <path id="DejaVuSans-6d" d="M 3328 2828 
Q 3544 3216 3844 3400 
Q 4144 3584 4550 3584 
Q 5097 3584 5394 3201 
Q 5691 2819 5691 2113 
L 5691 0 
L 5113 0 
L 5113 2094 
Q 5113 2597 4934 2840 
Q 4756 3084 4391 3084 
Q 3944 3084 3684 2787 
Q 3425 2491 3425 1978 
L 3425 0 
L 2847 0 
L 2847 2094 
Q 2847 2600 2669 2842 
Q 2491 3084 2119 3084 
Q 1678 3084 1418 2786 
Q 1159 2488 1159 1978 
L 1159 0 
L 581 0 
L 581 3500 
L 1159 3500 
L 1159 2956 
Q 1356 3278 1631 3431 
Q 1906 3584 2284 3584 
Q 2666 3584 2933 3390 
Q 3200 3197 3328 2828 
z
" transform="scale(0.015625)"/>
      </defs>
      <use xlink:href="#DejaVuSans-54"/>
      <use xlink:href="#DejaVuSans-69" x="57.958984"/>
      <use xlink:href="#DejaVuSans-6d" x="85.742188"/>
      <use xlink:href="#DejaVuSans-65" x="183.154297"/>
     </g>
    </g>
   </g>
   <g id="matplotlib.axis_2">
    <g id="ytick_1">
     <g id="line2d_4">
      <defs>
       <path id="m70ddb5cfdf" d="M 0 0 
L -3.5 0 
" style="stroke: #000000; stroke-width: 0.8"/>
      </defs>
      <g>
       <use xlink:href="#m70ddb5cfdf" x="136.8" y="402.878437" style="stroke: #000000; stroke-width: 0.8"/>
      </g>
     </g>
     <g id="text_5">
      <!-- 0 -->
      <g transform="translate(110.575 410.476875) scale(0.2 -0.2)">
       <defs>
        <path id="DejaVuSans-30" d="M 2034 4250 
Q 1547 4250 1301 3770 
Q 1056 3291 1056 2328 
Q 1056 1369 1301 889 
Q 1547 409 2034 409 
Q 2525 409 2770 889 
Q 3016 1369 3016 2328 
Q 3016 3291 2770 3770 
Q 2525 4250 2034 4250 
z
M 2034 4750 
Q 2819 4750 3233 4129 
Q 3647 3509 3647 2328 
Q 3647 1150 3233 529 
Q 2819 -91 2034 -91 
Q 1250 -91 836 529 
Q 422 1150 422 2328 
Q 422 3509 836 4129 
Q 1250 4750 2034 4750 
z
" transform="scale(0.015625)"/>
       </defs>
       <use xlink:href="#DejaVuSans-30"/>
      </g>
     </g>
    </g>
    <g id="ytick_2">
     <g id="line2d_5">
      <g>
       <use xlink:href="#m70ddb5cfdf" x="136.8" y="305.858437" style="stroke: #000000; stroke-width: 0.8"/>
      </g>
     </g>
     <g id="text_6">
      <!-- 1000 -->
      <g transform="translate(72.4 313.456875) scale(0.2 -0.2)">
       <use xlink:href="#DejaVuSans-31"/>
       <use xlink:href="#DejaVuSans-30" x="63.623047"/>
       <use xlink:href="#DejaVuSans-30" x="127.246094"/>
       <use xlink:href="#DejaVuSans-30" x="190.869141"/>
      </g>
     </g>
    </g>
    <g id="ytick_3">
     <g id="line2d_6">
      <g>
       <use xlink:href="#m70ddb5cfdf" x="136.8" y="208.838437" style="stroke: #000000; stroke-width: 0.8"/>
      </g>
     </g>
     <g id="text_7">
      <!-- 2000 -->
      <g transform="translate(72.4 216.436875) scale(0.2 -0.2)">
       <defs>
        <path id="DejaVuSans-32" d="M 1228 531 
L 3431 531 
L 3431 0 
L 469 0 
L 469 531 
Q 828 903 1448 1529 
Q 2069 2156 2228 2338 
Q 2531 2678 2651 2914 
Q 2772 3150 2772 3378 
Q 2772 3750 2511 3984 
Q 2250 4219 1831 4219 
Q 1534 4219 1204 4116 
Q 875 4013 500 3803 
L 500 4441 
Q 881 4594 1212 4672 
Q 1544 4750 1819 4750 
Q 2544 4750 2975 4387 
Q 3406 4025 3406 3419 
Q 3406 3131 3298 2873 
Q 3191 2616 2906 2266 
Q 2828 2175 2409 1742 
Q 1991 1309 1228 531 
z
" transform="scale(0.015625)"/>
       </defs>
       <use xlink:href="#DejaVuSans-32"/>
       <use xlink:href="#DejaVuSans-30" x="63.623047"/>
       <use xlink:href="#DejaVuSans-30" x="127.246094"/>
       <use xlink:href="#DejaVuSans-30" x="190.869141"/>
      </g>
     </g>
    </g>
    <g id="ytick_4">
     <g id="line2d_7">
      <g>
       <use xlink:href="#m70ddb5cfdf" x="136.8" y="111.818437" style="stroke: #000000; stroke-width: 0.8"/>
      </g>
     </g>
     <g id="text_8">
      <!-- 3000 -->
      <g transform="translate(72.4 119.416875) scale(0.2 -0.2)">
       <defs>
        <path id="DejaVuSans-33" d="M 2597 2516 
Q 3050 2419 3304 2112 
Q 3559 1806 3559 1356 
Q 3559 666 3084 287 
Q 2609 -91 1734 -91 
Q 1441 -91 1130 -33 
Q 819 25 488 141 
L 488 750 
Q 750 597 1062 519 
Q 1375 441 1716 441 
Q 2309 441 2620 675 
Q 2931 909 2931 1356 
Q 2931 1769 2642 2001 
Q 2353 2234 1838 2234 
L 1294 2234 
L 1294 2753 
L 1863 2753 
Q 2328 2753 2575 2939 
Q 2822 3125 2822 3475 
Q 2822 3834 2567 4026 
Q 2313 4219 1838 4219 
Q 1578 4219 1281 4162 
Q 984 4106 628 3988 
L 628 4550 
Q 988 4650 1302 4700 
Q 1616 4750 1894 4750 
Q 2613 4750 3031 4423 
Q 3450 4097 3450 3541 
Q 3450 3153 3228 2886 
Q 3006 2619 2597 2516 
z
" transform="scale(0.015625)"/>
       </defs>
       <use xlink:href="#DejaVuSans-33"/>
       <use xlink:href="#DejaVuSans-30" x="63.623047"/>
       <use xlink:href="#DejaVuSans-30" x="127.246094"/>
       <use xlink:href="#DejaVuSans-30" x="190.869141"/>
      </g>
     </g>
    </g>
    <g id="ytick_5">
     <g id="line2d_8">
      <g>
       <use xlink:href="#m70ddb5cfdf" x="136.8" y="14.798437" style="stroke: #000000; stroke-width: 0.8"/>
      </g>
     </g>
     <g id="text_9">
      <!-- 4000 -->
      <g transform="translate(72.4 22.396875) scale(0.2 -0.2)">
       <defs>
        <path id="DejaVuSans-34" d="M 2419 4116 
L 825 1625 
L 2419 1625 
L 2419 4116 
z
M 2253 4666 
L 3047 4666 
L 3047 1625 
L 3713 1625 
L 3713 1100 
L 3047 1100 
L 3047 0 
L 2419 0 
L 2419 1100 
L 313 1100 
L 313 1709 
L 2253 4666 
z
" transform="scale(0.015625)"/>
       </defs>
       <use xlink:href="#DejaVuSans-34"/>
       <use xlink:href="#DejaVuSans-30" x="63.623047"/>
       <use xlink:href="#DejaVuSans-30" x="127.246094"/>
       <use xlink:href="#DejaVuSans-30" x="190.869141"/>
      </g>
     </g>
    </g>
    <g id="text_10">
     <!-- Count -->
     <g transform="translate(58.240625 238.535312) rotate(-90) scale(0.2 -0.2)">
      <defs>
       <path id="DejaVuSans-43" d="M 4122 4306 
L 4122 3641 
Q 3803 3938 3442 4084 
Q 3081 4231 2675 4231 
Q 1875 4231 1450 3742 
Q 1025 3253 1025 2328 
Q 1025 1406 1450 917 
Q 1875 428 2675 428 
Q 3081 428 3442 575 
Q 3803 722 4122 1019 
L 4122 359 
Q 3791 134 3420 21 
Q 3050 -91 2638 -91 
Q 1578 -91 968 557 
Q 359 1206 359 2328 
Q 359 3453 968 4101 
Q 1578 4750 2638 4750 
Q 3056 4750 3426 4639 
Q 3797 4528 4122 4306 
z
" transform="scale(0.015625)"/>
       <path id="DejaVuSans-6f" d="M 1959 3097 
Q 1497 3097 1228 2736 
Q 959 2375 959 1747 
Q 959 1119 1226 758 
Q 1494 397 1959 397 
Q 2419 397 2687 759 
Q 2956 1122 2956 1747 
Q 2956 2369 2687 2733 
Q 2419 3097 1959 3097 
z
M 1959 3584 
Q 2709 3584 3137 3096 
Q 3566 2609 3566 1747 
Q 3566 888 3137 398 
Q 2709 -91 1959 -91 
Q 1206 -91 779 398 
Q 353 888 353 1747 
Q 353 2609 779 3096 
Q 1206 3584 1959 3584 
z
" transform="scale(0.015625)"/>
       <path id="DejaVuSans-75" d="M 544 1381 
L 544 3500 
L 1119 3500 
L 1119 1403 
Q 1119 906 1312 657 
Q 1506 409 1894 409 
Q 2359 409 2629 706 
Q 2900 1003 2900 1516 
L 2900 3500 
L 3475 3500 
L 3475 0 
L 2900 0 
L 2900 538 
Q 2691 219 2414 64 
Q 2138 -91 1772 -91 
Q 1169 -91 856 284 
Q 544 659 544 1381 
z
M 1991 3584 
L 1991 3584 
z
" transform="scale(0.015625)"/>
       <path id="DejaVuSans-6e" d="M 3513 2113 
L 3513 0 
L 2938 0 
L 2938 2094 
Q 2938 2591 2744 2837 
Q 2550 3084 2163 3084 
Q 1697 3084 1428 2787 
Q 1159 2491 1159 1978 
L 1159 0 
L 581 0 
L 581 3500 
L 1159 3500 
L 1159 2956 
Q 1366 3272 1645 3428 
Q 1925 3584 2291 3584 
Q 2894 3584 3203 3211 
Q 3513 2838 3513 2113 
z
" transform="scale(0.015625)"/>
       <path id="DejaVuSans-74" d="M 1172 4494 
L 1172 3500 
L 2356 3500 
L 2356 3053 
L 1172 3053 
L 1172 1153 
Q 1172 725 1289 603 
Q 1406 481 1766 481 
L 2356 481 
L 2356 0 
L 1766 0 
Q 1100 0 847 248 
Q 594 497 594 1153 
L 594 3053 
L 172 3053 
L 172 3500 
L 594 3500 
L 594 4494 
L 1172 4494 
z
" transform="scale(0.015625)"/>
      </defs>
      <use xlink:href="#DejaVuSans-43"/>
      <use xlink:href="#DejaVuSans-6f" x="69.824219"/>
      <use xlink:href="#DejaVuSans-75" x="131.005859"/>
      <use xlink:href="#DejaVuSans-6e" x="194.384766"/>
      <use xlink:href="#DejaVuSans-74" x="257.763672"/>
     </g>
    </g>
   </g>
   <g id="line2d_9">
    <path d="M 164.005181 402.878437 
L 164.237396 385.123777 
L 164.467298 382.989337 
L 164.881 381.825097 
L 165.178052 381.437017 
L 166.729179 381.339997 
L 166.832979 381.145957 
L 167.543254 381.048937 
L 167.78878 380.563837 
L 168.880816 380.466817 
L 168.923649 380.369797 
L 169.159487 380.369797 
L 169.557682 379.981717 
L 169.868884 379.884697 
L 170.237388 379.496617 
L 170.49954 379.399597 
L 170.779 379.011517 
L 171.923892 378.914497 
L 172.236624 378.623437 
L 173.085975 378.526417 
L 173.181887 378.429397 
L 173.536425 378.235357 
L 173.65488 377.944297 
L 174.28448 377.653237 
L 174.503973 377.362177 
L 174.601756 377.265157 
L 174.838614 377.071117 
L 175.311233 376.974097 
L 175.548354 376.586017 
L 175.729202 376.488997 
L 175.78524 376.391977 
L 176.021137 375.712837 
L 176.380261 375.615817 
L 176.494347 375.518797 
L 179.806231 375.421777 
L 180.043397 375.324757 
L 180.910573 375.227737 
L 180.990385 374.936677 
L 181.230857 277.334557 
L 181.466949 259.676917 
L 181.466949 259.676917 
L 181.939805 246.191137 
L 182.176709 244.153717 
L 184.543368 235.324897 
L 185.016107 233.093437 
L 185.92386 228.242437 
L 186.121522 227.660317 
L 186.600348 225.525877 
L 186.673008 225.137797 
L 187.144995 220.674877 
L 187.535573 218.734477 
L 187.797474 218.540437 
L 187.854682 218.540437 
L 187.987824 218.249377 
L 188.758363 217.958317 
L 189.000987 217.861297 
L 189.046939 217.764277 
L 189.630416 217.667257 
L 189.897723 217.376197 
L 189.996419 217.376197 
L 190.372776 216.114937 
L 190.569627 216.017917 
L 191.306958 213.592417 
L 191.515096 213.107317 
L 191.532275 213.107317 
L 192.119788 211.069897 
L 192.266267 210.972877 
L 192.528045 210.487777 
L 192.587697 210.487777 
L 192.938992 209.614597 
L 193.061374 209.517577 
L 193.427411 209.420557 
L 193.535207 209.323537 
L 193.906288 209.226517 
L 194.188553 208.935457 
L 195.58077 208.838437 
L 195.843373 208.450357 
L 196.137302 208.450357 
L 196.374294 207.868237 
L 196.750945 207.577177 
L 197.030433 206.801017 
L 197.263096 206.801017 
L 197.320882 206.606977 
L 197.47641 206.509957 
L 197.557348 206.315917 
L 198.02943 204.278497 
L 198.393615 203.405317 
L 199.165607 202.144057 
L 199.211632 202.144057 
L 199.934944 201.852997 
L 200.396235 201.755977 
L 201.578601 200.979817 
L 201.815587 200.591737 
L 201.994835 200.397697 
L 202.052623 200.203657 
L 202.525425 200.106637 
L 202.702166 199.912597 
L 203.477346 198.554317 
L 203.707815 197.972197 
L 203.826276 197.875177 
L 203.944453 197.681137 
L 204.083575 197.584117 
L 204.417098 196.710937 
L 204.654038 196.128817 
L 204.844376 196.031797 
L 204.892199 195.837757 
L 206.469605 195.740737 
L 206.725756 195.352657 
L 207.493359 195.255637 
L 207.730386 195.158617 
L 207.963875 195.061597 
L 208.208038 194.867557 
L 208.355839 194.867557 
L 208.441522 194.382457 
L 208.630028 194.285437 
L 208.677818 194.382457 
L 209.389458 193.509277 
L 209.624542 193.024177 
L 210.095849 192.636097 
L 210.331905 192.345037 
L 210.569346 192.150997 
L 212.145815 191.762917 
L 212.225339 191.568877 
L 212.462645 191.568877 
L 212.831246 191.277817 
L 213.408899 191.180797 
L 214.741209 189.919537 
L 215.177629 189.143377 
L 215.24331 189.143377 
L 215.301091 188.949337 
L 215.433184 188.949337 
L 215.537614 188.658277 
L 215.773823 188.464237 
L 216.247884 188.367217 
L 216.958787 188.173177 
L 218.377583 188.076157 
L 219.02966 187.591057 
L 219.087338 187.397017 
L 219.464294 187.299997 
L 219.758514 186.911917 
L 220.202431 186.814897 
L 220.742719 185.941717 
L 221.160736 184.874497 
L 221.87604 183.807277 
L 223.761698 183.710257 
L 223.968927 183.516217 
L 224.292516 183.419197 
L 224.454083 183.322177 
L 224.528147 183.128137 
L 224.765115 183.128137 
L 225.137979 182.448997 
L 225.480123 182.351977 
L 225.711328 181.963897 
L 225.881946 181.963897 
L 226.193204 181.284757 
L 226.34075 181.284757 
L 226.658232 180.799657 
L 227.292195 180.702637 
L 227.548886 180.508597 
L 229.498037 180.411577 
L 229.735925 180.314557 
L 229.97108 180.217537 
L 230.443328 179.732437 
L 230.917604 179.732437 
L 231.159529 179.538397 
L 231.391346 179.538397 
L 231.626405 179.344357 
L 232.33637 178.762237 
L 233.048967 177.695017 
L 233.61137 177.597997 
L 233.81815 177.403957 
L 234.230742 177.306937 
L 234.714712 177.112897 
L 235.9992 177.015877 
L 236.596569 176.045677 
L 236.834691 175.657597 
L 237.544289 174.784417 
L 237.693822 174.784417 
L 238.016195 173.717197 
L 238.429214 173.426137 
L 238.682384 172.649977 
L 238.729357 172.649977 
L 238.962557 172.455937 
L 240.855431 172.358917 
L 241.501344 171.873817 
L 241.680727 171.776797 
L 242.041783 171.776797 
L 242.280204 171.582757 
L 242.425605 171.582757 
L 242.511107 171.388717 
L 242.748135 171.388717 
L 242.984579 171.000637 
L 243.693124 169.642357 
L 243.826669 169.642357 
L 243.931211 169.448317 
L 244.404007 168.866197 
L 244.640553 168.478117 
L 246.296006 168.381097 
L 246.692491 168.187057 
L 246.769554 168.187057 
L 247.169856 167.701957 
L 247.480401 167.701957 
L 247.859089 167.507917 
L 248.602328 167.410897 
L 248.661311 167.216857 
L 249.135431 166.828777 
L 249.372272 166.537717 
L 249.608868 166.537717 
L 249.845334 166.246657 
L 250.214634 165.955597 
L 250.317597 165.761557 
L 251.899943 165.567517 
L 252.448574 165.567517 
L 252.689883 165.373477 
L 253.048235 165.276457 
L 253.158132 165.276457 
L 253.531047 165.082417 
L 253.63026 164.985397 
L 254.001521 164.500297 
L 254.105685 164.500297 
L 254.487047 164.209237 
L 254.533401 164.209237 
L 254.580784 164.015197 
L 255.28898 163.239037 
L 255.523592 163.142017 
L 255.76055 162.850957 
L 258.368585 162.753937 
L 258.723255 162.656917 
L 259.312711 162.559897 
L 259.783104 162.365857 
L 260.020406 162.268837 
L 260.255112 162.171817 
L 260.415999 162.171817 
L 260.729092 161.589697 
L 261.202649 160.910557 
L 261.515002 160.813537 
L 261.67615 160.522477 
L 262.773133 160.425457 
L 263.934407 160.328437 
L 264.041148 160.231417 
L 264.937336 159.649297 
L 264.987199 159.552277 
L 265.462781 159.455257 
L 265.698528 159.261217 
L 266.408262 159.164197 
L 266.643944 158.970157 
L 266.881246 158.970157 
L 267.117517 158.776117 
L 271.13972 158.679097 
L 271.37589 158.582077 
L 271.613239 158.485057 
L 271.95924 158.193997 
L 272.086016 157.999957 
L 272.500741 157.902937 
L 272.79521 157.417837 
L 273.032799 157.320817 
L 274.129579 157.223797 
L 275.288989 157.126777 
L 275.557131 156.835717 
L 275.81362 156.641677 
L 276.086951 156.641677 
L 276.344838 156.447637 
L 276.820155 156.350617 
L 277.438545 155.865517 
L 277.532388 155.768497 
L 278.115421 155.671477 
L 278.397225 155.089357 
L 281.0829 154.992337 
L 281.549982 154.604257 
L 281.925203 154.410217 
L 281.977103 154.410217 
L 282.024541 154.216177 
L 282.503444 154.119157 
L 282.733008 153.634057 
L 283.321188 153.342997 
L 283.384486 153.342997 
L 283.627683 152.857897 
L 283.678986 152.857897 
L 283.916231 152.566837 
L 284.072999 152.566837 
L 284.388965 152.081737 
L 286.177323 151.984717 
L 286.2822 151.887697 
L 286.916164 151.790677 
L 287.111869 151.693657 
L 287.227262 151.693657 
L 287.611905 151.499617 
L 287.939122 151.402597 
L 288.06511 151.305577 
L 288.175519 151.111537 
L 288.650033 150.723457 
L 288.994163 150.044317 
L 289.120969 150.044317 
L 289.593414 149.171137 
L 289.750206 149.074117 
L 290.00943 148.394977 
L 291.017247 148.297957 
L 291.251167 148.200937 
L 292.443403 148.200937 
L 292.671192 148.006897 
L 293.140998 147.909877 
L 293.381072 147.618817 
L 294.091323 147.521797 
L 294.326673 147.424777 
L 294.563408 147.327757 
L 294.799843 147.036697 
L 295.044918 146.551597 
L 295.426832 146.357557 
L 296.842551 146.260537 
L 296.940201 146.163517 
L 297.638146 146.163517 
L 297.875207 145.969477 
L 298.272144 145.872457 
L 298.52912 145.678417 
L 299.295134 145.581397 
L 299.703512 145.193317 
L 299.76831 144.999277 
L 300.006583 144.902257 
L 300.241781 144.417157 
L 300.478265 144.223117 
L 300.559565 144.223117 
L 300.716283 143.932057 
L 301.030132 143.640997 
L 301.275909 143.543977 
L 301.610582 143.252917 
L 302.761657 143.155897 
L 302.937071 143.058877 
L 303.553622 142.961857 
L 303.73712 142.864837 
L 303.874417 142.767817 
L 304.483388 142.185697 
L 304.81539 142.185697 
L 305.169678 141.506557 
L 305.216528 141.506557 
L 305.599041 140.827417 
L 306.048727 140.439337 
L 306.156189 140.439337 
L 306.356558 140.245297 
L 306.403826 140.245297 
L 306.570694 140.633377 
L 306.945217 140.536357 
L 307.102511 140.439337 
L 307.283111 140.342317 
L 309.82409 140.245297 
L 309.888402 140.148277 
L 310.038155 139.760197 
L 310.15618 139.760197 
L 310.372983 139.566157 
L 310.970703 139.469137 
L 311.124418 139.372117 
L 311.361484 139.275097 
L 311.598565 139.178077 
L 312.016379 139.081057 
L 312.308228 138.789997 
L 312.552338 138.692977 
L 312.741323 138.595957 
L 313.358023 138.498937 
L 313.574974 138.401917 
L 314.987321 138.304897 
L 315.383796 137.722777 
L 315.719203 137.625757 
L 315.994792 137.528737 
L 316.168251 137.431717 
L 316.406941 137.237677 
L 316.729382 137.140657 
L 317.402643 136.073437 
L 318.303549 134.618137 
L 319.795865 134.521117 
L 319.973265 134.424097 
L 320.521511 134.327077 
L 320.829043 134.036017 
L 321.063038 134.036017 
L 321.299356 133.550917 
L 321.615669 133.356877 
L 321.724587 133.356877 
L 321.854718 132.774757 
L 321.928469 132.677737 
L 322.151953 131.998597 
L 322.33413 132.095617 
L 322.562791 131.513497 
L 322.717839 131.416477 
L 322.806635 131.319457 
L 322.955707 130.834357 
L 323.076264 130.543297 
L 323.337986 129.670117 
L 324.042115 128.408857 
L 324.13825 128.311837 
L 324.680278 128.117797 
L 325.40596 128.020777 
L 325.556762 127.923757 
L 325.988632 127.826737 
L 326.186079 127.632697 
L 326.347838 127.632697 
L 326.506556 127.438657 
L 326.81661 127.341637 
L 327.078792 126.565477 
L 327.692973 125.983357 
L 327.924134 125.498257 
L 328.093656 125.401237 
L 328.316157 124.916137 
L 328.549485 124.236997 
L 328.755914 124.139977 
L 329.81582 122.393617 
L 330.526061 122.296597 
L 330.716248 122.199577 
L 331.236456 122.102557 
L 331.473097 122.005537 
L 331.708607 121.908517 
L 332.140651 121.520437 
L 332.140651 121.520437 
" clip-path="url(#p9b8ee03ca8)" style="fill: none; stroke: #005953; stroke-width: 2; stroke-linecap: square"/>
   </g>
   <g id="line2d_10">
    <path d="M 164.005181 402.878437 
L 169.319782 402.878437 
L 169.632591 402.199297 
L 169.809917 402.102277 
L 170.285657 400.064857 
L 170.343456 400.064857 
L 170.580058 399.482737 
L 170.821342 399.385717 
L 171.52595 399.191677 
L 172.155262 399.094657 
L 172.236624 398.900617 
L 172.599533 398.900617 
L 172.709457 398.706577 
L 173.536425 398.318497 
L 174.364836 398.221477 
L 174.601756 397.057237 
L 175.031817 396.669157 
L 175.490018 395.892997 
L 175.961522 395.310877 
L 176.021137 395.310877 
L 176.320051 395.116837 
L 178.820092 395.019817 
L 178.862272 394.922797 
L 180.043397 394.825777 
L 180.280991 394.728757 
L 180.518365 393.564517 
L 180.753167 393.564517 
L 181.423069 392.788357 
L 181.466949 392.303257 
L 181.466949 392.303257 
L 182.122402 374.645617 
L 182.176709 374.451577 
L 184.453065 360.577717 
L 184.705804 355.823737 
L 185.016107 353.301217 
L 185.92386 344.860477 
L 185.971046 344.763457 
L 186.198905 343.405177 
L 187.041236 337.389937 
L 187.144995 337.001857 
L 187.382047 335.643577 
L 187.797474 334.479337 
L 187.854682 334.479337 
L 187.987824 334.285297 
L 188.477947 334.188277 
L 188.571883 334.091257 
L 189.749421 333.994237 
L 189.996419 333.800197 
L 190.45922 332.344897 
L 191.878429 330.016417 
L 192.119788 329.143237 
L 192.834823 328.173037 
L 193.061374 327.687937 
L 193.427411 327.590917 
L 193.535207 327.493897 
L 194.688246 327.299857 
L 195.426442 327.202837 
L 195.843373 326.620717 
L 196.055574 326.523697 
L 196.320594 326.038597 
L 196.374294 325.941577 
L 196.750945 324.971377 
L 196.797755 324.971377 
L 197.030433 324.486277 
L 197.213617 324.389257 
L 197.753513 323.322037 
L 197.798853 322.933957 
L 197.955964 322.642897 
L 198.208661 321.672697 
L 198.445996 320.896537 
L 198.680186 320.314417 
L 198.740568 320.120377 
L 199.101295 320.023357 
L 199.211632 319.926337 
L 200.868166 319.635277 
L 201.105738 319.441237 
L 201.262762 319.441237 
L 201.476768 319.150177 
L 201.578601 319.053157 
L 202.052623 318.568057 
L 202.426233 317.694877 
L 202.760999 317.597857 
L 202.997287 317.500837 
L 203.164634 317.500837 
L 203.477346 302.850817 
L 204.790969 299.843197 
L 205.60056 299.746177 
L 205.838921 299.649157 
L 206.54665 299.649157 
L 206.783902 299.358097 
L 207.021612 299.261077 
L 207.427197 298.872997 
L 207.493359 298.678957 
L 207.730386 298.678957 
L 207.963875 298.290877 
L 208.208038 298.193857 
L 208.355839 298.096837 
L 208.441522 297.514717 
L 208.677818 290.917357 
L 209.102993 290.335237 
L 209.150257 289.947157 
L 209.389458 289.559077 
L 209.624542 288.976957 
L 210.095849 288.394837 
L 210.462352 288.394837 
L 210.569346 288.200797 
L 212.462645 288.103777 
L 212.880053 287.715697 
L 213.171301 287.618677 
L 213.408899 287.230597 
L 214.124323 286.842517 
L 214.358063 286.745497 
L 214.592151 282.961717 
L 214.788095 282.573637 
L 215.177629 281.409397 
L 215.301091 281.409397 
L 215.925537 280.245157 
L 216.138362 280.148137 
L 216.247884 280.148137 
L 216.958787 279.954097 
L 217.903956 279.857077 
L 218.141601 279.663037 
L 218.377583 279.371977 
L 218.613448 279.274957 
L 219.087338 278.789857 
L 219.314555 276.558397 
L 219.562281 276.461377 
L 219.806203 276.461377 
L 220.040482 276.267337 
L 220.272298 276.170317 
L 220.506689 275.685217 
L 220.573185 275.685217 
L 220.742719 274.715017 
L 221.216653 273.356737 
L 221.454929 272.677597 
L 221.602489 272.580577 
L 221.694737 272.386537 
L 222.039194 272.289517 
L 222.871764 272.192497 
L 223.349009 272.095477 
L 223.58237 271.998457 
L 223.761698 271.513357 
L 224.235953 271.416337 
L 224.292516 270.543157 
L 224.765115 268.893817 
L 225.711328 267.632557 
L 225.949057 266.856397 
L 226.193204 266.662357 
L 227.07512 265.110037 
L 228.502778 265.013017 
L 228.551054 264.818977 
L 229.498037 264.721957 
L 229.735925 264.624937 
L 229.97108 264.624937 
L 230.384796 264.042817 
L 230.443328 264.042817 
L 231.111987 263.557717 
L 231.391346 263.557717 
L 231.870222 262.975597 
L 232.279203 261.520297 
L 233.048967 260.356057 
L 233.284332 260.356057 
L 233.660301 260.064997 
L 234.466767 259.967977 
L 234.714712 259.773937 
L 235.533511 259.773937 
L 235.650384 259.191817 
L 235.808485 258.997777 
L 235.9992 258.609697 
L 236.121709 258.609697 
L 236.970473 257.833537 
L 237.068332 257.639497 
L 237.451225 257.348437 
L 237.544289 257.348437 
L 237.889931 256.669297 
L 238.016195 256.669297 
L 238.256917 256.475257 
L 238.488632 256.378237 
L 238.905389 255.990157 
L 238.962557 255.990157 
L 239.682301 255.505057 
L 240.064431 255.505057 
L 240.145683 255.116977 
L 241.091297 255.019957 
L 241.333642 254.922937 
L 241.565056 248.713657 
L 241.801021 248.519617 
L 242.041783 247.452397 
L 242.647676 246.967297 
L 242.748135 246.579217 
L 243.58666 244.153717 
L 243.693124 244.056697 
L 244.166315 243.668617 
L 244.528596 242.989477 
L 244.640553 242.989477 
L 245.349927 242.795437 
L 246.692491 242.698417 
L 247.005883 242.310337 
L 247.480401 242.310337 
L 247.859089 242.116297 
L 247.912407 242.116297 
L 247.958283 241.922257 
L 248.426548 241.825237 
L 248.602328 240.272917 
L 248.661311 237.944437 
L 248.857579 237.750397 
L 249.608868 236.295097 
L 249.845334 236.198077 
L 250.317597 235.907017 
L 251.502045 235.809997 
L 251.737338 235.712977 
L 252.64327 235.615957 
L 252.849362 235.421917 
L 253.099895 235.227877 
L 253.531047 235.130857 
L 253.63026 234.936817 
L 254.105685 234.839797 
L 254.341151 234.063637 
L 254.580784 231.541117 
L 254.99328 230.182837 
L 255.050116 230.182837 
L 255.523592 229.600717 
L 255.999254 229.309657 
L 256.706698 229.115617 
L 257.179002 229.018597 
L 257.417543 228.533497 
L 258.368585 228.533497 
L 258.600096 227.951377 
L 258.835695 227.854357 
L 259.783104 227.078197 
L 260.020406 224.167597 
L 260.607948 223.197397 
L 260.729092 223.197397 
L 260.964548 222.809317 
L 261.202649 222.712297 
L 261.62519 222.324217 
L 261.67615 222.324217 
L 262.386037 222.130177 
L 263.260765 222.033157 
L 263.456303 221.936137 
L 264.210463 221.839117 
L 264.514604 221.548057 
L 264.746468 221.354017 
L 264.987199 219.219577 
L 265.462781 219.025537 
L 265.698528 218.249377 
L 266.171342 217.861297 
L 266.408262 217.667257 
L 267.354585 217.085137 
L 268.30504 216.988117 
L 269.956873 216.891097 
L 270.404818 216.600037 
L 271.030951 216.503017 
L 271.13972 216.405997 
L 271.760889 216.308977 
L 272.026798 216.017917 
L 272.212804 215.920897 
L 272.558321 215.920897 
L 272.79521 215.532817 
L 272.973657 215.532817 
L 273.032799 215.338777 
L 274.825361 215.241757 
L 274.923991 215.047717 
L 275.634734 214.950697 
L 275.871672 214.853677 
L 276.245428 214.756657 
L 276.344838 214.659637 
L 276.981332 214.368577 
L 277.532388 214.271557 
L 277.765059 214.174537 
L 278.004502 214.077517 
L 278.473091 213.786457 
L 278.715277 213.398377 
L 279.420154 213.107317 
L 280.499912 213.010297 
L 280.603547 212.913277 
L 281.0829 212.816257 
L 281.314107 212.428177 
L 281.791269 212.331157 
L 282.024541 212.234137 
L 282.503444 212.137117 
L 282.733008 209.905657 
L 283.384486 209.808637 
L 283.441846 209.711617 
L 283.627683 209.614597 
L 283.800473 209.517577 
L 283.916231 209.420557 
L 284.388965 209.226517 
L 285.343278 209.129497 
L 285.509513 209.129497 
L 285.571609 208.935457 
L 286.044325 208.741417 
L 287.611905 208.644397 
L 287.704808 208.547377 
L 287.939122 208.547377 
L 288.175519 206.995057 
L 288.8843 206.898037 
L 289.372512 206.606977 
L 289.750206 206.509957 
L 290.00943 206.315917 
L 290.066395 206.315917 
L 291.017247 206.024857 
L 291.168307 206.024857 
L 291.251167 205.248697 
L 291.902369 205.151677 
L 291.960866 205.054657 
L 292.791663 204.957637 
L 292.906225 204.763597 
L 293.855904 204.666577 
L 294.091323 204.472537 
L 294.488977 204.472537 
L 294.673677 204.181477 
L 294.799843 204.181477 
L 295.216095 203.308297 
L 295.426832 203.114257 
L 297.582562 203.017237 
L 297.638146 202.726177 
L 298.069714 202.629157 
L 298.11597 202.532137 
L 298.462386 202.532137 
L 298.584186 202.144057 
L 298.8158 202.047037 
L 299.065569 201.852997 
L 300.006583 201.755977 
L 300.559565 200.688757 
L 300.792754 200.591737 
L 300.951461 200.397697 
L 301.148241 200.300677 
L 301.424207 200.203657 
L 301.843129 200.106637 
L 302.937071 200.009617 
L 303.166787 199.912597 
L 303.73712 199.815577 
L 303.952981 199.524517 
L 304.483388 199.524517 
L 304.688489 199.039417 
L 305.447995 198.942397 
L 305.599041 198.651337 
L 305.683122 198.651337 
L 305.863715 198.360277 
L 305.919058 198.360277 
L 306.403826 196.904977 
L 306.570694 196.613917 
L 306.777789 196.419877 
L 306.871779 196.322857 
L 307.045959 196.225837 
L 307.283111 196.128817 
L 308.364939 195.934777 
L 309.706097 195.837757 
L 310.3246 195.158617 
L 311.361484 195.061597 
L 311.672928 194.867557 
L 311.834744 194.867557 
L 312.016379 194.576497 
L 313.730923 194.479477 
L 313.885855 194.382457 
L 315.146547 194.285437 
L 315.620404 193.800337 
L 316.168251 193.703317 
L 316.332845 193.606297 
L 316.461249 193.606297 
L 316.566498 193.315237 
L 317.356818 193.315237 
L 317.513313 193.024177 
L 317.592292 193.024177 
L 317.750105 192.733117 
L 317.987366 192.636097 
L 318.229336 192.442057 
L 318.45962 192.442057 
L 318.653586 191.956957 
L 319.641866 191.665897 
L 320.354487 191.568877 
L 320.910882 191.083777 
L 321.13689 190.986757 
L 321.299356 190.792717 
L 321.522661 190.598677 
L 321.724587 190.307617 
L 322.090306 190.307617 
L 322.248974 187.785097 
L 322.33413 187.591057 
L 322.482461 186.911917 
L 322.876795 186.232777 
L 323.076264 186.135757 
L 323.190684 186.135757 
L 323.51226 185.553637 
L 323.665212 185.456617 
L 323.819894 185.165557 
L 324.13825 185.068537 
L 324.3244 184.874497 
L 325.24214 184.777477 
L 325.40596 184.583437 
L 326.119909 184.486417 
L 326.347838 184.292377 
L 326.506556 184.292377 
L 326.666983 184.098337 
L 326.919514 184.001317 
L 327.078792 183.904297 
L 327.354201 183.613237 
L 327.450728 183.419197 
L 327.692973 183.419197 
L 327.924134 182.837077 
L 328.160719 180.120517 
L 328.316157 179.829457 
L 328.399053 179.829457 
L 328.549485 179.538397 
L 328.755914 179.150317 
L 329.065292 178.374157 
L 329.182938 178.277137 
L 329.342813 178.180117 
L 329.712685 178.083097 
L 329.81582 177.986077 
L 330.526061 177.695017 
L 330.999912 177.695017 
L 331.153816 177.403957 
L 331.650705 177.306937 
L 331.799873 177.209917 
L 332.140651 177.209917 
L 332.140651 177.209917 
" clip-path="url(#p9b8ee03ca8)" style="fill: none; stroke: #69a3a2; stroke-width: 2; stroke-linecap: square"/>
   </g>
   <g id="LineCollection_1">
    <path d="M 0.517775 402.878437 
L 1007.45 402.878437 
" clip-path="url(#p9b8ee03ca8)" style="fill: none; stroke: #d3d3d3; stroke-width: 0.5"/>
    <path d="M 0.517775 305.858437 
L 1007.45 305.858437 
" clip-path="url(#p9b8ee03ca8)" style="fill: none; stroke: #d3d3d3; stroke-width: 0.5"/>
    <path d="M 0.517775 208.838437 
L 1007.45 208.838437 
" clip-path="url(#p9b8ee03ca8)" style="fill: none; stroke: #d3d3d3; stroke-width: 0.5"/>
    <path d="M 0.517775 111.818437 
L 1007.45 111.818437 
" clip-path="url(#p9b8ee03ca8)" style="fill: none; stroke: #d3d3d3; stroke-width: 0.5"/>
    <path d="M 0.517775 14.798437 
L 1007.45 14.798437 
" clip-path="url(#p9b8ee03ca8)" style="fill: none; stroke: #d3d3d3; stroke-width: 0.5"/>
    <path clip-path="url(#p9b8ee03ca8)" style="fill: none; stroke: #d3d3d3; stroke-width: 0.5"/>
    <path clip-path="url(#p9b8ee03ca8)" style="fill: none; stroke: #d3d3d3; stroke-width: 0.5"/>
    <path clip-path="url(#p9b8ee03ca8)" style="fill: none; stroke: #d3d3d3; stroke-width: 0.5"/>
    <path clip-path="url(#p9b8ee03ca8)" style="fill: none; stroke: #d3d3d3; stroke-width: 0.5"/>
    <path clip-path="url(#p9b8ee03ca8)" style="fill: none; stroke: #d3d3d3; stroke-width: 0.5"/>
    <path clip-path="url(#p9b8ee03ca8)" style="fill: none; stroke: #d3d3d3; stroke-width: 0.5"/>
    <path clip-path="url(#p9b8ee03ca8)" style="fill: none; stroke: #d3d3d3; stroke-width: 0.5"/>
    <path clip-path="url(#p9b8ee03ca8)" style="fill: none; stroke: #d3d3d3; stroke-width: 0.5"/>
    <path clip-path="url(#p9b8ee03ca8)" style="fill: none; stroke: #d3d3d3; stroke-width: 0.5"/>
    <path clip-path="url(#p9b8ee03ca8)" style="fill: none; stroke: #d3d3d3; stroke-width: 0.5"/>
    <path clip-path="url(#p9b8ee03ca8)" style="fill: none; stroke: #d3d3d3; stroke-width: 0.5"/>
    <path clip-path="url(#p9b8ee03ca8)" style="fill: none; stroke: #d3d3d3; stroke-width: 0.5"/>
    <path clip-path="url(#p9b8ee03ca8)" style="fill: none; stroke: #d3d3d3; stroke-width: 0.5"/>
    <path clip-path="url(#p9b8ee03ca8)" style="fill: none; stroke: #d3d3d3; stroke-width: 0.5"/>
    <path clip-path="url(#p9b8ee03ca8)" style="fill: none; stroke: #d3d3d3; stroke-width: 0.5"/>
    <path clip-path="url(#p9b8ee03ca8)" style="fill: none; stroke: #d3d3d3; stroke-width: 0.5"/>
    <path clip-path="url(#p9b8ee03ca8)" style="fill: none; stroke: #d3d3d3; stroke-width: 0.5"/>
    <path clip-path="url(#p9b8ee03ca8)" style="fill: none; stroke: #d3d3d3; stroke-width: 0.5"/>
    <path clip-path="url(#p9b8ee03ca8)" style="fill: none; stroke: #d3d3d3; stroke-width: 0.5"/>
    <path clip-path="url(#p9b8ee03ca8)" style="fill: none; stroke: #d3d3d3; stroke-width: 0.5"/>
    <path clip-path="url(#p9b8ee03ca8)" style="fill: none; stroke: #d3d3d3; stroke-width: 0.5"/>
    <path clip-path="url(#p9b8ee03ca8)" style="fill: none; stroke: #d3d3d3; stroke-width: 0.5"/>
    <path clip-path="url(#p9b8ee03ca8)" style="fill: none; stroke: #d3d3d3; stroke-width: 0.5"/>
    <path clip-path="url(#p9b8ee03ca8)" style="fill: none; stroke: #d3d3d3; stroke-width: 0.5"/>
    <path clip-path="url(#p9b8ee03ca8)" style="fill: none; stroke: #d3d3d3; stroke-width: 0.5"/>
    <path clip-path="url(#p9b8ee03ca8)" style="fill: none; stroke: #d3d3d3; stroke-width: 0.5"/>
    <path clip-path="url(#p9b8ee03ca8)" style="fill: none; stroke: #d3d3d3; stroke-width: 0.5"/>
    <path clip-path="url(#p9b8ee03ca8)" style="fill: none; stroke: #d3d3d3; stroke-width: 0.5"/>
    <path clip-path="url(#p9b8ee03ca8)" style="fill: none; stroke: #d3d3d3; stroke-width: 0.5"/>
    <path clip-path="url(#p9b8ee03ca8)" style="fill: none; stroke: #d3d3d3; stroke-width: 0.5"/>
    <path clip-path="url(#p9b8ee03ca8)" style="fill: none; stroke: #d3d3d3; stroke-width: 0.5"/>
    <path clip-path="url(#p9b8ee03ca8)" style="fill: none; stroke: #d3d3d3; stroke-width: 0.5"/>
    <path clip-path="url(#p9b8ee03ca8)" style="fill: none; stroke: #d3d3d3; stroke-width: 0.5"/>
    <path clip-path="url(#p9b8ee03ca8)" style="fill: none; stroke: #d3d3d3; stroke-width: 0.5"/>
    <path clip-path="url(#p9b8ee03ca8)" style="fill: none; stroke: #d3d3d3; stroke-width: 0.5"/>
    <path clip-path="url(#p9b8ee03ca8)" style="fill: none; stroke: #d3d3d3; stroke-width: 0.5"/>
    <path clip-path="url(#p9b8ee03ca8)" style="fill: none; stroke: #d3d3d3; stroke-width: 0.5"/>
    <path clip-path="url(#p9b8ee03ca8)" style="fill: none; stroke: #d3d3d3; stroke-width: 0.5"/>
    <path clip-path="url(#p9b8ee03ca8)" style="fill: none; stroke: #d3d3d3; stroke-width: 0.5"/>
    <path clip-path="url(#p9b8ee03ca8)" style="fill: none; stroke: #d3d3d3; stroke-width: 0.5"/>
    <path clip-path="url(#p9b8ee03ca8)" style="fill: none; stroke: #d3d3d3; stroke-width: 0.5"/>
    <path clip-path="url(#p9b8ee03ca8)" style="fill: none; stroke: #d3d3d3; stroke-width: 0.5"/>
    <path clip-path="url(#p9b8ee03ca8)" style="fill: none; stroke: #d3d3d3; stroke-width: 0.5"/>
    <path clip-path="url(#p9b8ee03ca8)" style="fill: none; stroke: #d3d3d3; stroke-width: 0.5"/>
    <path clip-path="url(#p9b8ee03ca8)" style="fill: none; stroke: #d3d3d3; stroke-width: 0.5"/>
   </g>
   <g id="patch_3">
    <path d="M 136.8 402.878437 
L 136.8 14.798437 
" style="fill: none; stroke: #000000; stroke-width: 0.8; stroke-linejoin: miter; stroke-linecap: square"/>
   </g>
   <g id="patch_4">
    <path d="M 517.254545 402.878437 
L 517.254545 14.798437 
" style="fill: none; stroke: #000000; stroke-width: 0.8; stroke-linejoin: miter; stroke-linecap: square"/>
   </g>
   <g id="patch_5">
    <path d="M 136.8 402.878437 
L 517.254545 402.878437 
" style="fill: none; stroke: #000000; stroke-width: 0.8; stroke-linejoin: miter; stroke-linecap: square"/>
   </g>
   <g id="patch_6">
    <path d="M 136.8 14.798437 
L 517.254545 14.798437 
" style="fill: none; stroke: #000000; stroke-width: 0.8; stroke-linejoin: miter; stroke-linecap: square"/>
   </g>
   <g id="text_11">
    <!-- 2900 total regs (2326 paid). -->
    <g transform="translate(138.702273 400.938037) scale(0.066667 -0.066667)">
     <defs>
      <path id="DejaVuSans-39" d="M 703 97 
L 703 672 
Q 941 559 1184 500 
Q 1428 441 1663 441 
Q 2288 441 2617 861 
Q 2947 1281 2994 2138 
Q 2813 1869 2534 1725 
Q 2256 1581 1919 1581 
Q 1219 1581 811 2004 
Q 403 2428 403 3163 
Q 403 3881 828 4315 
Q 1253 4750 1959 4750 
Q 2769 4750 3195 4129 
Q 3622 3509 3622 2328 
Q 3622 1225 3098 567 
Q 2575 -91 1691 -91 
Q 1453 -91 1209 -44 
Q 966 3 703 97 
z
M 1959 2075 
Q 2384 2075 2632 2365 
Q 2881 2656 2881 3163 
Q 2881 3666 2632 3958 
Q 2384 4250 1959 4250 
Q 1534 4250 1286 3958 
Q 1038 3666 1038 3163 
Q 1038 2656 1286 2365 
Q 1534 2075 1959 2075 
z
" transform="scale(0.015625)"/>
      <path id="DejaVuSans-6c" d="M 603 4863 
L 1178 4863 
L 1178 0 
L 603 0 
L 603 4863 
z
" transform="scale(0.015625)"/>
      <path id="DejaVuSans-67" d="M 2906 1791 
Q 2906 2416 2648 2759 
Q 2391 3103 1925 3103 
Q 1463 3103 1205 2759 
Q 947 2416 947 1791 
Q 947 1169 1205 825 
Q 1463 481 1925 481 
Q 2391 481 2648 825 
Q 2906 1169 2906 1791 
z
M 3481 434 
Q 3481 -459 3084 -895 
Q 2688 -1331 1869 -1331 
Q 1566 -1331 1297 -1286 
Q 1028 -1241 775 -1147 
L 775 -588 
Q 1028 -725 1275 -790 
Q 1522 -856 1778 -856 
Q 2344 -856 2625 -561 
Q 2906 -266 2906 331 
L 2906 616 
Q 2728 306 2450 153 
Q 2172 0 1784 0 
Q 1141 0 747 490 
Q 353 981 353 1791 
Q 353 2603 747 3093 
Q 1141 3584 1784 3584 
Q 2172 3584 2450 3431 
Q 2728 3278 2906 2969 
L 2906 3500 
L 3481 3500 
L 3481 434 
z
" transform="scale(0.015625)"/>
      <path id="DejaVuSans-73" d="M 2834 3397 
L 2834 2853 
Q 2591 2978 2328 3040 
Q 2066 3103 1784 3103 
Q 1356 3103 1142 2972 
Q 928 2841 928 2578 
Q 928 2378 1081 2264 
Q 1234 2150 1697 2047 
L 1894 2003 
Q 2506 1872 2764 1633 
Q 3022 1394 3022 966 
Q 3022 478 2636 193 
Q 2250 -91 1575 -91 
Q 1294 -91 989 -36 
Q 684 19 347 128 
L 347 722 
Q 666 556 975 473 
Q 1284 391 1588 391 
Q 1994 391 2212 530 
Q 2431 669 2431 922 
Q 2431 1156 2273 1281 
Q 2116 1406 1581 1522 
L 1381 1569 
Q 847 1681 609 1914 
Q 372 2147 372 2553 
Q 372 3047 722 3315 
Q 1072 3584 1716 3584 
Q 2034 3584 2315 3537 
Q 2597 3491 2834 3397 
z
" transform="scale(0.015625)"/>
      <path id="DejaVuSans-28" d="M 1984 4856 
Q 1566 4138 1362 3434 
Q 1159 2731 1159 2009 
Q 1159 1288 1364 580 
Q 1569 -128 1984 -844 
L 1484 -844 
Q 1016 -109 783 600 
Q 550 1309 550 2009 
Q 550 2706 781 3412 
Q 1013 4119 1484 4856 
L 1984 4856 
z
" transform="scale(0.015625)"/>
      <path id="DejaVuSans-36" d="M 2113 2584 
Q 1688 2584 1439 2293 
Q 1191 2003 1191 1497 
Q 1191 994 1439 701 
Q 1688 409 2113 409 
Q 2538 409 2786 701 
Q 3034 994 3034 1497 
Q 3034 2003 2786 2293 
Q 2538 2584 2113 2584 
z
M 3366 4563 
L 3366 3988 
Q 3128 4100 2886 4159 
Q 2644 4219 2406 4219 
Q 1781 4219 1451 3797 
Q 1122 3375 1075 2522 
Q 1259 2794 1537 2939 
Q 1816 3084 2150 3084 
Q 2853 3084 3261 2657 
Q 3669 2231 3669 1497 
Q 3669 778 3244 343 
Q 2819 -91 2113 -91 
Q 1303 -91 875 529 
Q 447 1150 447 2328 
Q 447 3434 972 4092 
Q 1497 4750 2381 4750 
Q 2619 4750 2861 4703 
Q 3103 4656 3366 4563 
z
" transform="scale(0.015625)"/>
      <path id="DejaVuSans-64" d="M 2906 2969 
L 2906 4863 
L 3481 4863 
L 3481 0 
L 2906 0 
L 2906 525 
Q 2725 213 2448 61 
Q 2172 -91 1784 -91 
Q 1150 -91 751 415 
Q 353 922 353 1747 
Q 353 2572 751 3078 
Q 1150 3584 1784 3584 
Q 2172 3584 2448 3432 
Q 2725 3281 2906 2969 
z
M 947 1747 
Q 947 1113 1208 752 
Q 1469 391 1925 391 
Q 2381 391 2643 752 
Q 2906 1113 2906 1747 
Q 2906 2381 2643 2742 
Q 2381 3103 1925 3103 
Q 1469 3103 1208 2742 
Q 947 2381 947 1747 
z
" transform="scale(0.015625)"/>
      <path id="DejaVuSans-29" d="M 513 4856 
L 1013 4856 
Q 1481 4119 1714 3412 
Q 1947 2706 1947 2009 
Q 1947 1309 1714 600 
Q 1481 -109 1013 -844 
L 513 -844 
Q 928 -128 1133 580 
Q 1338 1288 1338 2009 
Q 1338 2731 1133 3434 
Q 928 4138 513 4856 
z
" transform="scale(0.015625)"/>
      <path id="DejaVuSans-2e" d="M 684 794 
L 1344 794 
L 1344 0 
L 684 0 
L 684 794 
z
" transform="scale(0.015625)"/>
     </defs>
     <use xlink:href="#DejaVuSans-32"/>
     <use xlink:href="#DejaVuSans-39" x="63.623047"/>
     <use xlink:href="#DejaVuSans-30" x="127.246094"/>
     <use xlink:href="#DejaVuSans-30" x="190.869141"/>
     <use xlink:href="#DejaVuSans-20" x="254.492188"/>
     <use xlink:href="#DejaVuSans-74" x="286.279297"/>
     <use xlink:href="#DejaVuSans-6f" x="325.488281"/>
     <use xlink:href="#DejaVuSans-74" x="386.669922"/>
     <use xlink:href="#DejaVuSans-61" x="425.878906"/>
     <use xlink:href="#DejaVuSans-6c" x="487.158203"/>
     <use xlink:href="#DejaVuSans-20" x="514.941406"/>
     <use xlink:href="#DejaVuSans-72" x="546.728516"/>
     <use xlink:href="#DejaVuSans-65" x="585.591797"/>
     <use xlink:href="#DejaVuSans-67" x="647.115234"/>
     <use xlink:href="#DejaVuSans-73" x="710.591797"/>
     <use xlink:href="#DejaVuSans-20" x="762.691406"/>
     <use xlink:href="#DejaVuSans-28" x="794.478516"/>
     <use xlink:href="#DejaVuSans-32" x="833.492188"/>
     <use xlink:href="#DejaVuSans-33" x="897.115234"/>
     <use xlink:href="#DejaVuSans-32" x="960.738281"/>
     <use xlink:href="#DejaVuSans-36" x="1024.361328"/>
     <use xlink:href="#DejaVuSans-20" x="1087.984375"/>
     <use xlink:href="#DejaVuSans-70" x="1119.771484"/>
     <use xlink:href="#DejaVuSans-61" x="1183.248047"/>
     <use xlink:href="#DejaVuSans-69" x="1244.527344"/>
     <use xlink:href="#DejaVuSans-64" x="1272.310547"/>
     <use xlink:href="#DejaVuSans-29" x="1335.787109"/>
     <use xlink:href="#DejaVuSans-2e" x="1374.800781"/>
    </g>
   </g>
   <g id="legend_1">
    <g id="line2d_11">
     <path d="M 236.886648 34.446094 
L 251.886648 34.446094 
L 266.886648 34.446094 
" style="fill: none; stroke: #005953; stroke-width: 2; stroke-linecap: square"/>
    </g>
    <g id="text_12">
     <!-- Total -->
     <g transform="translate(278.886648 39.696094) scale(0.15 -0.15)">
      <use xlink:href="#DejaVuSans-54"/>
      <use xlink:href="#DejaVuSans-6f" x="44.083984"/>
      <use xlink:href="#DejaVuSans-74" x="105.265625"/>
      <use xlink:href="#DejaVuSans-61" x="144.474609"/>
      <use xlink:href="#DejaVuSans-6c" x="205.753906"/>
     </g>
    </g>
    <g id="line2d_12">
     <path d="M 343.916335 34.446094 
L 358.916335 34.446094 
L 373.916335 34.446094 
" style="fill: none; stroke: #69a3a2; stroke-width: 2; stroke-linecap: square"/>
    </g>
    <g id="text_13">
     <!-- Paid -->
     <g transform="translate(385.916335 39.696094) scale(0.15 -0.15)">
      <defs>
       <path id="DejaVuSans-50" d="M 1259 4147 
L 1259 2394 
L 2053 2394 
Q 2494 2394 2734 2622 
Q 2975 2850 2975 3272 
Q 2975 3691 2734 3919 
Q 2494 4147 2053 4147 
L 1259 4147 
z
M 628 4666 
L 2053 4666 
Q 2838 4666 3239 4311 
Q 3641 3956 3641 3272 
Q 3641 2581 3239 2228 
Q 2838 1875 2053 1875 
L 1259 1875 
L 1259 0 
L 628 0 
L 628 4666 
z
" transform="scale(0.015625)"/>
      </defs>
      <use xlink:href="#DejaVuSans-50"/>
      <use xlink:href="#DejaVuSans-61" x="55.802734"/>
      <use xlink:href="#DejaVuSans-69" x="117.082031"/>
      <use xlink:href="#DejaVuSans-64" x="144.865234"/>
     </g>
    </g>
   </g>
  </g>
  <g id="axes_2">
   <g id="patch_7">
    <path d="M 593.345455 402.878437 
L 973.8 402.878437 
L 973.8 14.798437 
L 593.345455 14.798437 
z
" style="fill: #ffffff"/>
   </g>
   <g id="patch_8">
    <path d="M 593.345455 260.582437 
L 781.385114 260.582437 
L 781.385114 157.094437 
L 593.345455 157.094437 
z
" clip-path="url(#p2be89a0a44)" style="fill: #a2c5c4"/>
   </g>
   <g id="patch_9">
    <path d="M 781.385114 260.582437 
L 839.119091 260.582437 
L 839.119091 157.094437 
L 781.385114 157.094437 
z
" clip-path="url(#p2be89a0a44)" style="fill: #69a3a2"/>
   </g>
   <g id="patch_10">
    <path d="M 839.119091 260.582437 
L 868.889659 260.582437 
L 868.889659 157.094437 
L 839.119091 157.094437 
z
" clip-path="url(#p2be89a0a44)" style="fill: #005953"/>
   </g>
   <g id="matplotlib.axis_3">
    <g id="xtick_4">
     <g id="line2d_13">
      <g>
       <use xlink:href="#md1b8a39999" x="593.345455" y="402.878437" style="stroke: #000000; stroke-width: 0.8"/>
      </g>
     </g>
     <g id="text_14">
      <!-- 0 -->
      <g transform="translate(586.982955 431.575312) scale(0.2 -0.2)">
       <use xlink:href="#DejaVuSans-30"/>
      </g>
     </g>
    </g>
    <g id="xtick_5">
     <g id="line2d_14">
      <g>
       <use xlink:href="#md1b8a39999" x="688.459091" y="402.878437" style="stroke: #000000; stroke-width: 0.8"/>
      </g>
     </g>
     <g id="text_15">
      <!-- 1000 -->
      <g transform="translate(663.009091 431.575312) scale(0.2 -0.2)">
       <use xlink:href="#DejaVuSans-31"/>
       <use xlink:href="#DejaVuSans-30" x="63.623047"/>
       <use xlink:href="#DejaVuSans-30" x="127.246094"/>
       <use xlink:href="#DejaVuSans-30" x="190.869141"/>
      </g>
     </g>
    </g>
    <g id="xtick_6">
     <g id="line2d_15">
      <g>
       <use xlink:href="#md1b8a39999" x="783.572727" y="402.878437" style="stroke: #000000; stroke-width: 0.8"/>
      </g>
     </g>
     <g id="text_16">
      <!-- 2000 -->
      <g transform="translate(758.122727 431.575312) scale(0.2 -0.2)">
       <use xlink:href="#DejaVuSans-32"/>
       <use xlink:href="#DejaVuSans-30" x="63.623047"/>
       <use xlink:href="#DejaVuSans-30" x="127.246094"/>
       <use xlink:href="#DejaVuSans-30" x="190.869141"/>
      </g>
     </g>
    </g>
    <g id="xtick_7">
     <g id="line2d_16">
      <g>
       <use xlink:href="#md1b8a39999" x="878.686364" y="402.878437" style="stroke: #000000; stroke-width: 0.8"/>
      </g>
     </g>
     <g id="text_17">
      <!-- 3000 -->
      <g transform="translate(853.236364 431.575312) scale(0.2 -0.2)">
       <use xlink:href="#DejaVuSans-33"/>
       <use xlink:href="#DejaVuSans-30" x="63.623047"/>
       <use xlink:href="#DejaVuSans-30" x="127.246094"/>
       <use xlink:href="#DejaVuSans-30" x="190.869141"/>
      </g>
     </g>
    </g>
    <g id="xtick_8">
     <g id="line2d_17">
      <g>
       <use xlink:href="#md1b8a39999" x="973.8" y="402.878437" style="stroke: #000000; stroke-width: 0.8"/>
      </g>
     </g>
     <g id="text_18">
      <!-- 4000 -->
      <g transform="translate(948.35 431.575312) scale(0.2 -0.2)">
       <use xlink:href="#DejaVuSans-34"/>
       <use xlink:href="#DejaVuSans-30" x="63.623047"/>
       <use xlink:href="#DejaVuSans-30" x="127.246094"/>
       <use xlink:href="#DejaVuSans-30" x="190.869141"/>
      </g>
     </g>
    </g>
    <g id="text_19">
     <!-- Count -->
     <g transform="translate(753.875852 460.931562) scale(0.2 -0.2)">
      <use xlink:href="#DejaVuSans-43"/>
      <use xlink:href="#DejaVuSans-6f" x="69.824219"/>
      <use xlink:href="#DejaVuSans-75" x="131.005859"/>
      <use xlink:href="#DejaVuSans-6e" x="194.384766"/>
      <use xlink:href="#DejaVuSans-74" x="257.763672"/>
     </g>
    </g>
   </g>
   <g id="matplotlib.axis_4"/>
   <g id="patch_11">
    <path d="M 593.345455 402.878437 
L 593.345455 14.798438 
" style="fill: none; stroke: #000000; stroke-width: 0.8; stroke-linejoin: miter; stroke-linecap: square"/>
   </g>
   <g id="patch_12">
    <path d="M 973.8 402.878437 
L 973.8 14.798438 
" style="fill: none; stroke: #000000; stroke-width: 0.8; stroke-linejoin: miter; stroke-linecap: square"/>
   </g>
   <g id="patch_13">
    <path d="M 593.345455 402.878437 
L 973.8 402.878437 
" style="fill: none; stroke: #000000; stroke-width: 0.8; stroke-linejoin: miter; stroke-linecap: square"/>
   </g>
   <g id="patch_14">
    <path d="M 593.345455 14.798437 
L 973.8 14.798437 
" style="fill: none; stroke: #000000; stroke-width: 0.8; stroke-linejoin: miter; stroke-linecap: square"/>
   </g>
   <g id="text_20">
    <!-- Last update 2024-02-28 09:36:42 (UTC). -->
    <g transform="translate(5.4 462.305729) scale(0.066667 -0.066667)">
     <defs>
      <path id="DejaVuSans-4c" d="M 628 4666 
L 1259 4666 
L 1259 531 
L 3531 531 
L 3531 0 
L 628 0 
L 628 4666 
z
" transform="scale(0.015625)"/>
      <path id="DejaVuSans-2d" d="M 313 2009 
L 1997 2009 
L 1997 1497 
L 313 1497 
L 313 2009 
z
" transform="scale(0.015625)"/>
      <path id="DejaVuSans-38" d="M 2034 2216 
Q 1584 2216 1326 1975 
Q 1069 1734 1069 1313 
Q 1069 891 1326 650 
Q 1584 409 2034 409 
Q 2484 409 2743 651 
Q 3003 894 3003 1313 
Q 3003 1734 2745 1975 
Q 2488 2216 2034 2216 
z
M 1403 2484 
Q 997 2584 770 2862 
Q 544 3141 544 3541 
Q 544 4100 942 4425 
Q 1341 4750 2034 4750 
Q 2731 4750 3128 4425 
Q 3525 4100 3525 3541 
Q 3525 3141 3298 2862 
Q 3072 2584 2669 2484 
Q 3125 2378 3379 2068 
Q 3634 1759 3634 1313 
Q 3634 634 3220 271 
Q 2806 -91 2034 -91 
Q 1263 -91 848 271 
Q 434 634 434 1313 
Q 434 1759 690 2068 
Q 947 2378 1403 2484 
z
M 1172 3481 
Q 1172 3119 1398 2916 
Q 1625 2713 2034 2713 
Q 2441 2713 2670 2916 
Q 2900 3119 2900 3481 
Q 2900 3844 2670 4047 
Q 2441 4250 2034 4250 
Q 1625 4250 1398 4047 
Q 1172 3844 1172 3481 
z
" transform="scale(0.015625)"/>
      <path id="DejaVuSans-3a" d="M 750 794 
L 1409 794 
L 1409 0 
L 750 0 
L 750 794 
z
M 750 3309 
L 1409 3309 
L 1409 2516 
L 750 2516 
L 750 3309 
z
" transform="scale(0.015625)"/>
      <path id="DejaVuSans-55" d="M 556 4666 
L 1191 4666 
L 1191 1831 
Q 1191 1081 1462 751 
Q 1734 422 2344 422 
Q 2950 422 3222 751 
Q 3494 1081 3494 1831 
L 3494 4666 
L 4128 4666 
L 4128 1753 
Q 4128 841 3676 375 
Q 3225 -91 2344 -91 
Q 1459 -91 1007 375 
Q 556 841 556 1753 
L 556 4666 
z
" transform="scale(0.015625)"/>
     </defs>
     <use xlink:href="#DejaVuSans-4c"/>
     <use xlink:href="#DejaVuSans-61" x="55.712891"/>
     <use xlink:href="#DejaVuSans-73" x="116.992188"/>
     <use xlink:href="#DejaVuSans-74" x="169.091797"/>
     <use xlink:href="#DejaVuSans-20" x="208.300781"/>
     <use xlink:href="#DejaVuSans-75" x="240.087891"/>
     <use xlink:href="#DejaVuSans-70" x="303.466797"/>
     <use xlink:href="#DejaVuSans-64" x="366.943359"/>
     <use xlink:href="#DejaVuSans-61" x="430.419922"/>
     <use xlink:href="#DejaVuSans-74" x="491.699219"/>
     <use xlink:href="#DejaVuSans-65" x="530.908203"/>
     <use xlink:href="#DejaVuSans-20" x="592.431641"/>
     <use xlink:href="#DejaVuSans-32" x="624.21875"/>
     <use xlink:href="#DejaVuSans-30" x="687.841797"/>
     <use xlink:href="#DejaVuSans-32" x="751.464844"/>
     <use xlink:href="#DejaVuSans-34" x="815.087891"/>
     <use xlink:href="#DejaVuSans-2d" x="878.710938"/>
     <use xlink:href="#DejaVuSans-30" x="914.794922"/>
     <use xlink:href="#DejaVuSans-32" x="978.417969"/>
     <use xlink:href="#DejaVuSans-2d" x="1042.041016"/>
     <use xlink:href="#DejaVuSans-32" x="1078.125"/>
     <use xlink:href="#DejaVuSans-38" x="1141.748047"/>
     <use xlink:href="#DejaVuSans-20" x="1205.371094"/>
     <use xlink:href="#DejaVuSans-30" x="1237.158203"/>
     <use xlink:href="#DejaVuSans-39" x="1300.78125"/>
     <use xlink:href="#DejaVuSans-3a" x="1364.404297"/>
     <use xlink:href="#DejaVuSans-33" x="1398.095703"/>
     <use xlink:href="#DejaVuSans-36" x="1461.71875"/>
     <use xlink:href="#DejaVuSans-3a" x="1525.341797"/>
     <use xlink:href="#DejaVuSans-34" x="1559.033203"/>
     <use xlink:href="#DejaVuSans-32" x="1622.65625"/>
     <use xlink:href="#DejaVuSans-20" x="1686.279297"/>
     <use xlink:href="#DejaVuSans-28" x="1718.066406"/>
     <use xlink:href="#DejaVuSans-55" x="1757.080078"/>
     <use xlink:href="#DejaVuSans-54" x="1830.273438"/>
     <use xlink:href="#DejaVuSans-43" x="1885.482422"/>
     <use xlink:href="#DejaVuSans-29" x="1955.306641"/>
     <use xlink:href="#DejaVuSans-2e" x="1994.320312"/>
    </g>
    <!-- For questions, contact @GermanCoyote. -->
    <g transform="translate(5.4 469.770937) scale(0.066667 -0.066667)">
     <defs>
      <path id="DejaVuSans-71" d="M 947 1747 
Q 947 1113 1208 752 
Q 1469 391 1925 391 
Q 2381 391 2643 752 
Q 2906 1113 2906 1747 
Q 2906 2381 2643 2742 
Q 2381 3103 1925 3103 
Q 1469 3103 1208 2742 
Q 947 2381 947 1747 
z
M 2906 525 
Q 2725 213 2448 61 
Q 2172 -91 1784 -91 
Q 1150 -91 751 415 
Q 353 922 353 1747 
Q 353 2572 751 3078 
Q 1150 3584 1784 3584 
Q 2172 3584 2448 3432 
Q 2725 3281 2906 2969 
L 2906 3500 
L 3481 3500 
L 3481 -1331 
L 2906 -1331 
L 2906 525 
z
" transform="scale(0.015625)"/>
      <path id="DejaVuSans-2c" d="M 750 794 
L 1409 794 
L 1409 256 
L 897 -744 
L 494 -744 
L 750 256 
L 750 794 
z
" transform="scale(0.015625)"/>
      <path id="DejaVuSans-63" d="M 3122 3366 
L 3122 2828 
Q 2878 2963 2633 3030 
Q 2388 3097 2138 3097 
Q 1578 3097 1268 2742 
Q 959 2388 959 1747 
Q 959 1106 1268 751 
Q 1578 397 2138 397 
Q 2388 397 2633 464 
Q 2878 531 3122 666 
L 3122 134 
Q 2881 22 2623 -34 
Q 2366 -91 2075 -91 
Q 1284 -91 818 406 
Q 353 903 353 1747 
Q 353 2603 823 3093 
Q 1294 3584 2113 3584 
Q 2378 3584 2631 3529 
Q 2884 3475 3122 3366 
z
" transform="scale(0.015625)"/>
      <path id="DejaVuSans-40" d="M 2381 1678 
Q 2381 1231 2603 976 
Q 2825 722 3213 722 
Q 3597 722 3817 978 
Q 4038 1234 4038 1678 
Q 4038 2116 3813 2373 
Q 3588 2631 3206 2631 
Q 2828 2631 2604 2375 
Q 2381 2119 2381 1678 
z
M 4084 744 
Q 3897 503 3655 389 
Q 3413 275 3091 275 
Q 2553 275 2217 664 
Q 1881 1053 1881 1678 
Q 1881 2303 2218 2693 
Q 2556 3084 3091 3084 
Q 3413 3084 3656 2967 
Q 3900 2850 4084 2613 
L 4084 3022 
L 4531 3022 
L 4531 722 
Q 4988 791 5245 1139 
Q 5503 1488 5503 2041 
Q 5503 2375 5404 2669 
Q 5306 2963 5106 3213 
Q 4781 3622 4314 3839 
Q 3847 4056 3297 4056 
Q 2913 4056 2559 3954 
Q 2206 3853 1906 3653 
Q 1416 3334 1139 2817 
Q 863 2300 863 1697 
Q 863 1200 1042 765 
Q 1222 331 1563 0 
Q 1891 -325 2322 -495 
Q 2753 -666 3244 -666 
Q 3647 -666 4036 -530 
Q 4425 -394 4750 -141 
L 5031 -488 
Q 4641 -791 4180 -952 
Q 3719 -1113 3244 -1113 
Q 2666 -1113 2153 -908 
Q 1641 -703 1241 -313 
Q 841 78 631 592 
Q 422 1106 422 1697 
Q 422 2266 634 2781 
Q 847 3297 1241 3688 
Q 1644 4084 2172 4295 
Q 2700 4506 3291 4506 
Q 3953 4506 4520 4234 
Q 5088 3963 5472 3463 
Q 5706 3156 5829 2797 
Q 5953 2438 5953 2053 
Q 5953 1231 5456 756 
Q 4959 281 4084 263 
L 4084 744 
z
" transform="scale(0.015625)"/>
      <path id="DejaVuSans-47" d="M 3809 666 
L 3809 1919 
L 2778 1919 
L 2778 2438 
L 4434 2438 
L 4434 434 
Q 4069 175 3628 42 
Q 3188 -91 2688 -91 
Q 1594 -91 976 548 
Q 359 1188 359 2328 
Q 359 3472 976 4111 
Q 1594 4750 2688 4750 
Q 3144 4750 3555 4637 
Q 3966 4525 4313 4306 
L 4313 3634 
Q 3963 3931 3569 4081 
Q 3175 4231 2741 4231 
Q 1884 4231 1454 3753 
Q 1025 3275 1025 2328 
Q 1025 1384 1454 906 
Q 1884 428 2741 428 
Q 3075 428 3337 486 
Q 3600 544 3809 666 
z
" transform="scale(0.015625)"/>
      <path id="DejaVuSans-79" d="M 2059 -325 
Q 1816 -950 1584 -1140 
Q 1353 -1331 966 -1331 
L 506 -1331 
L 506 -850 
L 844 -850 
Q 1081 -850 1212 -737 
Q 1344 -625 1503 -206 
L 1606 56 
L 191 3500 
L 800 3500 
L 1894 763 
L 2988 3500 
L 3597 3500 
L 2059 -325 
z
" transform="scale(0.015625)"/>
     </defs>
     <use xlink:href="#DejaVuSans-46"/>
     <use xlink:href="#DejaVuSans-6f" x="53.894531"/>
     <use xlink:href="#DejaVuSans-72" x="115.076172"/>
     <use xlink:href="#DejaVuSans-20" x="156.189453"/>
     <use xlink:href="#DejaVuSans-71" x="187.976562"/>
     <use xlink:href="#DejaVuSans-75" x="251.453125"/>
     <use xlink:href="#DejaVuSans-65" x="314.832031"/>
     <use xlink:href="#DejaVuSans-73" x="376.355469"/>
     <use xlink:href="#DejaVuSans-74" x="428.455078"/>
     <use xlink:href="#DejaVuSans-69" x="467.664062"/>
     <use xlink:href="#DejaVuSans-6f" x="495.447266"/>
     <use xlink:href="#DejaVuSans-6e" x="556.628906"/>
     <use xlink:href="#DejaVuSans-73" x="620.007812"/>
     <use xlink:href="#DejaVuSans-2c" x="672.107422"/>
     <use xlink:href="#DejaVuSans-20" x="703.894531"/>
     <use xlink:href="#DejaVuSans-63" x="735.681641"/>
     <use xlink:href="#DejaVuSans-6f" x="790.662109"/>
     <use xlink:href="#DejaVuSans-6e" x="851.84375"/>
     <use xlink:href="#DejaVuSans-74" x="915.222656"/>
     <use xlink:href="#DejaVuSans-61" x="954.431641"/>
     <use xlink:href="#DejaVuSans-63" x="1015.710938"/>
     <use xlink:href="#DejaVuSans-74" x="1070.691406"/>
     <use xlink:href="#DejaVuSans-20" x="1109.900391"/>
     <use xlink:href="#DejaVuSans-40" x="1141.6875"/>
     <use xlink:href="#DejaVuSans-47" x="1241.6875"/>
     <use xlink:href="#DejaVuSans-65" x="1319.177734"/>
     <use xlink:href="#DejaVuSans-72" x="1380.701172"/>
     <use xlink:href="#DejaVuSans-6d" x="1420.064453"/>
     <use xlink:href="#DejaVuSans-61" x="1517.476562"/>
     <use xlink:href="#DejaVuSans-6e" x="1578.755859"/>
     <use xlink:href="#DejaVuSans-43" x="1642.134766"/>
     <use xlink:href="#DejaVuSans-6f" x="1711.958984"/>
     <use xlink:href="#DejaVuSans-79" x="1773.140625"/>
     <use xlink:href="#DejaVuSans-6f" x="1832.320312"/>
     <use xlink:href="#DejaVuSans-74" x="1893.501953"/>
     <use xlink:href="#DejaVuSans-65" x="1932.710938"/>
     <use xlink:href="#DejaVuSans-2e" x="1994.234375"/>
    </g>
   </g>
   <g id="text_21">
    <!-- 2897 total regs (1977 normal, 607 sponsors, 313 supersponsors). -->
    <g transform="translate(595.247727 400.938037) scale(0.066667 -0.066667)">
     <defs>
      <path id="DejaVuSans-37" d="M 525 4666 
L 3525 4666 
L 3525 4397 
L 1831 0 
L 1172 0 
L 2766 4134 
L 525 4134 
L 525 4666 
z
" transform="scale(0.015625)"/>
     </defs>
     <use xlink:href="#DejaVuSans-32"/>
     <use xlink:href="#DejaVuSans-38" x="63.623047"/>
     <use xlink:href="#DejaVuSans-39" x="127.246094"/>
     <use xlink:href="#DejaVuSans-37" x="190.869141"/>
     <use xlink:href="#DejaVuSans-20" x="254.492188"/>
     <use xlink:href="#DejaVuSans-74" x="286.279297"/>
     <use xlink:href="#DejaVuSans-6f" x="325.488281"/>
     <use xlink:href="#DejaVuSans-74" x="386.669922"/>
     <use xlink:href="#DejaVuSans-61" x="425.878906"/>
     <use xlink:href="#DejaVuSans-6c" x="487.158203"/>
     <use xlink:href="#DejaVuSans-20" x="514.941406"/>
     <use xlink:href="#DejaVuSans-72" x="546.728516"/>
     <use xlink:href="#DejaVuSans-65" x="585.591797"/>
     <use xlink:href="#DejaVuSans-67" x="647.115234"/>
     <use xlink:href="#DejaVuSans-73" x="710.591797"/>
     <use xlink:href="#DejaVuSans-20" x="762.691406"/>
     <use xlink:href="#DejaVuSans-28" x="794.478516"/>
     <use xlink:href="#DejaVuSans-31" x="833.492188"/>
     <use xlink:href="#DejaVuSans-39" x="897.115234"/>
     <use xlink:href="#DejaVuSans-37" x="960.738281"/>
     <use xlink:href="#DejaVuSans-37" x="1024.361328"/>
     <use xlink:href="#DejaVuSans-20" x="1087.984375"/>
     <use xlink:href="#DejaVuSans-6e" x="1119.771484"/>
     <use xlink:href="#DejaVuSans-6f" x="1183.150391"/>
     <use xlink:href="#DejaVuSans-72" x="1244.332031"/>
     <use xlink:href="#DejaVuSans-6d" x="1283.695312"/>
     <use xlink:href="#DejaVuSans-61" x="1381.107422"/>
     <use xlink:href="#DejaVuSans-6c" x="1442.386719"/>
     <use xlink:href="#DejaVuSans-2c" x="1470.169922"/>
     <use xlink:href="#DejaVuSans-20" x="1501.957031"/>
     <use xlink:href="#DejaVuSans-36" x="1533.744141"/>
     <use xlink:href="#DejaVuSans-30" x="1597.367188"/>
     <use xlink:href="#DejaVuSans-37" x="1660.990234"/>
     <use xlink:href="#DejaVuSans-20" x="1724.613281"/>
     <use xlink:href="#DejaVuSans-73" x="1756.400391"/>
     <use xlink:href="#DejaVuSans-70" x="1808.5"/>
     <use xlink:href="#DejaVuSans-6f" x="1871.976562"/>
     <use xlink:href="#DejaVuSans-6e" x="1933.158203"/>
     <use xlink:href="#DejaVuSans-73" x="1996.537109"/>
     <use xlink:href="#DejaVuSans-6f" x="2048.636719"/>
     <use xlink:href="#DejaVuSans-72" x="2109.818359"/>
     <use xlink:href="#DejaVuSans-73" x="2150.931641"/>
     <use xlink:href="#DejaVuSans-2c" x="2203.03125"/>
     <use xlink:href="#DejaVuSans-20" x="2234.818359"/>
     <use xlink:href="#DejaVuSans-33" x="2266.605469"/>
     <use xlink:href="#DejaVuSans-31" x="2330.228516"/>
     <use xlink:href="#DejaVuSans-33" x="2393.851562"/>
     <use xlink:href="#DejaVuSans-20" x="2457.474609"/>
     <use xlink:href="#DejaVuSans-73" x="2489.261719"/>
     <use xlink:href="#DejaVuSans-75" x="2541.361328"/>
     <use xlink:href="#DejaVuSans-70" x="2604.740234"/>
     <use xlink:href="#DejaVuSans-65" x="2668.216797"/>
     <use xlink:href="#DejaVuSans-72" x="2729.740234"/>
     <use xlink:href="#DejaVuSans-73" x="2770.853516"/>
     <use xlink:href="#DejaVuSans-70" x="2822.953125"/>
     <use xlink:href="#DejaVuSans-6f" x="2886.429688"/>
     <use xlink:href="#DejaVuSans-6e" x="2947.611328"/>
     <use xlink:href="#DejaVuSans-73" x="3010.990234"/>
     <use xlink:href="#DejaVuSans-6f" x="3063.089844"/>
     <use xlink:href="#DejaVuSans-72" x="3124.271484"/>
     <use xlink:href="#DejaVuSans-73" x="3165.384766"/>
     <use xlink:href="#DejaVuSans-29" x="3217.484375"/>
     <use xlink:href="#DejaVuSans-2e" x="3256.498047"/>
    </g>
   </g>
   <g id="legend_2">
    <g id="patch_15">
     <path d="M 644.564915 39.696094 
L 674.564915 39.696094 
L 674.564915 29.196094 
L 644.564915 29.196094 
z
" style="fill: #a2c5c4"/>
    </g>
    <g id="text_22">
     <!-- Normal -->
     <g transform="translate(686.564915 39.696094) scale(0.15 -0.15)">
      <defs>
       <path id="DejaVuSans-4e" d="M 628 4666 
L 1478 4666 
L 3547 763 
L 3547 4666 
L 4159 4666 
L 4159 0 
L 3309 0 
L 1241 3903 
L 1241 0 
L 628 0 
L 628 4666 
z
" transform="scale(0.015625)"/>
      </defs>
      <use xlink:href="#DejaVuSans-4e"/>
      <use xlink:href="#DejaVuSans-6f" x="74.804688"/>
      <use xlink:href="#DejaVuSans-72" x="135.986328"/>
      <use xlink:href="#DejaVuSans-6d" x="175.349609"/>
      <use xlink:href="#DejaVuSans-61" x="272.761719"/>
      <use xlink:href="#DejaVuSans-6c" x="334.041016"/>
     </g>
    </g>
    <g id="patch_16">
     <path d="M 644.564915 61.713281 
L 674.564915 61.713281 
L 674.564915 51.213281 
L 644.564915 51.213281 
z
" style="fill: #69a3a2"/>
    </g>
    <g id="text_23">
     <!-- Sponsor -->
     <g transform="translate(686.564915 61.713281) scale(0.15 -0.15)">
      <defs>
       <path id="DejaVuSans-53" d="M 3425 4513 
L 3425 3897 
Q 3066 4069 2747 4153 
Q 2428 4238 2131 4238 
Q 1616 4238 1336 4038 
Q 1056 3838 1056 3469 
Q 1056 3159 1242 3001 
Q 1428 2844 1947 2747 
L 2328 2669 
Q 3034 2534 3370 2195 
Q 3706 1856 3706 1288 
Q 3706 609 3251 259 
Q 2797 -91 1919 -91 
Q 1588 -91 1214 -16 
Q 841 59 441 206 
L 441 856 
Q 825 641 1194 531 
Q 1563 422 1919 422 
Q 2459 422 2753 634 
Q 3047 847 3047 1241 
Q 3047 1584 2836 1778 
Q 2625 1972 2144 2069 
L 1759 2144 
Q 1053 2284 737 2584 
Q 422 2884 422 3419 
Q 422 4038 858 4394 
Q 1294 4750 2059 4750 
Q 2388 4750 2728 4690 
Q 3069 4631 3425 4513 
z
" transform="scale(0.015625)"/>
      </defs>
      <use xlink:href="#DejaVuSans-53"/>
      <use xlink:href="#DejaVuSans-70" x="63.476562"/>
      <use xlink:href="#DejaVuSans-6f" x="126.953125"/>
      <use xlink:href="#DejaVuSans-6e" x="188.134766"/>
      <use xlink:href="#DejaVuSans-73" x="251.513672"/>
      <use xlink:href="#DejaVuSans-6f" x="303.613281"/>
      <use xlink:href="#DejaVuSans-72" x="364.794922"/>
     </g>
    </g>
    <g id="patch_17">
     <path d="M 777.453196 39.696094 
L 807.453196 39.696094 
L 807.453196 29.196094 
L 777.453196 29.196094 
z
" style="fill: #005953"/>
    </g>
    <g id="text_24">
     <!-- Supersponsor -->
     <g transform="translate(819.453196 39.696094) scale(0.15 -0.15)">
      <use xlink:href="#DejaVuSans-53"/>
      <use xlink:href="#DejaVuSans-75" x="63.476562"/>
      <use xlink:href="#DejaVuSans-70" x="126.855469"/>
      <use xlink:href="#DejaVuSans-65" x="190.332031"/>
      <use xlink:href="#DejaVuSans-72" x="251.855469"/>
      <use xlink:href="#DejaVuSans-73" x="292.96875"/>
      <use xlink:href="#DejaVuSans-70" x="345.068359"/>
      <use xlink:href="#DejaVuSans-6f" x="408.544922"/>
      <use xlink:href="#DejaVuSans-6e" x="469.726562"/>
      <use xlink:href="#DejaVuSans-73" x="533.105469"/>
      <use xlink:href="#DejaVuSans-6f" x="585.205078"/>
      <use xlink:href="#DejaVuSans-72" x="646.386719"/>
     </g>
    </g>
   </g>
  </g>
 </g>
 <defs>
  <clipPath id="p9b8ee03ca8">
   <rect x="136.8" y="14.798437" width="380.454545" height="388.08"/>
  </clipPath>
  <clipPath id="p2be89a0a44">
   <rect x="593.345455" y="14.798437" width="380.454545" height="388.08"/>
  </clipPath>
 </defs>
</svg>
