<?xml version="1.0" encoding="utf-8" standalone="no"?>
<!DOCTYPE svg PUBLIC "-//W3C//DTD SVG 1.1//EN"
  "http://www.w3.org/Graphics/SVG/1.1/DTD/svg11.dtd">
<svg xmlns:xlink="http://www.w3.org/1999/xlink" width="1006.45pt" height="472.290937pt" viewBox="0 0 1006.45 472.290937" xmlns="http://www.w3.org/2000/svg" version="1.1">
 <metadata>
  <rdf:RDF xmlns:dc="http://purl.org/dc/elements/1.1/" xmlns:cc="http://creativecommons.org/ns#" xmlns:rdf="http://www.w3.org/1999/02/22-rdf-syntax-ns#">
   <cc:Work>
    <dc:type rdf:resource="http://purl.org/dc/dcmitype/StillImage"/>
    <dc:date>2024-02-08T08:47:23.837061</dc:date>
    <dc:format>image/svg+xml</dc:format>
    <dc:creator>
     <cc:Agent>
      <dc:title>Matplotlib v3.8.2, https://matplotlib.org/</dc:title>
     </cc:Agent>
    </dc:creator>
   </cc:Work>
  </rdf:RDF>
 </metadata>
 <defs>
  <style type="text/css">*{stroke-linejoin: round; stroke-linecap: butt}</style>
 </defs>
 <g id="figure_1">
  <g id="patch_1">
   <path d="M 0 472.290937 
L 1006.45 472.290937 
L 1006.45 0 
L 0 0 
z
" style="fill: #ffffff"/>
  </g>
  <g id="axes_1">
   <g id="patch_2">
    <path d="M 136.8 402.878437 
L 517.254545 402.878437 
L 517.254545 14.798437 
L 136.8 14.798437 
z
" style="fill: #ffffff"/>
   </g>
   <g id="matplotlib.axis_1">
    <g id="xtick_1">
     <g id="line2d_1">
      <defs>
       <path id="m214bb57732" d="M 0 0 
L 0 3.5 
" style="stroke: #000000; stroke-width: 0.8"/>
      </defs>
      <g>
       <use xlink:href="#m214bb57732" x="136.8" y="402.878437" style="stroke: #000000; stroke-width: 0.8"/>
      </g>
     </g>
     <g id="text_1">
      <!-- 25 Jan -->
      <g transform="translate(105.48125 431.575312) scale(0.2 -0.2)">
       <defs>
        <path id="DejaVuSans-32" d="M 1228 531 
L 3431 531 
L 3431 0 
L 469 0 
L 469 531 
Q 828 903 1448 1529 
Q 2069 2156 2228 2338 
Q 2531 2678 2651 2914 
Q 2772 3150 2772 3378 
Q 2772 3750 2511 3984 
Q 2250 4219 1831 4219 
Q 1534 4219 1204 4116 
Q 875 4013 500 3803 
L 500 4441 
Q 881 4594 1212 4672 
Q 1544 4750 1819 4750 
Q 2544 4750 2975 4387 
Q 3406 4025 3406 3419 
Q 3406 3131 3298 2873 
Q 3191 2616 2906 2266 
Q 2828 2175 2409 1742 
Q 1991 1309 1228 531 
z
" transform="scale(0.015625)"/>
        <path id="DejaVuSans-35" d="M 691 4666 
L 3169 4666 
L 3169 4134 
L 1269 4134 
L 1269 2991 
Q 1406 3038 1543 3061 
Q 1681 3084 1819 3084 
Q 2600 3084 3056 2656 
Q 3513 2228 3513 1497 
Q 3513 744 3044 326 
Q 2575 -91 1722 -91 
Q 1428 -91 1123 -41 
Q 819 9 494 109 
L 494 744 
Q 775 591 1075 516 
Q 1375 441 1709 441 
Q 2250 441 2565 725 
Q 2881 1009 2881 1497 
Q 2881 1984 2565 2268 
Q 2250 2553 1709 2553 
Q 1456 2553 1204 2497 
Q 953 2441 691 2322 
L 691 4666 
z
" transform="scale(0.015625)"/>
        <path id="DejaVuSans-20" transform="scale(0.015625)"/>
        <path id="DejaVuSans-4a" d="M 628 4666 
L 1259 4666 
L 1259 325 
Q 1259 -519 939 -900 
Q 619 -1281 -91 -1281 
L -331 -1281 
L -331 -750 
L -134 -750 
Q 284 -750 456 -515 
Q 628 -281 628 325 
L 628 4666 
z
" transform="scale(0.015625)"/>
        <path id="DejaVuSans-61" d="M 2194 1759 
Q 1497 1759 1228 1600 
Q 959 1441 959 1056 
Q 959 750 1161 570 
Q 1363 391 1709 391 
Q 2188 391 2477 730 
Q 2766 1069 2766 1631 
L 2766 1759 
L 2194 1759 
z
M 3341 1997 
L 3341 0 
L 2766 0 
L 2766 531 
Q 2569 213 2275 61 
Q 1981 -91 1556 -91 
Q 1019 -91 701 211 
Q 384 513 384 1019 
Q 384 1609 779 1909 
Q 1175 2209 1959 2209 
L 2766 2209 
L 2766 2266 
Q 2766 2663 2505 2880 
Q 2244 3097 1772 3097 
Q 1472 3097 1187 3025 
Q 903 2953 641 2809 
L 641 3341 
Q 956 3463 1253 3523 
Q 1550 3584 1831 3584 
Q 2591 3584 2966 3190 
Q 3341 2797 3341 1997 
z
" transform="scale(0.015625)"/>
        <path id="DejaVuSans-6e" d="M 3513 2113 
L 3513 0 
L 2938 0 
L 2938 2094 
Q 2938 2591 2744 2837 
Q 2550 3084 2163 3084 
Q 1697 3084 1428 2787 
Q 1159 2491 1159 1978 
L 1159 0 
L 581 0 
L 581 3500 
L 1159 3500 
L 1159 2956 
Q 1366 3272 1645 3428 
Q 1925 3584 2291 3584 
Q 2894 3584 3203 3211 
Q 3513 2838 3513 2113 
z
" transform="scale(0.015625)"/>
       </defs>
       <use xlink:href="#DejaVuSans-32"/>
       <use xlink:href="#DejaVuSans-35" x="63.623047"/>
       <use xlink:href="#DejaVuSans-20" x="127.246094"/>
       <use xlink:href="#DejaVuSans-4a" x="159.033203"/>
       <use xlink:href="#DejaVuSans-61" x="188.525391"/>
       <use xlink:href="#DejaVuSans-6e" x="249.804688"/>
      </g>
     </g>
    </g>
    <g id="xtick_2">
     <g id="line2d_2">
      <g>
       <use xlink:href="#m214bb57732" x="263.618182" y="402.878437" style="stroke: #000000; stroke-width: 0.8"/>
      </g>
     </g>
     <g id="text_2">
      <!-- 1 Feb -->
      <g transform="translate(236.374432 431.575312) scale(0.2 -0.2)">
       <defs>
        <path id="DejaVuSans-31" d="M 794 531 
L 1825 531 
L 1825 4091 
L 703 3866 
L 703 4441 
L 1819 4666 
L 2450 4666 
L 2450 531 
L 3481 531 
L 3481 0 
L 794 0 
L 794 531 
z
" transform="scale(0.015625)"/>
        <path id="DejaVuSans-46" d="M 628 4666 
L 3309 4666 
L 3309 4134 
L 1259 4134 
L 1259 2759 
L 3109 2759 
L 3109 2228 
L 1259 2228 
L 1259 0 
L 628 0 
L 628 4666 
z
" transform="scale(0.015625)"/>
        <path id="DejaVuSans-65" d="M 3597 1894 
L 3597 1613 
L 953 1613 
Q 991 1019 1311 708 
Q 1631 397 2203 397 
Q 2534 397 2845 478 
Q 3156 559 3463 722 
L 3463 178 
Q 3153 47 2828 -22 
Q 2503 -91 2169 -91 
Q 1331 -91 842 396 
Q 353 884 353 1716 
Q 353 2575 817 3079 
Q 1281 3584 2069 3584 
Q 2775 3584 3186 3129 
Q 3597 2675 3597 1894 
z
M 3022 2063 
Q 3016 2534 2758 2815 
Q 2500 3097 2075 3097 
Q 1594 3097 1305 2825 
Q 1016 2553 972 2059 
L 3022 2063 
z
" transform="scale(0.015625)"/>
        <path id="DejaVuSans-62" d="M 3116 1747 
Q 3116 2381 2855 2742 
Q 2594 3103 2138 3103 
Q 1681 3103 1420 2742 
Q 1159 2381 1159 1747 
Q 1159 1113 1420 752 
Q 1681 391 2138 391 
Q 2594 391 2855 752 
Q 3116 1113 3116 1747 
z
M 1159 2969 
Q 1341 3281 1617 3432 
Q 1894 3584 2278 3584 
Q 2916 3584 3314 3078 
Q 3713 2572 3713 1747 
Q 3713 922 3314 415 
Q 2916 -91 2278 -91 
Q 1894 -91 1617 61 
Q 1341 213 1159 525 
L 1159 0 
L 581 0 
L 581 4863 
L 1159 4863 
L 1159 2969 
z
" transform="scale(0.015625)"/>
       </defs>
       <use xlink:href="#DejaVuSans-31"/>
       <use xlink:href="#DejaVuSans-20" x="63.623047"/>
       <use xlink:href="#DejaVuSans-46" x="95.410156"/>
       <use xlink:href="#DejaVuSans-65" x="147.429688"/>
       <use xlink:href="#DejaVuSans-62" x="208.953125"/>
      </g>
     </g>
    </g>
    <g id="xtick_3">
     <g id="line2d_3">
      <g>
       <use xlink:href="#m214bb57732" x="517.254545" y="402.878437" style="stroke: #000000; stroke-width: 0.8"/>
      </g>
     </g>
     <g id="text_3">
      <!-- 15 Feb -->
      <g transform="translate(483.648295 431.575312) scale(0.2 -0.2)">
       <use xlink:href="#DejaVuSans-31"/>
       <use xlink:href="#DejaVuSans-35" x="63.623047"/>
       <use xlink:href="#DejaVuSans-20" x="127.246094"/>
       <use xlink:href="#DejaVuSans-46" x="159.033203"/>
       <use xlink:href="#DejaVuSans-65" x="211.052734"/>
       <use xlink:href="#DejaVuSans-62" x="272.576172"/>
      </g>
     </g>
    </g>
    <g id="text_4">
     <!-- Time -->
     <g transform="translate(302.560085 460.931562) scale(0.2 -0.2)">
      <defs>
       <path id="DejaVuSans-54" d="M -19 4666 
L 3928 4666 
L 3928 4134 
L 2272 4134 
L 2272 0 
L 1638 0 
L 1638 4134 
L -19 4134 
L -19 4666 
z
" transform="scale(0.015625)"/>
       <path id="DejaVuSans-69" d="M 603 3500 
L 1178 3500 
L 1178 0 
L 603 0 
L 603 3500 
z
M 603 4863 
L 1178 4863 
L 1178 4134 
L 603 4134 
L 603 4863 
z
" transform="scale(0.015625)"/>
       <path id="DejaVuSans-6d" d="M 3328 2828 
Q 3544 3216 3844 3400 
Q 4144 3584 4550 3584 
Q 5097 3584 5394 3201 
Q 5691 2819 5691 2113 
L 5691 0 
L 5113 0 
L 5113 2094 
Q 5113 2597 4934 2840 
Q 4756 3084 4391 3084 
Q 3944 3084 3684 2787 
Q 3425 2491 3425 1978 
L 3425 0 
L 2847 0 
L 2847 2094 
Q 2847 2600 2669 2842 
Q 2491 3084 2119 3084 
Q 1678 3084 1418 2786 
Q 1159 2488 1159 1978 
L 1159 0 
L 581 0 
L 581 3500 
L 1159 3500 
L 1159 2956 
Q 1356 3278 1631 3431 
Q 1906 3584 2284 3584 
Q 2666 3584 2933 3390 
Q 3200 3197 3328 2828 
z
" transform="scale(0.015625)"/>
      </defs>
      <use xlink:href="#DejaVuSans-54"/>
      <use xlink:href="#DejaVuSans-69" x="57.958984"/>
      <use xlink:href="#DejaVuSans-6d" x="85.742188"/>
      <use xlink:href="#DejaVuSans-65" x="183.154297"/>
     </g>
    </g>
   </g>
   <g id="matplotlib.axis_2">
    <g id="ytick_1">
     <g id="line2d_4">
      <defs>
       <path id="mc770613879" d="M 0 0 
L -3.5 0 
" style="stroke: #000000; stroke-width: 0.8"/>
      </defs>
      <g>
       <use xlink:href="#mc770613879" x="136.8" y="402.878437" style="stroke: #000000; stroke-width: 0.8"/>
      </g>
     </g>
     <g id="text_5">
      <!-- 0 -->
      <g transform="translate(110.575 410.476875) scale(0.2 -0.2)">
       <defs>
        <path id="DejaVuSans-30" d="M 2034 4250 
Q 1547 4250 1301 3770 
Q 1056 3291 1056 2328 
Q 1056 1369 1301 889 
Q 1547 409 2034 409 
Q 2525 409 2770 889 
Q 3016 1369 3016 2328 
Q 3016 3291 2770 3770 
Q 2525 4250 2034 4250 
z
M 2034 4750 
Q 2819 4750 3233 4129 
Q 3647 3509 3647 2328 
Q 3647 1150 3233 529 
Q 2819 -91 2034 -91 
Q 1250 -91 836 529 
Q 422 1150 422 2328 
Q 422 3509 836 4129 
Q 1250 4750 2034 4750 
z
" transform="scale(0.015625)"/>
       </defs>
       <use xlink:href="#DejaVuSans-30"/>
      </g>
     </g>
    </g>
    <g id="ytick_2">
     <g id="line2d_5">
      <g>
       <use xlink:href="#mc770613879" x="136.8" y="305.858437" style="stroke: #000000; stroke-width: 0.8"/>
      </g>
     </g>
     <g id="text_6">
      <!-- 1000 -->
      <g transform="translate(72.4 313.456875) scale(0.2 -0.2)">
       <use xlink:href="#DejaVuSans-31"/>
       <use xlink:href="#DejaVuSans-30" x="63.623047"/>
       <use xlink:href="#DejaVuSans-30" x="127.246094"/>
       <use xlink:href="#DejaVuSans-30" x="190.869141"/>
      </g>
     </g>
    </g>
    <g id="ytick_3">
     <g id="line2d_6">
      <g>
       <use xlink:href="#mc770613879" x="136.8" y="208.838437" style="stroke: #000000; stroke-width: 0.8"/>
      </g>
     </g>
     <g id="text_7">
      <!-- 2000 -->
      <g transform="translate(72.4 216.436875) scale(0.2 -0.2)">
       <use xlink:href="#DejaVuSans-32"/>
       <use xlink:href="#DejaVuSans-30" x="63.623047"/>
       <use xlink:href="#DejaVuSans-30" x="127.246094"/>
       <use xlink:href="#DejaVuSans-30" x="190.869141"/>
      </g>
     </g>
    </g>
    <g id="ytick_4">
     <g id="line2d_7">
      <g>
       <use xlink:href="#mc770613879" x="136.8" y="111.818437" style="stroke: #000000; stroke-width: 0.8"/>
      </g>
     </g>
     <g id="text_8">
      <!-- 3000 -->
      <g transform="translate(72.4 119.416875) scale(0.2 -0.2)">
       <defs>
        <path id="DejaVuSans-33" d="M 2597 2516 
Q 3050 2419 3304 2112 
Q 3559 1806 3559 1356 
Q 3559 666 3084 287 
Q 2609 -91 1734 -91 
Q 1441 -91 1130 -33 
Q 819 25 488 141 
L 488 750 
Q 750 597 1062 519 
Q 1375 441 1716 441 
Q 2309 441 2620 675 
Q 2931 909 2931 1356 
Q 2931 1769 2642 2001 
Q 2353 2234 1838 2234 
L 1294 2234 
L 1294 2753 
L 1863 2753 
Q 2328 2753 2575 2939 
Q 2822 3125 2822 3475 
Q 2822 3834 2567 4026 
Q 2313 4219 1838 4219 
Q 1578 4219 1281 4162 
Q 984 4106 628 3988 
L 628 4550 
Q 988 4650 1302 4700 
Q 1616 4750 1894 4750 
Q 2613 4750 3031 4423 
Q 3450 4097 3450 3541 
Q 3450 3153 3228 2886 
Q 3006 2619 2597 2516 
z
" transform="scale(0.015625)"/>
       </defs>
       <use xlink:href="#DejaVuSans-33"/>
       <use xlink:href="#DejaVuSans-30" x="63.623047"/>
       <use xlink:href="#DejaVuSans-30" x="127.246094"/>
       <use xlink:href="#DejaVuSans-30" x="190.869141"/>
      </g>
     </g>
    </g>
    <g id="ytick_5">
     <g id="line2d_8">
      <g>
       <use xlink:href="#mc770613879" x="136.8" y="14.798437" style="stroke: #000000; stroke-width: 0.8"/>
      </g>
     </g>
     <g id="text_9">
      <!-- 4000 -->
      <g transform="translate(72.4 22.396875) scale(0.2 -0.2)">
       <defs>
        <path id="DejaVuSans-34" d="M 2419 4116 
L 825 1625 
L 2419 1625 
L 2419 4116 
z
M 2253 4666 
L 3047 4666 
L 3047 1625 
L 3713 1625 
L 3713 1100 
L 3047 1100 
L 3047 0 
L 2419 0 
L 2419 1100 
L 313 1100 
L 313 1709 
L 2253 4666 
z
" transform="scale(0.015625)"/>
       </defs>
       <use xlink:href="#DejaVuSans-34"/>
       <use xlink:href="#DejaVuSans-30" x="63.623047"/>
       <use xlink:href="#DejaVuSans-30" x="127.246094"/>
       <use xlink:href="#DejaVuSans-30" x="190.869141"/>
      </g>
     </g>
    </g>
    <g id="text_10">
     <!-- Count -->
     <g transform="translate(58.240625 238.535312) rotate(-90) scale(0.2 -0.2)">
      <defs>
       <path id="DejaVuSans-43" d="M 4122 4306 
L 4122 3641 
Q 3803 3938 3442 4084 
Q 3081 4231 2675 4231 
Q 1875 4231 1450 3742 
Q 1025 3253 1025 2328 
Q 1025 1406 1450 917 
Q 1875 428 2675 428 
Q 3081 428 3442 575 
Q 3803 722 4122 1019 
L 4122 359 
Q 3791 134 3420 21 
Q 3050 -91 2638 -91 
Q 1578 -91 968 557 
Q 359 1206 359 2328 
Q 359 3453 968 4101 
Q 1578 4750 2638 4750 
Q 3056 4750 3426 4639 
Q 3797 4528 4122 4306 
z
" transform="scale(0.015625)"/>
       <path id="DejaVuSans-6f" d="M 1959 3097 
Q 1497 3097 1228 2736 
Q 959 2375 959 1747 
Q 959 1119 1226 758 
Q 1494 397 1959 397 
Q 2419 397 2687 759 
Q 2956 1122 2956 1747 
Q 2956 2369 2687 2733 
Q 2419 3097 1959 3097 
z
M 1959 3584 
Q 2709 3584 3137 3096 
Q 3566 2609 3566 1747 
Q 3566 888 3137 398 
Q 2709 -91 1959 -91 
Q 1206 -91 779 398 
Q 353 888 353 1747 
Q 353 2609 779 3096 
Q 1206 3584 1959 3584 
z
" transform="scale(0.015625)"/>
       <path id="DejaVuSans-75" d="M 544 1381 
L 544 3500 
L 1119 3500 
L 1119 1403 
Q 1119 906 1312 657 
Q 1506 409 1894 409 
Q 2359 409 2629 706 
Q 2900 1003 2900 1516 
L 2900 3500 
L 3475 3500 
L 3475 0 
L 2900 0 
L 2900 538 
Q 2691 219 2414 64 
Q 2138 -91 1772 -91 
Q 1169 -91 856 284 
Q 544 659 544 1381 
z
M 1991 3584 
L 1991 3584 
z
" transform="scale(0.015625)"/>
       <path id="DejaVuSans-74" d="M 1172 4494 
L 1172 3500 
L 2356 3500 
L 2356 3053 
L 1172 3053 
L 1172 1153 
Q 1172 725 1289 603 
Q 1406 481 1766 481 
L 2356 481 
L 2356 0 
L 1766 0 
Q 1100 0 847 248 
Q 594 497 594 1153 
L 594 3053 
L 172 3053 
L 172 3500 
L 594 3500 
L 594 4494 
L 1172 4494 
z
" transform="scale(0.015625)"/>
      </defs>
      <use xlink:href="#DejaVuSans-43"/>
      <use xlink:href="#DejaVuSans-6f" x="69.824219"/>
      <use xlink:href="#DejaVuSans-75" x="131.005859"/>
      <use xlink:href="#DejaVuSans-6e" x="194.384766"/>
      <use xlink:href="#DejaVuSans-74" x="257.763672"/>
     </g>
    </g>
   </g>
   <g id="line2d_9">
    <path d="M 223.597484 402.878437 
L 224.338358 385.123777 
L 224.885716 383.183377 
L 225.348147 382.698277 
L 225.348147 382.698277 
L 225.45451 382.407217 
L 225.829056 382.407217 
L 226.58535 381.728077 
L 227.3395 381.437017 
L 232.288331 381.339997 
L 232.436067 381.145957 
L 234.885621 381.048937 
L 235.453641 380.563837 
L 239.15308 380.466817 
L 239.289736 380.369797 
L 240.042173 380.369797 
L 241.312604 379.981717 
L 242.305486 379.884697 
L 243.062261 379.593637 
L 245.344283 379.011517 
L 248.86194 378.914497 
L 249.859705 378.623437 
L 252.56954 378.526417 
L 252.690372 378.429397 
L 253.410595 378.332377 
L 253.632984 378.235357 
L 254.00669 378.235357 
L 254.384617 377.944297 
L 256.39334 377.653237 
L 256.649714 377.459197 
L 258.914795 377.071117 
L 259.669171 376.974097 
L 260.4257 376.586017 
L 261.002691 376.488997 
L 261.181481 376.391977 
L 261.743903 375.809857 
L 261.934105 375.712837 
L 263.079879 375.615817 
L 263.124188 375.518797 
L 274.010355 375.421777 
L 274.767028 375.324757 
L 277.533733 375.227737 
L 277.78837 374.936677 
L 278.367885 286.939537 
L 278.55559 277.334557 
L 279.308837 259.676917 
L 279.308837 259.676917 
L 279.88546 253.273597 
L 280.064823 251.042137 
L 280.817472 246.191137 
L 281.573311 244.153717 
L 288.964066 235.809997 
L 289.12408 235.324897 
L 290.447555 233.675557 
L 290.632342 233.093437 
L 291.351124 231.735157 
L 292.146031 229.891777 
L 292.768985 229.309657 
L 292.917713 229.018597 
L 293.331388 228.630517 
L 293.67905 228.145417 
L 294.40603 227.369257 
L 294.923651 226.496077 
L 295.160484 226.302037 
L 295.918643 225.137797 
L 296.670426 222.809317 
L 297.802165 219.995737 
L 298.180817 219.316597 
L 298.670639 218.734477 
L 299.25098 218.637457 
L 299.688749 218.540437 
L 300.113533 218.249377 
L 302.57192 217.958317 
L 303.346006 217.861297 
L 303.492615 217.764277 
L 305.354184 217.667257 
L 305.733867 217.473217 
L 306.521909 217.376197 
L 307.238095 216.600037 
L 307.722667 216.114937 
L 308.350715 216.017917 
L 308.751852 215.726857 
L 309.434941 215.241757 
L 311.043181 213.204337 
L 311.42202 213.107317 
L 312.526415 211.749037 
L 313.149262 211.457977 
L 313.296467 211.069897 
L 313.763803 210.972877 
L 314.381144 210.487777 
L 314.789318 210.487777 
L 315.433865 209.808637 
L 315.577768 209.808637 
L 316.116971 209.517577 
L 317.468407 209.420557 
L 317.812326 209.323537 
L 318.996253 209.226517 
L 319.548417 208.935457 
L 324.338647 208.838437 
L 325.003038 208.450357 
L 326.114251 208.450357 
L 326.458983 207.965257 
L 326.870367 207.868237 
L 327.546102 207.771217 
L 328.072064 207.577177 
L 328.22141 207.383137 
L 328.376934 206.995057 
L 330.386641 206.509957 
L 330.644871 206.315917 
L 331.415388 205.054657 
L 332.72287 203.793397 
L 332.90824 203.793397 
L 333.657253 203.211277 
L 335.775985 202.144057 
L 335.922827 202.144057 
L 338.230534 201.852997 
L 339.702275 201.755977 
L 343.149688 201.173857 
L 343.320055 201.173857 
L 343.474584 200.979817 
L 344.026757 200.591737 
L 344.600857 200.494717 
L 344.986939 200.203657 
L 346.495402 200.106637 
L 347.059291 199.912597 
L 348.534785 199.233457 
L 348.905095 198.748357 
L 349.386951 198.651337 
L 349.532484 198.554317 
L 350.038802 197.972197 
L 350.645737 197.875177 
L 350.836795 197.681137 
L 351.466645 197.584117 
L 352.227851 196.807957 
L 352.53074 196.710937 
L 353.044665 196.128817 
L 353.893962 196.031797 
L 354.04654 195.837757 
L 359.079217 195.740737 
L 359.716414 195.352657 
L 362.345479 195.255637 
L 363.101709 195.158617 
L 363.84665 195.061597 
L 364.477172 194.867557 
L 365.0972 194.867557 
L 365.370569 194.382457 
L 365.971995 194.285437 
L 366.124466 194.382457 
L 368.394936 193.509277 
L 369.144968 193.024177 
L 370.648661 192.636097 
L 371.138911 192.345037 
L 371.817981 192.248017 
L 372.159343 192.150997 
L 377.189028 191.762917 
L 377.442747 191.568877 
L 378.199869 191.568877 
L 378.952088 191.374837 
L 379.71054 191.277817 
L 381.218868 191.180797 
L 383.348408 190.695697 
L 383.904249 190.598677 
L 384.099637 190.307617 
L 384.994005 190.307617 
L 385.766782 189.628477 
L 387.677302 188.949337 
L 387.831884 188.658277 
L 388.010483 188.658277 
L 388.582313 188.464237 
L 390.276582 188.367217 
L 392.544702 188.173177 
L 397.071336 188.076157 
L 397.071336 188.076157 
" clip-path="url(#pd24b9d6436)" style="fill: none; stroke: #005953; stroke-width: 2; stroke-linecap: square"/>
   </g>
   <g id="line2d_10">
    <path d="M 223.597484 402.878437 
L 240.553589 402.878437 
L 241.5516 402.199297 
L 242.117355 402.102277 
L 242.305486 401.811217 
L 242.874722 401.423137 
L 243.062261 400.743997 
L 243.635192 400.064857 
L 243.819597 400.064857 
L 244.574472 399.482737 
L 245.344283 399.385717 
L 247.592317 399.191677 
L 249.600122 399.094657 
L 249.859705 398.900617 
L 251.017559 398.900617 
L 251.177752 398.706577 
L 251.865359 398.609557 
L 252.20813 398.512537 
L 252.875544 398.318497 
L 256.649714 398.221477 
L 257.093627 397.154257 
L 257.405603 397.057237 
L 258.627634 396.766177 
L 260.015814 395.892997 
L 260.4257 395.795977 
L 261.002691 395.601937 
L 261.181481 395.601937 
L 261.743903 395.310877 
L 261.934105 395.310877 
L 262.68639 395.116837 
L 270.864102 395.019817 
L 270.998679 394.922797 
L 274.767028 394.825777 
L 275.525066 394.728757 
L 276.073192 393.564517 
L 277.031533 393.564517 
L 279.168839 392.788357 
L 279.308837 392.303257 
L 279.308837 392.303257 
L 279.88546 386.288017 
L 280.562344 377.750257 
L 281.229553 374.839657 
L 281.573311 374.451577 
L 288.835969 360.577717 
L 288.964066 359.413477 
L 289.12408 356.599897 
L 289.880667 355.338637 
L 290.447555 353.495257 
L 290.632342 353.301217 
L 292.146031 348.547237 
L 292.917713 346.994917 
L 293.528504 344.860477 
L 293.67905 344.763457 
L 294.159142 344.084317 
L 294.923651 342.143917 
L 295.160484 342.046897 
L 295.686824 340.203517 
L 295.918643 339.912457 
L 296.670426 337.875037 
L 297.424509 337.001857 
L 297.802165 335.837617 
L 297.994946 335.643577 
L 298.180817 335.643577 
L 298.936545 334.770397 
L 299.506226 334.479337 
L 299.688749 334.479337 
L 300.113533 334.285297 
L 301.67726 334.188277 
L 301.976961 334.091257 
L 305.733867 333.994237 
L 306.521909 333.800197 
L 307.238095 332.927017 
L 308.350715 332.150857 
L 310.26076 331.180657 
L 310.898969 330.889597 
L 311.043181 330.889597 
L 311.771702 330.307477 
L 312.294911 330.016417 
L 312.526415 330.016417 
L 312.98771 329.240257 
L 313.296467 329.143237 
L 315.577768 328.173037 
L 315.910117 327.784957 
L 316.795275 327.687937 
L 317.052608 327.590917 
L 317.812326 327.493897 
L 321.491069 327.299857 
L 323.846268 327.202837 
L 325.003038 326.620717 
L 325.8535 326.523697 
L 326.114251 326.426677 
L 326.458983 326.426677 
L 326.870367 325.941577 
L 327.546102 325.165417 
L 328.376934 324.777337 
L 328.963763 324.486277 
L 329.548205 324.389257 
L 329.706069 324.292237 
L 329.890432 324.389257 
L 330.386641 323.904157 
L 330.644871 323.807137 
L 331.270731 323.322037 
L 331.415388 322.933957 
L 331.916648 322.642897 
L 332.151039 322.157797 
L 332.90824 321.381637 
L 333.312961 321.187597 
L 333.657253 320.799517 
L 334.419907 320.120377 
L 335.570799 320.023357 
L 335.922827 319.926337 
L 341.207959 319.635277 
L 341.782217 319.441237 
L 342.466907 319.441237 
L 342.722114 319.247197 
L 344.230682 318.859117 
L 344.986939 318.568057 
L 345.745609 317.791897 
L 347.059291 317.597857 
L 348.534785 317.500837 
L 349.386951 302.947837 
L 350.26779 302.268697 
L 351.02278 301.492537 
L 352.170124 300.910417 
L 352.227851 300.716377 
L 352.53074 300.619357 
L 353.723567 299.843197 
L 356.30655 299.746177 
L 357.067033 299.649157 
L 359.325026 299.649157 
L 359.896459 299.358097 
L 360.840381 299.261077 
L 361.429174 299.164057 
L 361.592231 298.970017 
L 362.134389 298.872997 
L 362.345479 298.678957 
L 363.101709 298.678957 
L 363.84665 298.290877 
L 364.625646 298.193857 
L 365.0972 298.096837 
L 365.370569 297.514717 
L 365.802463 291.014377 
L 366.124466 290.917357 
L 367.480978 290.335237 
L 367.631771 289.947157 
L 368.394936 289.559077 
L 368.742389 289.073977 
L 370.648661 288.394837 
L 371.817981 288.394837 
L 371.978202 288.200797 
L 378.199869 288.103777 
L 378.952088 287.909737 
L 381.033899 287.327617 
L 381.218868 287.230597 
L 383.501413 286.842517 
L 384.247153 286.745497 
L 384.994005 282.961717 
L 385.46957 282.767677 
L 386.506519 281.603437 
L 387.071513 281.409397 
L 387.255863 281.409397 
L 387.677302 281.118337 
L 387.831884 280.827277 
L 388.764102 280.245157 
L 390.276582 280.148137 
L 392.544702 279.954097 
L 395.56024 279.857077 
L 396.318442 279.663037 
L 396.803141 279.371977 
L 397.071336 279.371977 
L 397.071336 279.371977 
" clip-path="url(#pd24b9d6436)" style="fill: none; stroke: #69a3a2; stroke-width: 2; stroke-linecap: square"/>
   </g>
   <g id="LineCollection_1">
    <path d="M -1 402.878437 
L 1007.45 402.878437 
" clip-path="url(#pd24b9d6436)" style="fill: none; stroke: #d3d3d3; stroke-width: 0.5"/>
    <path d="M -1 305.858437 
L 1007.45 305.858437 
" clip-path="url(#pd24b9d6436)" style="fill: none; stroke: #d3d3d3; stroke-width: 0.5"/>
    <path d="M -1 208.838437 
L 1007.45 208.838437 
" clip-path="url(#pd24b9d6436)" style="fill: none; stroke: #d3d3d3; stroke-width: 0.5"/>
    <path d="M -1 111.818437 
L 1007.45 111.818437 
" clip-path="url(#pd24b9d6436)" style="fill: none; stroke: #d3d3d3; stroke-width: 0.5"/>
    <path d="M -1 14.798437 
L 1007.45 14.798437 
" clip-path="url(#pd24b9d6436)" style="fill: none; stroke: #d3d3d3; stroke-width: 0.5"/>
    <path clip-path="url(#pd24b9d6436)" style="fill: none; stroke: #d3d3d3; stroke-width: 0.5"/>
    <path clip-path="url(#pd24b9d6436)" style="fill: none; stroke: #d3d3d3; stroke-width: 0.5"/>
    <path clip-path="url(#pd24b9d6436)" style="fill: none; stroke: #d3d3d3; stroke-width: 0.5"/>
    <path clip-path="url(#pd24b9d6436)" style="fill: none; stroke: #d3d3d3; stroke-width: 0.5"/>
    <path clip-path="url(#pd24b9d6436)" style="fill: none; stroke: #d3d3d3; stroke-width: 0.5"/>
    <path clip-path="url(#pd24b9d6436)" style="fill: none; stroke: #d3d3d3; stroke-width: 0.5"/>
    <path clip-path="url(#pd24b9d6436)" style="fill: none; stroke: #d3d3d3; stroke-width: 0.5"/>
    <path clip-path="url(#pd24b9d6436)" style="fill: none; stroke: #d3d3d3; stroke-width: 0.5"/>
    <path clip-path="url(#pd24b9d6436)" style="fill: none; stroke: #d3d3d3; stroke-width: 0.5"/>
    <path clip-path="url(#pd24b9d6436)" style="fill: none; stroke: #d3d3d3; stroke-width: 0.5"/>
    <path clip-path="url(#pd24b9d6436)" style="fill: none; stroke: #d3d3d3; stroke-width: 0.5"/>
    <path clip-path="url(#pd24b9d6436)" style="fill: none; stroke: #d3d3d3; stroke-width: 0.5"/>
    <path clip-path="url(#pd24b9d6436)" style="fill: none; stroke: #d3d3d3; stroke-width: 0.5"/>
    <path clip-path="url(#pd24b9d6436)" style="fill: none; stroke: #d3d3d3; stroke-width: 0.5"/>
    <path clip-path="url(#pd24b9d6436)" style="fill: none; stroke: #d3d3d3; stroke-width: 0.5"/>
    <path clip-path="url(#pd24b9d6436)" style="fill: none; stroke: #d3d3d3; stroke-width: 0.5"/>
    <path clip-path="url(#pd24b9d6436)" style="fill: none; stroke: #d3d3d3; stroke-width: 0.5"/>
    <path clip-path="url(#pd24b9d6436)" style="fill: none; stroke: #d3d3d3; stroke-width: 0.5"/>
    <path clip-path="url(#pd24b9d6436)" style="fill: none; stroke: #d3d3d3; stroke-width: 0.5"/>
    <path clip-path="url(#pd24b9d6436)" style="fill: none; stroke: #d3d3d3; stroke-width: 0.5"/>
    <path clip-path="url(#pd24b9d6436)" style="fill: none; stroke: #d3d3d3; stroke-width: 0.5"/>
    <path clip-path="url(#pd24b9d6436)" style="fill: none; stroke: #d3d3d3; stroke-width: 0.5"/>
    <path clip-path="url(#pd24b9d6436)" style="fill: none; stroke: #d3d3d3; stroke-width: 0.5"/>
    <path clip-path="url(#pd24b9d6436)" style="fill: none; stroke: #d3d3d3; stroke-width: 0.5"/>
    <path clip-path="url(#pd24b9d6436)" style="fill: none; stroke: #d3d3d3; stroke-width: 0.5"/>
    <path clip-path="url(#pd24b9d6436)" style="fill: none; stroke: #d3d3d3; stroke-width: 0.5"/>
    <path clip-path="url(#pd24b9d6436)" style="fill: none; stroke: #d3d3d3; stroke-width: 0.5"/>
    <path clip-path="url(#pd24b9d6436)" style="fill: none; stroke: #d3d3d3; stroke-width: 0.5"/>
    <path clip-path="url(#pd24b9d6436)" style="fill: none; stroke: #d3d3d3; stroke-width: 0.5"/>
    <path clip-path="url(#pd24b9d6436)" style="fill: none; stroke: #d3d3d3; stroke-width: 0.5"/>
    <path clip-path="url(#pd24b9d6436)" style="fill: none; stroke: #d3d3d3; stroke-width: 0.5"/>
    <path clip-path="url(#pd24b9d6436)" style="fill: none; stroke: #d3d3d3; stroke-width: 0.5"/>
    <path clip-path="url(#pd24b9d6436)" style="fill: none; stroke: #d3d3d3; stroke-width: 0.5"/>
    <path clip-path="url(#pd24b9d6436)" style="fill: none; stroke: #d3d3d3; stroke-width: 0.5"/>
    <path clip-path="url(#pd24b9d6436)" style="fill: none; stroke: #d3d3d3; stroke-width: 0.5"/>
    <path clip-path="url(#pd24b9d6436)" style="fill: none; stroke: #d3d3d3; stroke-width: 0.5"/>
    <path clip-path="url(#pd24b9d6436)" style="fill: none; stroke: #d3d3d3; stroke-width: 0.5"/>
    <path clip-path="url(#pd24b9d6436)" style="fill: none; stroke: #d3d3d3; stroke-width: 0.5"/>
    <path clip-path="url(#pd24b9d6436)" style="fill: none; stroke: #d3d3d3; stroke-width: 0.5"/>
    <path clip-path="url(#pd24b9d6436)" style="fill: none; stroke: #d3d3d3; stroke-width: 0.5"/>
    <path clip-path="url(#pd24b9d6436)" style="fill: none; stroke: #d3d3d3; stroke-width: 0.5"/>
    <path clip-path="url(#pd24b9d6436)" style="fill: none; stroke: #d3d3d3; stroke-width: 0.5"/>
    <path clip-path="url(#pd24b9d6436)" style="fill: none; stroke: #d3d3d3; stroke-width: 0.5"/>
    <path clip-path="url(#pd24b9d6436)" style="fill: none; stroke: #d3d3d3; stroke-width: 0.5"/>
    <path clip-path="url(#pd24b9d6436)" style="fill: none; stroke: #d3d3d3; stroke-width: 0.5"/>
   </g>
   <g id="patch_3">
    <path d="M 136.8 402.878437 
L 136.8 14.798437 
" style="fill: none; stroke: #000000; stroke-width: 0.8; stroke-linejoin: miter; stroke-linecap: square"/>
   </g>
   <g id="patch_4">
    <path d="M 517.254545 402.878437 
L 517.254545 14.798437 
" style="fill: none; stroke: #000000; stroke-width: 0.8; stroke-linejoin: miter; stroke-linecap: square"/>
   </g>
   <g id="patch_5">
    <path d="M 136.8 402.878437 
L 517.254545 402.878437 
" style="fill: none; stroke: #000000; stroke-width: 0.8; stroke-linejoin: miter; stroke-linecap: square"/>
   </g>
   <g id="patch_6">
    <path d="M 136.8 14.798437 
L 517.254545 14.798437 
" style="fill: none; stroke: #000000; stroke-width: 0.8; stroke-linejoin: miter; stroke-linecap: square"/>
   </g>
   <g id="text_11">
    <!-- 2214 total regs (1273 paid). -->
    <g transform="translate(138.702273 400.938037) scale(0.066667 -0.066667)">
     <defs>
      <path id="DejaVuSans-6c" d="M 603 4863 
L 1178 4863 
L 1178 0 
L 603 0 
L 603 4863 
z
" transform="scale(0.015625)"/>
      <path id="DejaVuSans-72" d="M 2631 2963 
Q 2534 3019 2420 3045 
Q 2306 3072 2169 3072 
Q 1681 3072 1420 2755 
Q 1159 2438 1159 1844 
L 1159 0 
L 581 0 
L 581 3500 
L 1159 3500 
L 1159 2956 
Q 1341 3275 1631 3429 
Q 1922 3584 2338 3584 
Q 2397 3584 2469 3576 
Q 2541 3569 2628 3553 
L 2631 2963 
z
" transform="scale(0.015625)"/>
      <path id="DejaVuSans-67" d="M 2906 1791 
Q 2906 2416 2648 2759 
Q 2391 3103 1925 3103 
Q 1463 3103 1205 2759 
Q 947 2416 947 1791 
Q 947 1169 1205 825 
Q 1463 481 1925 481 
Q 2391 481 2648 825 
Q 2906 1169 2906 1791 
z
M 3481 434 
Q 3481 -459 3084 -895 
Q 2688 -1331 1869 -1331 
Q 1566 -1331 1297 -1286 
Q 1028 -1241 775 -1147 
L 775 -588 
Q 1028 -725 1275 -790 
Q 1522 -856 1778 -856 
Q 2344 -856 2625 -561 
Q 2906 -266 2906 331 
L 2906 616 
Q 2728 306 2450 153 
Q 2172 0 1784 0 
Q 1141 0 747 490 
Q 353 981 353 1791 
Q 353 2603 747 3093 
Q 1141 3584 1784 3584 
Q 2172 3584 2450 3431 
Q 2728 3278 2906 2969 
L 2906 3500 
L 3481 3500 
L 3481 434 
z
" transform="scale(0.015625)"/>
      <path id="DejaVuSans-73" d="M 2834 3397 
L 2834 2853 
Q 2591 2978 2328 3040 
Q 2066 3103 1784 3103 
Q 1356 3103 1142 2972 
Q 928 2841 928 2578 
Q 928 2378 1081 2264 
Q 1234 2150 1697 2047 
L 1894 2003 
Q 2506 1872 2764 1633 
Q 3022 1394 3022 966 
Q 3022 478 2636 193 
Q 2250 -91 1575 -91 
Q 1294 -91 989 -36 
Q 684 19 347 128 
L 347 722 
Q 666 556 975 473 
Q 1284 391 1588 391 
Q 1994 391 2212 530 
Q 2431 669 2431 922 
Q 2431 1156 2273 1281 
Q 2116 1406 1581 1522 
L 1381 1569 
Q 847 1681 609 1914 
Q 372 2147 372 2553 
Q 372 3047 722 3315 
Q 1072 3584 1716 3584 
Q 2034 3584 2315 3537 
Q 2597 3491 2834 3397 
z
" transform="scale(0.015625)"/>
      <path id="DejaVuSans-28" d="M 1984 4856 
Q 1566 4138 1362 3434 
Q 1159 2731 1159 2009 
Q 1159 1288 1364 580 
Q 1569 -128 1984 -844 
L 1484 -844 
Q 1016 -109 783 600 
Q 550 1309 550 2009 
Q 550 2706 781 3412 
Q 1013 4119 1484 4856 
L 1984 4856 
z
" transform="scale(0.015625)"/>
      <path id="DejaVuSans-37" d="M 525 4666 
L 3525 4666 
L 3525 4397 
L 1831 0 
L 1172 0 
L 2766 4134 
L 525 4134 
L 525 4666 
z
" transform="scale(0.015625)"/>
      <path id="DejaVuSans-70" d="M 1159 525 
L 1159 -1331 
L 581 -1331 
L 581 3500 
L 1159 3500 
L 1159 2969 
Q 1341 3281 1617 3432 
Q 1894 3584 2278 3584 
Q 2916 3584 3314 3078 
Q 3713 2572 3713 1747 
Q 3713 922 3314 415 
Q 2916 -91 2278 -91 
Q 1894 -91 1617 61 
Q 1341 213 1159 525 
z
M 3116 1747 
Q 3116 2381 2855 2742 
Q 2594 3103 2138 3103 
Q 1681 3103 1420 2742 
Q 1159 2381 1159 1747 
Q 1159 1113 1420 752 
Q 1681 391 2138 391 
Q 2594 391 2855 752 
Q 3116 1113 3116 1747 
z
" transform="scale(0.015625)"/>
      <path id="DejaVuSans-64" d="M 2906 2969 
L 2906 4863 
L 3481 4863 
L 3481 0 
L 2906 0 
L 2906 525 
Q 2725 213 2448 61 
Q 2172 -91 1784 -91 
Q 1150 -91 751 415 
Q 353 922 353 1747 
Q 353 2572 751 3078 
Q 1150 3584 1784 3584 
Q 2172 3584 2448 3432 
Q 2725 3281 2906 2969 
z
M 947 1747 
Q 947 1113 1208 752 
Q 1469 391 1925 391 
Q 2381 391 2643 752 
Q 2906 1113 2906 1747 
Q 2906 2381 2643 2742 
Q 2381 3103 1925 3103 
Q 1469 3103 1208 2742 
Q 947 2381 947 1747 
z
" transform="scale(0.015625)"/>
      <path id="DejaVuSans-29" d="M 513 4856 
L 1013 4856 
Q 1481 4119 1714 3412 
Q 1947 2706 1947 2009 
Q 1947 1309 1714 600 
Q 1481 -109 1013 -844 
L 513 -844 
Q 928 -128 1133 580 
Q 1338 1288 1338 2009 
Q 1338 2731 1133 3434 
Q 928 4138 513 4856 
z
" transform="scale(0.015625)"/>
      <path id="DejaVuSans-2e" d="M 684 794 
L 1344 794 
L 1344 0 
L 684 0 
L 684 794 
z
" transform="scale(0.015625)"/>
     </defs>
     <use xlink:href="#DejaVuSans-32"/>
     <use xlink:href="#DejaVuSans-32" x="63.623047"/>
     <use xlink:href="#DejaVuSans-31" x="127.246094"/>
     <use xlink:href="#DejaVuSans-34" x="190.869141"/>
     <use xlink:href="#DejaVuSans-20" x="254.492188"/>
     <use xlink:href="#DejaVuSans-74" x="286.279297"/>
     <use xlink:href="#DejaVuSans-6f" x="325.488281"/>
     <use xlink:href="#DejaVuSans-74" x="386.669922"/>
     <use xlink:href="#DejaVuSans-61" x="425.878906"/>
     <use xlink:href="#DejaVuSans-6c" x="487.158203"/>
     <use xlink:href="#DejaVuSans-20" x="514.941406"/>
     <use xlink:href="#DejaVuSans-72" x="546.728516"/>
     <use xlink:href="#DejaVuSans-65" x="585.591797"/>
     <use xlink:href="#DejaVuSans-67" x="647.115234"/>
     <use xlink:href="#DejaVuSans-73" x="710.591797"/>
     <use xlink:href="#DejaVuSans-20" x="762.691406"/>
     <use xlink:href="#DejaVuSans-28" x="794.478516"/>
     <use xlink:href="#DejaVuSans-31" x="833.492188"/>
     <use xlink:href="#DejaVuSans-32" x="897.115234"/>
     <use xlink:href="#DejaVuSans-37" x="960.738281"/>
     <use xlink:href="#DejaVuSans-33" x="1024.361328"/>
     <use xlink:href="#DejaVuSans-20" x="1087.984375"/>
     <use xlink:href="#DejaVuSans-70" x="1119.771484"/>
     <use xlink:href="#DejaVuSans-61" x="1183.248047"/>
     <use xlink:href="#DejaVuSans-69" x="1244.527344"/>
     <use xlink:href="#DejaVuSans-64" x="1272.310547"/>
     <use xlink:href="#DejaVuSans-29" x="1335.787109"/>
     <use xlink:href="#DejaVuSans-2e" x="1374.800781"/>
    </g>
   </g>
   <g id="legend_1">
    <g id="line2d_11">
     <path d="M 236.886648 34.446094 
L 251.886648 34.446094 
L 266.886648 34.446094 
" style="fill: none; stroke: #005953; stroke-width: 2; stroke-linecap: square"/>
    </g>
    <g id="text_12">
     <!-- Total -->
     <g transform="translate(278.886648 39.696094) scale(0.15 -0.15)">
      <use xlink:href="#DejaVuSans-54"/>
      <use xlink:href="#DejaVuSans-6f" x="44.083984"/>
      <use xlink:href="#DejaVuSans-74" x="105.265625"/>
      <use xlink:href="#DejaVuSans-61" x="144.474609"/>
      <use xlink:href="#DejaVuSans-6c" x="205.753906"/>
     </g>
    </g>
    <g id="line2d_12">
     <path d="M 343.916335 34.446094 
L 358.916335 34.446094 
L 373.916335 34.446094 
" style="fill: none; stroke: #69a3a2; stroke-width: 2; stroke-linecap: square"/>
    </g>
    <g id="text_13">
     <!-- Paid -->
     <g transform="translate(385.916335 39.696094) scale(0.15 -0.15)">
      <defs>
       <path id="DejaVuSans-50" d="M 1259 4147 
L 1259 2394 
L 2053 2394 
Q 2494 2394 2734 2622 
Q 2975 2850 2975 3272 
Q 2975 3691 2734 3919 
Q 2494 4147 2053 4147 
L 1259 4147 
z
M 628 4666 
L 2053 4666 
Q 2838 4666 3239 4311 
Q 3641 3956 3641 3272 
Q 3641 2581 3239 2228 
Q 2838 1875 2053 1875 
L 1259 1875 
L 1259 0 
L 628 0 
L 628 4666 
z
" transform="scale(0.015625)"/>
      </defs>
      <use xlink:href="#DejaVuSans-50"/>
      <use xlink:href="#DejaVuSans-61" x="55.802734"/>
      <use xlink:href="#DejaVuSans-69" x="117.082031"/>
      <use xlink:href="#DejaVuSans-64" x="144.865234"/>
     </g>
    </g>
   </g>
  </g>
  <g id="axes_2">
   <g id="patch_7">
    <path d="M 593.345455 402.878437 
L 973.8 402.878437 
L 973.8 14.798437 
L 593.345455 14.798437 
z
" style="fill: #ffffff"/>
   </g>
   <g id="patch_8">
    <path d="M 593.345455 260.582437 
L 730.404205 260.582437 
L 730.404205 157.094437 
L 593.345455 157.094437 
z
" clip-path="url(#p3e2dfcafe8)" style="fill: #a2c5c4"/>
   </g>
   <g id="patch_9">
    <path d="M 730.404205 260.582437 
L 777.009886 260.582437 
L 777.009886 157.094437 
L 730.404205 157.094437 
z
" clip-path="url(#p3e2dfcafe8)" style="fill: #69a3a2"/>
   </g>
   <g id="patch_10">
    <path d="M 777.009886 260.582437 
L 803.831932 260.582437 
L 803.831932 157.094437 
L 777.009886 157.094437 
z
" clip-path="url(#p3e2dfcafe8)" style="fill: #005953"/>
   </g>
   <g id="matplotlib.axis_3">
    <g id="xtick_4">
     <g id="line2d_13">
      <g>
       <use xlink:href="#m214bb57732" x="593.345455" y="402.878437" style="stroke: #000000; stroke-width: 0.8"/>
      </g>
     </g>
     <g id="text_14">
      <!-- 0 -->
      <g transform="translate(586.982955 431.575312) scale(0.2 -0.2)">
       <use xlink:href="#DejaVuSans-30"/>
      </g>
     </g>
    </g>
    <g id="xtick_5">
     <g id="line2d_14">
      <g>
       <use xlink:href="#m214bb57732" x="688.459091" y="402.878437" style="stroke: #000000; stroke-width: 0.8"/>
      </g>
     </g>
     <g id="text_15">
      <!-- 1000 -->
      <g transform="translate(663.009091 431.575312) scale(0.2 -0.2)">
       <use xlink:href="#DejaVuSans-31"/>
       <use xlink:href="#DejaVuSans-30" x="63.623047"/>
       <use xlink:href="#DejaVuSans-30" x="127.246094"/>
       <use xlink:href="#DejaVuSans-30" x="190.869141"/>
      </g>
     </g>
    </g>
    <g id="xtick_6">
     <g id="line2d_15">
      <g>
       <use xlink:href="#m214bb57732" x="783.572727" y="402.878437" style="stroke: #000000; stroke-width: 0.8"/>
      </g>
     </g>
     <g id="text_16">
      <!-- 2000 -->
      <g transform="translate(758.122727 431.575312) scale(0.2 -0.2)">
       <use xlink:href="#DejaVuSans-32"/>
       <use xlink:href="#DejaVuSans-30" x="63.623047"/>
       <use xlink:href="#DejaVuSans-30" x="127.246094"/>
       <use xlink:href="#DejaVuSans-30" x="190.869141"/>
      </g>
     </g>
    </g>
    <g id="xtick_7">
     <g id="line2d_16">
      <g>
       <use xlink:href="#m214bb57732" x="878.686364" y="402.878437" style="stroke: #000000; stroke-width: 0.8"/>
      </g>
     </g>
     <g id="text_17">
      <!-- 3000 -->
      <g transform="translate(853.236364 431.575312) scale(0.2 -0.2)">
       <use xlink:href="#DejaVuSans-33"/>
       <use xlink:href="#DejaVuSans-30" x="63.623047"/>
       <use xlink:href="#DejaVuSans-30" x="127.246094"/>
       <use xlink:href="#DejaVuSans-30" x="190.869141"/>
      </g>
     </g>
    </g>
    <g id="xtick_8">
     <g id="line2d_17">
      <g>
       <use xlink:href="#m214bb57732" x="973.8" y="402.878437" style="stroke: #000000; stroke-width: 0.8"/>
      </g>
     </g>
     <g id="text_18">
      <!-- 4000 -->
      <g transform="translate(948.35 431.575312) scale(0.2 -0.2)">
       <use xlink:href="#DejaVuSans-34"/>
       <use xlink:href="#DejaVuSans-30" x="63.623047"/>
       <use xlink:href="#DejaVuSans-30" x="127.246094"/>
       <use xlink:href="#DejaVuSans-30" x="190.869141"/>
      </g>
     </g>
    </g>
    <g id="text_19">
     <!-- Count -->
     <g transform="translate(753.875852 460.931562) scale(0.2 -0.2)">
      <use xlink:href="#DejaVuSans-43"/>
      <use xlink:href="#DejaVuSans-6f" x="69.824219"/>
      <use xlink:href="#DejaVuSans-75" x="131.005859"/>
      <use xlink:href="#DejaVuSans-6e" x="194.384766"/>
      <use xlink:href="#DejaVuSans-74" x="257.763672"/>
     </g>
    </g>
   </g>
   <g id="matplotlib.axis_4"/>
   <g id="patch_11">
    <path d="M 593.345455 402.878437 
L 593.345455 14.798438 
" style="fill: none; stroke: #000000; stroke-width: 0.8; stroke-linejoin: miter; stroke-linecap: square"/>
   </g>
   <g id="patch_12">
    <path d="M 973.8 402.878437 
L 973.8 14.798438 
" style="fill: none; stroke: #000000; stroke-width: 0.8; stroke-linejoin: miter; stroke-linecap: square"/>
   </g>
   <g id="patch_13">
    <path d="M 593.345455 402.878437 
L 973.8 402.878437 
" style="fill: none; stroke: #000000; stroke-width: 0.8; stroke-linejoin: miter; stroke-linecap: square"/>
   </g>
   <g id="patch_14">
    <path d="M 593.345455 14.798437 
L 973.8 14.798437 
" style="fill: none; stroke: #000000; stroke-width: 0.8; stroke-linejoin: miter; stroke-linecap: square"/>
   </g>
   <g id="text_20">
    <!-- Last update 2024-02-08 08:47:22 (UTC). -->
    <g transform="translate(5.4 462.305729) scale(0.066667 -0.066667)">
     <defs>
      <path id="DejaVuSans-4c" d="M 628 4666 
L 1259 4666 
L 1259 531 
L 3531 531 
L 3531 0 
L 628 0 
L 628 4666 
z
" transform="scale(0.015625)"/>
      <path id="DejaVuSans-2d" d="M 313 2009 
L 1997 2009 
L 1997 1497 
L 313 1497 
L 313 2009 
z
" transform="scale(0.015625)"/>
      <path id="DejaVuSans-38" d="M 2034 2216 
Q 1584 2216 1326 1975 
Q 1069 1734 1069 1313 
Q 1069 891 1326 650 
Q 1584 409 2034 409 
Q 2484 409 2743 651 
Q 3003 894 3003 1313 
Q 3003 1734 2745 1975 
Q 2488 2216 2034 2216 
z
M 1403 2484 
Q 997 2584 770 2862 
Q 544 3141 544 3541 
Q 544 4100 942 4425 
Q 1341 4750 2034 4750 
Q 2731 4750 3128 4425 
Q 3525 4100 3525 3541 
Q 3525 3141 3298 2862 
Q 3072 2584 2669 2484 
Q 3125 2378 3379 2068 
Q 3634 1759 3634 1313 
Q 3634 634 3220 271 
Q 2806 -91 2034 -91 
Q 1263 -91 848 271 
Q 434 634 434 1313 
Q 434 1759 690 2068 
Q 947 2378 1403 2484 
z
M 1172 3481 
Q 1172 3119 1398 2916 
Q 1625 2713 2034 2713 
Q 2441 2713 2670 2916 
Q 2900 3119 2900 3481 
Q 2900 3844 2670 4047 
Q 2441 4250 2034 4250 
Q 1625 4250 1398 4047 
Q 1172 3844 1172 3481 
z
" transform="scale(0.015625)"/>
      <path id="DejaVuSans-3a" d="M 750 794 
L 1409 794 
L 1409 0 
L 750 0 
L 750 794 
z
M 750 3309 
L 1409 3309 
L 1409 2516 
L 750 2516 
L 750 3309 
z
" transform="scale(0.015625)"/>
      <path id="DejaVuSans-55" d="M 556 4666 
L 1191 4666 
L 1191 1831 
Q 1191 1081 1462 751 
Q 1734 422 2344 422 
Q 2950 422 3222 751 
Q 3494 1081 3494 1831 
L 3494 4666 
L 4128 4666 
L 4128 1753 
Q 4128 841 3676 375 
Q 3225 -91 2344 -91 
Q 1459 -91 1007 375 
Q 556 841 556 1753 
L 556 4666 
z
" transform="scale(0.015625)"/>
     </defs>
     <use xlink:href="#DejaVuSans-4c"/>
     <use xlink:href="#DejaVuSans-61" x="55.712891"/>
     <use xlink:href="#DejaVuSans-73" x="116.992188"/>
     <use xlink:href="#DejaVuSans-74" x="169.091797"/>
     <use xlink:href="#DejaVuSans-20" x="208.300781"/>
     <use xlink:href="#DejaVuSans-75" x="240.087891"/>
     <use xlink:href="#DejaVuSans-70" x="303.466797"/>
     <use xlink:href="#DejaVuSans-64" x="366.943359"/>
     <use xlink:href="#DejaVuSans-61" x="430.419922"/>
     <use xlink:href="#DejaVuSans-74" x="491.699219"/>
     <use xlink:href="#DejaVuSans-65" x="530.908203"/>
     <use xlink:href="#DejaVuSans-20" x="592.431641"/>
     <use xlink:href="#DejaVuSans-32" x="624.21875"/>
     <use xlink:href="#DejaVuSans-30" x="687.841797"/>
     <use xlink:href="#DejaVuSans-32" x="751.464844"/>
     <use xlink:href="#DejaVuSans-34" x="815.087891"/>
     <use xlink:href="#DejaVuSans-2d" x="878.710938"/>
     <use xlink:href="#DejaVuSans-30" x="914.794922"/>
     <use xlink:href="#DejaVuSans-32" x="978.417969"/>
     <use xlink:href="#DejaVuSans-2d" x="1042.041016"/>
     <use xlink:href="#DejaVuSans-30" x="1078.125"/>
     <use xlink:href="#DejaVuSans-38" x="1141.748047"/>
     <use xlink:href="#DejaVuSans-20" x="1205.371094"/>
     <use xlink:href="#DejaVuSans-30" x="1237.158203"/>
     <use xlink:href="#DejaVuSans-38" x="1300.78125"/>
     <use xlink:href="#DejaVuSans-3a" x="1364.404297"/>
     <use xlink:href="#DejaVuSans-34" x="1398.095703"/>
     <use xlink:href="#DejaVuSans-37" x="1461.71875"/>
     <use xlink:href="#DejaVuSans-3a" x="1525.341797"/>
     <use xlink:href="#DejaVuSans-32" x="1559.033203"/>
     <use xlink:href="#DejaVuSans-32" x="1622.65625"/>
     <use xlink:href="#DejaVuSans-20" x="1686.279297"/>
     <use xlink:href="#DejaVuSans-28" x="1718.066406"/>
     <use xlink:href="#DejaVuSans-55" x="1757.080078"/>
     <use xlink:href="#DejaVuSans-54" x="1830.273438"/>
     <use xlink:href="#DejaVuSans-43" x="1885.482422"/>
     <use xlink:href="#DejaVuSans-29" x="1955.306641"/>
     <use xlink:href="#DejaVuSans-2e" x="1994.320312"/>
    </g>
    <!-- For questions, contact @GermanCoyote. -->
    <g transform="translate(5.4 469.770937) scale(0.066667 -0.066667)">
     <defs>
      <path id="DejaVuSans-71" d="M 947 1747 
Q 947 1113 1208 752 
Q 1469 391 1925 391 
Q 2381 391 2643 752 
Q 2906 1113 2906 1747 
Q 2906 2381 2643 2742 
Q 2381 3103 1925 3103 
Q 1469 3103 1208 2742 
Q 947 2381 947 1747 
z
M 2906 525 
Q 2725 213 2448 61 
Q 2172 -91 1784 -91 
Q 1150 -91 751 415 
Q 353 922 353 1747 
Q 353 2572 751 3078 
Q 1150 3584 1784 3584 
Q 2172 3584 2448 3432 
Q 2725 3281 2906 2969 
L 2906 3500 
L 3481 3500 
L 3481 -1331 
L 2906 -1331 
L 2906 525 
z
" transform="scale(0.015625)"/>
      <path id="DejaVuSans-2c" d="M 750 794 
L 1409 794 
L 1409 256 
L 897 -744 
L 494 -744 
L 750 256 
L 750 794 
z
" transform="scale(0.015625)"/>
      <path id="DejaVuSans-63" d="M 3122 3366 
L 3122 2828 
Q 2878 2963 2633 3030 
Q 2388 3097 2138 3097 
Q 1578 3097 1268 2742 
Q 959 2388 959 1747 
Q 959 1106 1268 751 
Q 1578 397 2138 397 
Q 2388 397 2633 464 
Q 2878 531 3122 666 
L 3122 134 
Q 2881 22 2623 -34 
Q 2366 -91 2075 -91 
Q 1284 -91 818 406 
Q 353 903 353 1747 
Q 353 2603 823 3093 
Q 1294 3584 2113 3584 
Q 2378 3584 2631 3529 
Q 2884 3475 3122 3366 
z
" transform="scale(0.015625)"/>
      <path id="DejaVuSans-40" d="M 2381 1678 
Q 2381 1231 2603 976 
Q 2825 722 3213 722 
Q 3597 722 3817 978 
Q 4038 1234 4038 1678 
Q 4038 2116 3813 2373 
Q 3588 2631 3206 2631 
Q 2828 2631 2604 2375 
Q 2381 2119 2381 1678 
z
M 4084 744 
Q 3897 503 3655 389 
Q 3413 275 3091 275 
Q 2553 275 2217 664 
Q 1881 1053 1881 1678 
Q 1881 2303 2218 2693 
Q 2556 3084 3091 3084 
Q 3413 3084 3656 2967 
Q 3900 2850 4084 2613 
L 4084 3022 
L 4531 3022 
L 4531 722 
Q 4988 791 5245 1139 
Q 5503 1488 5503 2041 
Q 5503 2375 5404 2669 
Q 5306 2963 5106 3213 
Q 4781 3622 4314 3839 
Q 3847 4056 3297 4056 
Q 2913 4056 2559 3954 
Q 2206 3853 1906 3653 
Q 1416 3334 1139 2817 
Q 863 2300 863 1697 
Q 863 1200 1042 765 
Q 1222 331 1563 0 
Q 1891 -325 2322 -495 
Q 2753 -666 3244 -666 
Q 3647 -666 4036 -530 
Q 4425 -394 4750 -141 
L 5031 -488 
Q 4641 -791 4180 -952 
Q 3719 -1113 3244 -1113 
Q 2666 -1113 2153 -908 
Q 1641 -703 1241 -313 
Q 841 78 631 592 
Q 422 1106 422 1697 
Q 422 2266 634 2781 
Q 847 3297 1241 3688 
Q 1644 4084 2172 4295 
Q 2700 4506 3291 4506 
Q 3953 4506 4520 4234 
Q 5088 3963 5472 3463 
Q 5706 3156 5829 2797 
Q 5953 2438 5953 2053 
Q 5953 1231 5456 756 
Q 4959 281 4084 263 
L 4084 744 
z
" transform="scale(0.015625)"/>
      <path id="DejaVuSans-47" d="M 3809 666 
L 3809 1919 
L 2778 1919 
L 2778 2438 
L 4434 2438 
L 4434 434 
Q 4069 175 3628 42 
Q 3188 -91 2688 -91 
Q 1594 -91 976 548 
Q 359 1188 359 2328 
Q 359 3472 976 4111 
Q 1594 4750 2688 4750 
Q 3144 4750 3555 4637 
Q 3966 4525 4313 4306 
L 4313 3634 
Q 3963 3931 3569 4081 
Q 3175 4231 2741 4231 
Q 1884 4231 1454 3753 
Q 1025 3275 1025 2328 
Q 1025 1384 1454 906 
Q 1884 428 2741 428 
Q 3075 428 3337 486 
Q 3600 544 3809 666 
z
" transform="scale(0.015625)"/>
      <path id="DejaVuSans-79" d="M 2059 -325 
Q 1816 -950 1584 -1140 
Q 1353 -1331 966 -1331 
L 506 -1331 
L 506 -850 
L 844 -850 
Q 1081 -850 1212 -737 
Q 1344 -625 1503 -206 
L 1606 56 
L 191 3500 
L 800 3500 
L 1894 763 
L 2988 3500 
L 3597 3500 
L 2059 -325 
z
" transform="scale(0.015625)"/>
     </defs>
     <use xlink:href="#DejaVuSans-46"/>
     <use xlink:href="#DejaVuSans-6f" x="53.894531"/>
     <use xlink:href="#DejaVuSans-72" x="115.076172"/>
     <use xlink:href="#DejaVuSans-20" x="156.189453"/>
     <use xlink:href="#DejaVuSans-71" x="187.976562"/>
     <use xlink:href="#DejaVuSans-75" x="251.453125"/>
     <use xlink:href="#DejaVuSans-65" x="314.832031"/>
     <use xlink:href="#DejaVuSans-73" x="376.355469"/>
     <use xlink:href="#DejaVuSans-74" x="428.455078"/>
     <use xlink:href="#DejaVuSans-69" x="467.664062"/>
     <use xlink:href="#DejaVuSans-6f" x="495.447266"/>
     <use xlink:href="#DejaVuSans-6e" x="556.628906"/>
     <use xlink:href="#DejaVuSans-73" x="620.007812"/>
     <use xlink:href="#DejaVuSans-2c" x="672.107422"/>
     <use xlink:href="#DejaVuSans-20" x="703.894531"/>
     <use xlink:href="#DejaVuSans-63" x="735.681641"/>
     <use xlink:href="#DejaVuSans-6f" x="790.662109"/>
     <use xlink:href="#DejaVuSans-6e" x="851.84375"/>
     <use xlink:href="#DejaVuSans-74" x="915.222656"/>
     <use xlink:href="#DejaVuSans-61" x="954.431641"/>
     <use xlink:href="#DejaVuSans-63" x="1015.710938"/>
     <use xlink:href="#DejaVuSans-74" x="1070.691406"/>
     <use xlink:href="#DejaVuSans-20" x="1109.900391"/>
     <use xlink:href="#DejaVuSans-40" x="1141.6875"/>
     <use xlink:href="#DejaVuSans-47" x="1241.6875"/>
     <use xlink:href="#DejaVuSans-65" x="1319.177734"/>
     <use xlink:href="#DejaVuSans-72" x="1380.701172"/>
     <use xlink:href="#DejaVuSans-6d" x="1420.064453"/>
     <use xlink:href="#DejaVuSans-61" x="1517.476562"/>
     <use xlink:href="#DejaVuSans-6e" x="1578.755859"/>
     <use xlink:href="#DejaVuSans-43" x="1642.134766"/>
     <use xlink:href="#DejaVuSans-6f" x="1711.958984"/>
     <use xlink:href="#DejaVuSans-79" x="1773.140625"/>
     <use xlink:href="#DejaVuSans-6f" x="1832.320312"/>
     <use xlink:href="#DejaVuSans-74" x="1893.501953"/>
     <use xlink:href="#DejaVuSans-65" x="1932.710938"/>
     <use xlink:href="#DejaVuSans-2e" x="1994.234375"/>
    </g>
   </g>
   <g id="text_21">
    <!-- 2213 total regs (1441 normal, 490 sponsors, 282 supersponsors). -->
    <g transform="translate(595.247727 400.938037) scale(0.066667 -0.066667)">
     <defs>
      <path id="DejaVuSans-39" d="M 703 97 
L 703 672 
Q 941 559 1184 500 
Q 1428 441 1663 441 
Q 2288 441 2617 861 
Q 2947 1281 2994 2138 
Q 2813 1869 2534 1725 
Q 2256 1581 1919 1581 
Q 1219 1581 811 2004 
Q 403 2428 403 3163 
Q 403 3881 828 4315 
Q 1253 4750 1959 4750 
Q 2769 4750 3195 4129 
Q 3622 3509 3622 2328 
Q 3622 1225 3098 567 
Q 2575 -91 1691 -91 
Q 1453 -91 1209 -44 
Q 966 3 703 97 
z
M 1959 2075 
Q 2384 2075 2632 2365 
Q 2881 2656 2881 3163 
Q 2881 3666 2632 3958 
Q 2384 4250 1959 4250 
Q 1534 4250 1286 3958 
Q 1038 3666 1038 3163 
Q 1038 2656 1286 2365 
Q 1534 2075 1959 2075 
z
" transform="scale(0.015625)"/>
     </defs>
     <use xlink:href="#DejaVuSans-32"/>
     <use xlink:href="#DejaVuSans-32" x="63.623047"/>
     <use xlink:href="#DejaVuSans-31" x="127.246094"/>
     <use xlink:href="#DejaVuSans-33" x="190.869141"/>
     <use xlink:href="#DejaVuSans-20" x="254.492188"/>
     <use xlink:href="#DejaVuSans-74" x="286.279297"/>
     <use xlink:href="#DejaVuSans-6f" x="325.488281"/>
     <use xlink:href="#DejaVuSans-74" x="386.669922"/>
     <use xlink:href="#DejaVuSans-61" x="425.878906"/>
     <use xlink:href="#DejaVuSans-6c" x="487.158203"/>
     <use xlink:href="#DejaVuSans-20" x="514.941406"/>
     <use xlink:href="#DejaVuSans-72" x="546.728516"/>
     <use xlink:href="#DejaVuSans-65" x="585.591797"/>
     <use xlink:href="#DejaVuSans-67" x="647.115234"/>
     <use xlink:href="#DejaVuSans-73" x="710.591797"/>
     <use xlink:href="#DejaVuSans-20" x="762.691406"/>
     <use xlink:href="#DejaVuSans-28" x="794.478516"/>
     <use xlink:href="#DejaVuSans-31" x="833.492188"/>
     <use xlink:href="#DejaVuSans-34" x="897.115234"/>
     <use xlink:href="#DejaVuSans-34" x="960.738281"/>
     <use xlink:href="#DejaVuSans-31" x="1024.361328"/>
     <use xlink:href="#DejaVuSans-20" x="1087.984375"/>
     <use xlink:href="#DejaVuSans-6e" x="1119.771484"/>
     <use xlink:href="#DejaVuSans-6f" x="1183.150391"/>
     <use xlink:href="#DejaVuSans-72" x="1244.332031"/>
     <use xlink:href="#DejaVuSans-6d" x="1283.695312"/>
     <use xlink:href="#DejaVuSans-61" x="1381.107422"/>
     <use xlink:href="#DejaVuSans-6c" x="1442.386719"/>
     <use xlink:href="#DejaVuSans-2c" x="1470.169922"/>
     <use xlink:href="#DejaVuSans-20" x="1501.957031"/>
     <use xlink:href="#DejaVuSans-34" x="1533.744141"/>
     <use xlink:href="#DejaVuSans-39" x="1597.367188"/>
     <use xlink:href="#DejaVuSans-30" x="1660.990234"/>
     <use xlink:href="#DejaVuSans-20" x="1724.613281"/>
     <use xlink:href="#DejaVuSans-73" x="1756.400391"/>
     <use xlink:href="#DejaVuSans-70" x="1808.5"/>
     <use xlink:href="#DejaVuSans-6f" x="1871.976562"/>
     <use xlink:href="#DejaVuSans-6e" x="1933.158203"/>
     <use xlink:href="#DejaVuSans-73" x="1996.537109"/>
     <use xlink:href="#DejaVuSans-6f" x="2048.636719"/>
     <use xlink:href="#DejaVuSans-72" x="2109.818359"/>
     <use xlink:href="#DejaVuSans-73" x="2150.931641"/>
     <use xlink:href="#DejaVuSans-2c" x="2203.03125"/>
     <use xlink:href="#DejaVuSans-20" x="2234.818359"/>
     <use xlink:href="#DejaVuSans-32" x="2266.605469"/>
     <use xlink:href="#DejaVuSans-38" x="2330.228516"/>
     <use xlink:href="#DejaVuSans-32" x="2393.851562"/>
     <use xlink:href="#DejaVuSans-20" x="2457.474609"/>
     <use xlink:href="#DejaVuSans-73" x="2489.261719"/>
     <use xlink:href="#DejaVuSans-75" x="2541.361328"/>
     <use xlink:href="#DejaVuSans-70" x="2604.740234"/>
     <use xlink:href="#DejaVuSans-65" x="2668.216797"/>
     <use xlink:href="#DejaVuSans-72" x="2729.740234"/>
     <use xlink:href="#DejaVuSans-73" x="2770.853516"/>
     <use xlink:href="#DejaVuSans-70" x="2822.953125"/>
     <use xlink:href="#DejaVuSans-6f" x="2886.429688"/>
     <use xlink:href="#DejaVuSans-6e" x="2947.611328"/>
     <use xlink:href="#DejaVuSans-73" x="3010.990234"/>
     <use xlink:href="#DejaVuSans-6f" x="3063.089844"/>
     <use xlink:href="#DejaVuSans-72" x="3124.271484"/>
     <use xlink:href="#DejaVuSans-73" x="3165.384766"/>
     <use xlink:href="#DejaVuSans-29" x="3217.484375"/>
     <use xlink:href="#DejaVuSans-2e" x="3256.498047"/>
    </g>
   </g>
   <g id="legend_2">
    <g id="patch_15">
     <path d="M 644.564915 39.696094 
L 674.564915 39.696094 
L 674.564915 29.196094 
L 644.564915 29.196094 
z
" style="fill: #a2c5c4"/>
    </g>
    <g id="text_22">
     <!-- Normal -->
     <g transform="translate(686.564915 39.696094) scale(0.15 -0.15)">
      <defs>
       <path id="DejaVuSans-4e" d="M 628 4666 
L 1478 4666 
L 3547 763 
L 3547 4666 
L 4159 4666 
L 4159 0 
L 3309 0 
L 1241 3903 
L 1241 0 
L 628 0 
L 628 4666 
z
" transform="scale(0.015625)"/>
      </defs>
      <use xlink:href="#DejaVuSans-4e"/>
      <use xlink:href="#DejaVuSans-6f" x="74.804688"/>
      <use xlink:href="#DejaVuSans-72" x="135.986328"/>
      <use xlink:href="#DejaVuSans-6d" x="175.349609"/>
      <use xlink:href="#DejaVuSans-61" x="272.761719"/>
      <use xlink:href="#DejaVuSans-6c" x="334.041016"/>
     </g>
    </g>
    <g id="patch_16">
     <path d="M 644.564915 61.713281 
L 674.564915 61.713281 
L 674.564915 51.213281 
L 644.564915 51.213281 
z
" style="fill: #69a3a2"/>
    </g>
    <g id="text_23">
     <!-- Sponsor -->
     <g transform="translate(686.564915 61.713281) scale(0.15 -0.15)">
      <defs>
       <path id="DejaVuSans-53" d="M 3425 4513 
L 3425 3897 
Q 3066 4069 2747 4153 
Q 2428 4238 2131 4238 
Q 1616 4238 1336 4038 
Q 1056 3838 1056 3469 
Q 1056 3159 1242 3001 
Q 1428 2844 1947 2747 
L 2328 2669 
Q 3034 2534 3370 2195 
Q 3706 1856 3706 1288 
Q 3706 609 3251 259 
Q 2797 -91 1919 -91 
Q 1588 -91 1214 -16 
Q 841 59 441 206 
L 441 856 
Q 825 641 1194 531 
Q 1563 422 1919 422 
Q 2459 422 2753 634 
Q 3047 847 3047 1241 
Q 3047 1584 2836 1778 
Q 2625 1972 2144 2069 
L 1759 2144 
Q 1053 2284 737 2584 
Q 422 2884 422 3419 
Q 422 4038 858 4394 
Q 1294 4750 2059 4750 
Q 2388 4750 2728 4690 
Q 3069 4631 3425 4513 
z
" transform="scale(0.015625)"/>
      </defs>
      <use xlink:href="#DejaVuSans-53"/>
      <use xlink:href="#DejaVuSans-70" x="63.476562"/>
      <use xlink:href="#DejaVuSans-6f" x="126.953125"/>
      <use xlink:href="#DejaVuSans-6e" x="188.134766"/>
      <use xlink:href="#DejaVuSans-73" x="251.513672"/>
      <use xlink:href="#DejaVuSans-6f" x="303.613281"/>
      <use xlink:href="#DejaVuSans-72" x="364.794922"/>
     </g>
    </g>
    <g id="patch_17">
     <path d="M 777.453196 39.696094 
L 807.453196 39.696094 
L 807.453196 29.196094 
L 777.453196 29.196094 
z
" style="fill: #005953"/>
    </g>
    <g id="text_24">
     <!-- Supersponsor -->
     <g transform="translate(819.453196 39.696094) scale(0.15 -0.15)">
      <use xlink:href="#DejaVuSans-53"/>
      <use xlink:href="#DejaVuSans-75" x="63.476562"/>
      <use xlink:href="#DejaVuSans-70" x="126.855469"/>
      <use xlink:href="#DejaVuSans-65" x="190.332031"/>
      <use xlink:href="#DejaVuSans-72" x="251.855469"/>
      <use xlink:href="#DejaVuSans-73" x="292.96875"/>
      <use xlink:href="#DejaVuSans-70" x="345.068359"/>
      <use xlink:href="#DejaVuSans-6f" x="408.544922"/>
      <use xlink:href="#DejaVuSans-6e" x="469.726562"/>
      <use xlink:href="#DejaVuSans-73" x="533.105469"/>
      <use xlink:href="#DejaVuSans-6f" x="585.205078"/>
      <use xlink:href="#DejaVuSans-72" x="646.386719"/>
     </g>
    </g>
   </g>
  </g>
 </g>
 <defs>
  <clipPath id="pd24b9d6436">
   <rect x="136.8" y="14.798437" width="380.454545" height="388.08"/>
  </clipPath>
  <clipPath id="p3e2dfcafe8">
   <rect x="593.345455" y="14.798437" width="380.454545" height="388.08"/>
  </clipPath>
 </defs>
</svg>
