<?xml version="1.0" encoding="utf-8" standalone="no"?>
<!DOCTYPE svg PUBLIC "-//W3C//DTD SVG 1.1//EN"
  "http://www.w3.org/Graphics/SVG/1.1/DTD/svg11.dtd">
<svg xmlns:xlink="http://www.w3.org/1999/xlink" width="1006.45pt" height="472.290937pt" viewBox="0 0 1006.45 472.290937" xmlns="http://www.w3.org/2000/svg" version="1.1">
 <metadata>
  <rdf:RDF xmlns:dc="http://purl.org/dc/elements/1.1/" xmlns:cc="http://creativecommons.org/ns#" xmlns:rdf="http://www.w3.org/1999/02/22-rdf-syntax-ns#">
   <cc:Work>
    <dc:type rdf:resource="http://purl.org/dc/dcmitype/StillImage"/>
    <dc:date>2024-02-13T03:47:55.872634</dc:date>
    <dc:format>image/svg+xml</dc:format>
    <dc:creator>
     <cc:Agent>
      <dc:title>Matplotlib v3.8.2, https://matplotlib.org/</dc:title>
     </cc:Agent>
    </dc:creator>
   </cc:Work>
  </rdf:RDF>
 </metadata>
 <defs>
  <style type="text/css">*{stroke-linejoin: round; stroke-linecap: butt}</style>
 </defs>
 <g id="figure_1">
  <g id="patch_1">
   <path d="M 0 472.290937 
L 1006.45 472.290937 
L 1006.45 0 
L 0 0 
z
" style="fill: #ffffff"/>
  </g>
  <g id="axes_1">
   <g id="patch_2">
    <path d="M 136.8 402.878437 
L 517.254545 402.878437 
L 517.254545 14.798437 
L 136.8 14.798437 
z
" style="fill: #ffffff"/>
   </g>
   <g id="matplotlib.axis_1">
    <g id="xtick_1">
     <g id="line2d_1">
      <defs>
       <path id="mf9f443736b" d="M 0 0 
L 0 3.5 
" style="stroke: #000000; stroke-width: 0.8"/>
      </defs>
      <g>
       <use xlink:href="#mf9f443736b" x="136.8" y="402.878437" style="stroke: #000000; stroke-width: 0.8"/>
      </g>
     </g>
     <g id="text_1">
      <!-- 25 Jan -->
      <g transform="translate(105.48125 431.575312) scale(0.2 -0.2)">
       <defs>
        <path id="DejaVuSans-32" d="M 1228 531 
L 3431 531 
L 3431 0 
L 469 0 
L 469 531 
Q 828 903 1448 1529 
Q 2069 2156 2228 2338 
Q 2531 2678 2651 2914 
Q 2772 3150 2772 3378 
Q 2772 3750 2511 3984 
Q 2250 4219 1831 4219 
Q 1534 4219 1204 4116 
Q 875 4013 500 3803 
L 500 4441 
Q 881 4594 1212 4672 
Q 1544 4750 1819 4750 
Q 2544 4750 2975 4387 
Q 3406 4025 3406 3419 
Q 3406 3131 3298 2873 
Q 3191 2616 2906 2266 
Q 2828 2175 2409 1742 
Q 1991 1309 1228 531 
z
" transform="scale(0.015625)"/>
        <path id="DejaVuSans-35" d="M 691 4666 
L 3169 4666 
L 3169 4134 
L 1269 4134 
L 1269 2991 
Q 1406 3038 1543 3061 
Q 1681 3084 1819 3084 
Q 2600 3084 3056 2656 
Q 3513 2228 3513 1497 
Q 3513 744 3044 326 
Q 2575 -91 1722 -91 
Q 1428 -91 1123 -41 
Q 819 9 494 109 
L 494 744 
Q 775 591 1075 516 
Q 1375 441 1709 441 
Q 2250 441 2565 725 
Q 2881 1009 2881 1497 
Q 2881 1984 2565 2268 
Q 2250 2553 1709 2553 
Q 1456 2553 1204 2497 
Q 953 2441 691 2322 
L 691 4666 
z
" transform="scale(0.015625)"/>
        <path id="DejaVuSans-20" transform="scale(0.015625)"/>
        <path id="DejaVuSans-4a" d="M 628 4666 
L 1259 4666 
L 1259 325 
Q 1259 -519 939 -900 
Q 619 -1281 -91 -1281 
L -331 -1281 
L -331 -750 
L -134 -750 
Q 284 -750 456 -515 
Q 628 -281 628 325 
L 628 4666 
z
" transform="scale(0.015625)"/>
        <path id="DejaVuSans-61" d="M 2194 1759 
Q 1497 1759 1228 1600 
Q 959 1441 959 1056 
Q 959 750 1161 570 
Q 1363 391 1709 391 
Q 2188 391 2477 730 
Q 2766 1069 2766 1631 
L 2766 1759 
L 2194 1759 
z
M 3341 1997 
L 3341 0 
L 2766 0 
L 2766 531 
Q 2569 213 2275 61 
Q 1981 -91 1556 -91 
Q 1019 -91 701 211 
Q 384 513 384 1019 
Q 384 1609 779 1909 
Q 1175 2209 1959 2209 
L 2766 2209 
L 2766 2266 
Q 2766 2663 2505 2880 
Q 2244 3097 1772 3097 
Q 1472 3097 1187 3025 
Q 903 2953 641 2809 
L 641 3341 
Q 956 3463 1253 3523 
Q 1550 3584 1831 3584 
Q 2591 3584 2966 3190 
Q 3341 2797 3341 1997 
z
" transform="scale(0.015625)"/>
        <path id="DejaVuSans-6e" d="M 3513 2113 
L 3513 0 
L 2938 0 
L 2938 2094 
Q 2938 2591 2744 2837 
Q 2550 3084 2163 3084 
Q 1697 3084 1428 2787 
Q 1159 2491 1159 1978 
L 1159 0 
L 581 0 
L 581 3500 
L 1159 3500 
L 1159 2956 
Q 1366 3272 1645 3428 
Q 1925 3584 2291 3584 
Q 2894 3584 3203 3211 
Q 3513 2838 3513 2113 
z
" transform="scale(0.015625)"/>
       </defs>
       <use xlink:href="#DejaVuSans-32"/>
       <use xlink:href="#DejaVuSans-35" x="63.623047"/>
       <use xlink:href="#DejaVuSans-20" x="127.246094"/>
       <use xlink:href="#DejaVuSans-4a" x="159.033203"/>
       <use xlink:href="#DejaVuSans-61" x="188.525391"/>
       <use xlink:href="#DejaVuSans-6e" x="249.804688"/>
      </g>
     </g>
    </g>
    <g id="xtick_2">
     <g id="line2d_2">
      <g>
       <use xlink:href="#mf9f443736b" x="210.777273" y="402.878437" style="stroke: #000000; stroke-width: 0.8"/>
      </g>
     </g>
     <g id="text_2">
      <!-- 1 Feb -->
      <g transform="translate(183.533523 431.575312) scale(0.2 -0.2)">
       <defs>
        <path id="DejaVuSans-31" d="M 794 531 
L 1825 531 
L 1825 4091 
L 703 3866 
L 703 4441 
L 1819 4666 
L 2450 4666 
L 2450 531 
L 3481 531 
L 3481 0 
L 794 0 
L 794 531 
z
" transform="scale(0.015625)"/>
        <path id="DejaVuSans-46" d="M 628 4666 
L 3309 4666 
L 3309 4134 
L 1259 4134 
L 1259 2759 
L 3109 2759 
L 3109 2228 
L 1259 2228 
L 1259 0 
L 628 0 
L 628 4666 
z
" transform="scale(0.015625)"/>
        <path id="DejaVuSans-65" d="M 3597 1894 
L 3597 1613 
L 953 1613 
Q 991 1019 1311 708 
Q 1631 397 2203 397 
Q 2534 397 2845 478 
Q 3156 559 3463 722 
L 3463 178 
Q 3153 47 2828 -22 
Q 2503 -91 2169 -91 
Q 1331 -91 842 396 
Q 353 884 353 1716 
Q 353 2575 817 3079 
Q 1281 3584 2069 3584 
Q 2775 3584 3186 3129 
Q 3597 2675 3597 1894 
z
M 3022 2063 
Q 3016 2534 2758 2815 
Q 2500 3097 2075 3097 
Q 1594 3097 1305 2825 
Q 1016 2553 972 2059 
L 3022 2063 
z
" transform="scale(0.015625)"/>
        <path id="DejaVuSans-62" d="M 3116 1747 
Q 3116 2381 2855 2742 
Q 2594 3103 2138 3103 
Q 1681 3103 1420 2742 
Q 1159 2381 1159 1747 
Q 1159 1113 1420 752 
Q 1681 391 2138 391 
Q 2594 391 2855 752 
Q 3116 1113 3116 1747 
z
M 1159 2969 
Q 1341 3281 1617 3432 
Q 1894 3584 2278 3584 
Q 2916 3584 3314 3078 
Q 3713 2572 3713 1747 
Q 3713 922 3314 415 
Q 2916 -91 2278 -91 
Q 1894 -91 1617 61 
Q 1341 213 1159 525 
L 1159 0 
L 581 0 
L 581 4863 
L 1159 4863 
L 1159 2969 
z
" transform="scale(0.015625)"/>
       </defs>
       <use xlink:href="#DejaVuSans-31"/>
       <use xlink:href="#DejaVuSans-20" x="63.623047"/>
       <use xlink:href="#DejaVuSans-46" x="95.410156"/>
       <use xlink:href="#DejaVuSans-65" x="147.429688"/>
       <use xlink:href="#DejaVuSans-62" x="208.953125"/>
      </g>
     </g>
    </g>
    <g id="xtick_3">
     <g id="line2d_3">
      <g>
       <use xlink:href="#mf9f443736b" x="517.254545" y="402.878437" style="stroke: #000000; stroke-width: 0.8"/>
      </g>
     </g>
     <g id="text_3">
      <!-- 1 Mar -->
      <g transform="translate(488.846733 431.575312) scale(0.2 -0.2)">
       <defs>
        <path id="DejaVuSans-4d" d="M 628 4666 
L 1569 4666 
L 2759 1491 
L 3956 4666 
L 4897 4666 
L 4897 0 
L 4281 0 
L 4281 4097 
L 3078 897 
L 2444 897 
L 1241 4097 
L 1241 0 
L 628 0 
L 628 4666 
z
" transform="scale(0.015625)"/>
        <path id="DejaVuSans-72" d="M 2631 2963 
Q 2534 3019 2420 3045 
Q 2306 3072 2169 3072 
Q 1681 3072 1420 2755 
Q 1159 2438 1159 1844 
L 1159 0 
L 581 0 
L 581 3500 
L 1159 3500 
L 1159 2956 
Q 1341 3275 1631 3429 
Q 1922 3584 2338 3584 
Q 2397 3584 2469 3576 
Q 2541 3569 2628 3553 
L 2631 2963 
z
" transform="scale(0.015625)"/>
       </defs>
       <use xlink:href="#DejaVuSans-31"/>
       <use xlink:href="#DejaVuSans-20" x="63.623047"/>
       <use xlink:href="#DejaVuSans-4d" x="95.410156"/>
       <use xlink:href="#DejaVuSans-61" x="181.689453"/>
       <use xlink:href="#DejaVuSans-72" x="242.96875"/>
      </g>
     </g>
    </g>
    <g id="text_4">
     <!-- Time -->
     <g transform="translate(302.560085 460.931562) scale(0.2 -0.2)">
      <defs>
       <path id="DejaVuSans-54" d="M -19 4666 
L 3928 4666 
L 3928 4134 
L 2272 4134 
L 2272 0 
L 1638 0 
L 1638 4134 
L -19 4134 
L -19 4666 
z
" transform="scale(0.015625)"/>
       <path id="DejaVuSans-69" d="M 603 3500 
L 1178 3500 
L 1178 0 
L 603 0 
L 603 3500 
z
M 603 4863 
L 1178 4863 
L 1178 4134 
L 603 4134 
L 603 4863 
z
" transform="scale(0.015625)"/>
       <path id="DejaVuSans-6d" d="M 3328 2828 
Q 3544 3216 3844 3400 
Q 4144 3584 4550 3584 
Q 5097 3584 5394 3201 
Q 5691 2819 5691 2113 
L 5691 0 
L 5113 0 
L 5113 2094 
Q 5113 2597 4934 2840 
Q 4756 3084 4391 3084 
Q 3944 3084 3684 2787 
Q 3425 2491 3425 1978 
L 3425 0 
L 2847 0 
L 2847 2094 
Q 2847 2600 2669 2842 
Q 2491 3084 2119 3084 
Q 1678 3084 1418 2786 
Q 1159 2488 1159 1978 
L 1159 0 
L 581 0 
L 581 3500 
L 1159 3500 
L 1159 2956 
Q 1356 3278 1631 3431 
Q 1906 3584 2284 3584 
Q 2666 3584 2933 3390 
Q 3200 3197 3328 2828 
z
" transform="scale(0.015625)"/>
      </defs>
      <use xlink:href="#DejaVuSans-54"/>
      <use xlink:href="#DejaVuSans-69" x="57.958984"/>
      <use xlink:href="#DejaVuSans-6d" x="85.742188"/>
      <use xlink:href="#DejaVuSans-65" x="183.154297"/>
     </g>
    </g>
   </g>
   <g id="matplotlib.axis_2">
    <g id="ytick_1">
     <g id="line2d_4">
      <defs>
       <path id="mb8fb10d4c3" d="M 0 0 
L -3.5 0 
" style="stroke: #000000; stroke-width: 0.8"/>
      </defs>
      <g>
       <use xlink:href="#mb8fb10d4c3" x="136.8" y="402.878437" style="stroke: #000000; stroke-width: 0.8"/>
      </g>
     </g>
     <g id="text_5">
      <!-- 0 -->
      <g transform="translate(110.575 410.476875) scale(0.2 -0.2)">
       <defs>
        <path id="DejaVuSans-30" d="M 2034 4250 
Q 1547 4250 1301 3770 
Q 1056 3291 1056 2328 
Q 1056 1369 1301 889 
Q 1547 409 2034 409 
Q 2525 409 2770 889 
Q 3016 1369 3016 2328 
Q 3016 3291 2770 3770 
Q 2525 4250 2034 4250 
z
M 2034 4750 
Q 2819 4750 3233 4129 
Q 3647 3509 3647 2328 
Q 3647 1150 3233 529 
Q 2819 -91 2034 -91 
Q 1250 -91 836 529 
Q 422 1150 422 2328 
Q 422 3509 836 4129 
Q 1250 4750 2034 4750 
z
" transform="scale(0.015625)"/>
       </defs>
       <use xlink:href="#DejaVuSans-30"/>
      </g>
     </g>
    </g>
    <g id="ytick_2">
     <g id="line2d_5">
      <g>
       <use xlink:href="#mb8fb10d4c3" x="136.8" y="305.858437" style="stroke: #000000; stroke-width: 0.8"/>
      </g>
     </g>
     <g id="text_6">
      <!-- 1000 -->
      <g transform="translate(72.4 313.456875) scale(0.2 -0.2)">
       <use xlink:href="#DejaVuSans-31"/>
       <use xlink:href="#DejaVuSans-30" x="63.623047"/>
       <use xlink:href="#DejaVuSans-30" x="127.246094"/>
       <use xlink:href="#DejaVuSans-30" x="190.869141"/>
      </g>
     </g>
    </g>
    <g id="ytick_3">
     <g id="line2d_6">
      <g>
       <use xlink:href="#mb8fb10d4c3" x="136.8" y="208.838437" style="stroke: #000000; stroke-width: 0.8"/>
      </g>
     </g>
     <g id="text_7">
      <!-- 2000 -->
      <g transform="translate(72.4 216.436875) scale(0.2 -0.2)">
       <use xlink:href="#DejaVuSans-32"/>
       <use xlink:href="#DejaVuSans-30" x="63.623047"/>
       <use xlink:href="#DejaVuSans-30" x="127.246094"/>
       <use xlink:href="#DejaVuSans-30" x="190.869141"/>
      </g>
     </g>
    </g>
    <g id="ytick_4">
     <g id="line2d_7">
      <g>
       <use xlink:href="#mb8fb10d4c3" x="136.8" y="111.818437" style="stroke: #000000; stroke-width: 0.8"/>
      </g>
     </g>
     <g id="text_8">
      <!-- 3000 -->
      <g transform="translate(72.4 119.416875) scale(0.2 -0.2)">
       <defs>
        <path id="DejaVuSans-33" d="M 2597 2516 
Q 3050 2419 3304 2112 
Q 3559 1806 3559 1356 
Q 3559 666 3084 287 
Q 2609 -91 1734 -91 
Q 1441 -91 1130 -33 
Q 819 25 488 141 
L 488 750 
Q 750 597 1062 519 
Q 1375 441 1716 441 
Q 2309 441 2620 675 
Q 2931 909 2931 1356 
Q 2931 1769 2642 2001 
Q 2353 2234 1838 2234 
L 1294 2234 
L 1294 2753 
L 1863 2753 
Q 2328 2753 2575 2939 
Q 2822 3125 2822 3475 
Q 2822 3834 2567 4026 
Q 2313 4219 1838 4219 
Q 1578 4219 1281 4162 
Q 984 4106 628 3988 
L 628 4550 
Q 988 4650 1302 4700 
Q 1616 4750 1894 4750 
Q 2613 4750 3031 4423 
Q 3450 4097 3450 3541 
Q 3450 3153 3228 2886 
Q 3006 2619 2597 2516 
z
" transform="scale(0.015625)"/>
       </defs>
       <use xlink:href="#DejaVuSans-33"/>
       <use xlink:href="#DejaVuSans-30" x="63.623047"/>
       <use xlink:href="#DejaVuSans-30" x="127.246094"/>
       <use xlink:href="#DejaVuSans-30" x="190.869141"/>
      </g>
     </g>
    </g>
    <g id="ytick_5">
     <g id="line2d_8">
      <g>
       <use xlink:href="#mb8fb10d4c3" x="136.8" y="14.798437" style="stroke: #000000; stroke-width: 0.8"/>
      </g>
     </g>
     <g id="text_9">
      <!-- 4000 -->
      <g transform="translate(72.4 22.396875) scale(0.2 -0.2)">
       <defs>
        <path id="DejaVuSans-34" d="M 2419 4116 
L 825 1625 
L 2419 1625 
L 2419 4116 
z
M 2253 4666 
L 3047 4666 
L 3047 1625 
L 3713 1625 
L 3713 1100 
L 3047 1100 
L 3047 0 
L 2419 0 
L 2419 1100 
L 313 1100 
L 313 1709 
L 2253 4666 
z
" transform="scale(0.015625)"/>
       </defs>
       <use xlink:href="#DejaVuSans-34"/>
       <use xlink:href="#DejaVuSans-30" x="63.623047"/>
       <use xlink:href="#DejaVuSans-30" x="127.246094"/>
       <use xlink:href="#DejaVuSans-30" x="190.869141"/>
      </g>
     </g>
    </g>
    <g id="text_10">
     <!-- Count -->
     <g transform="translate(58.240625 238.535312) rotate(-90) scale(0.2 -0.2)">
      <defs>
       <path id="DejaVuSans-43" d="M 4122 4306 
L 4122 3641 
Q 3803 3938 3442 4084 
Q 3081 4231 2675 4231 
Q 1875 4231 1450 3742 
Q 1025 3253 1025 2328 
Q 1025 1406 1450 917 
Q 1875 428 2675 428 
Q 3081 428 3442 575 
Q 3803 722 4122 1019 
L 4122 359 
Q 3791 134 3420 21 
Q 3050 -91 2638 -91 
Q 1578 -91 968 557 
Q 359 1206 359 2328 
Q 359 3453 968 4101 
Q 1578 4750 2638 4750 
Q 3056 4750 3426 4639 
Q 3797 4528 4122 4306 
z
" transform="scale(0.015625)"/>
       <path id="DejaVuSans-6f" d="M 1959 3097 
Q 1497 3097 1228 2736 
Q 959 2375 959 1747 
Q 959 1119 1226 758 
Q 1494 397 1959 397 
Q 2419 397 2687 759 
Q 2956 1122 2956 1747 
Q 2956 2369 2687 2733 
Q 2419 3097 1959 3097 
z
M 1959 3584 
Q 2709 3584 3137 3096 
Q 3566 2609 3566 1747 
Q 3566 888 3137 398 
Q 2709 -91 1959 -91 
Q 1206 -91 779 398 
Q 353 888 353 1747 
Q 353 2609 779 3096 
Q 1206 3584 1959 3584 
z
" transform="scale(0.015625)"/>
       <path id="DejaVuSans-75" d="M 544 1381 
L 544 3500 
L 1119 3500 
L 1119 1403 
Q 1119 906 1312 657 
Q 1506 409 1894 409 
Q 2359 409 2629 706 
Q 2900 1003 2900 1516 
L 2900 3500 
L 3475 3500 
L 3475 0 
L 2900 0 
L 2900 538 
Q 2691 219 2414 64 
Q 2138 -91 1772 -91 
Q 1169 -91 856 284 
Q 544 659 544 1381 
z
M 1991 3584 
L 1991 3584 
z
" transform="scale(0.015625)"/>
       <path id="DejaVuSans-74" d="M 1172 4494 
L 1172 3500 
L 2356 3500 
L 2356 3053 
L 1172 3053 
L 1172 1153 
Q 1172 725 1289 603 
Q 1406 481 1766 481 
L 2356 481 
L 2356 0 
L 1766 0 
Q 1100 0 847 248 
Q 594 497 594 1153 
L 594 3053 
L 172 3053 
L 172 3500 
L 594 3500 
L 594 4494 
L 1172 4494 
z
" transform="scale(0.015625)"/>
      </defs>
      <use xlink:href="#DejaVuSans-43"/>
      <use xlink:href="#DejaVuSans-6f" x="69.824219"/>
      <use xlink:href="#DejaVuSans-75" x="131.005859"/>
      <use xlink:href="#DejaVuSans-6e" x="194.384766"/>
      <use xlink:href="#DejaVuSans-74" x="257.763672"/>
     </g>
    </g>
   </g>
   <g id="line2d_9">
    <path d="M 187.431866 402.878437 
L 187.864042 385.123777 
L 188.183335 383.183377 
L 188.733616 382.407217 
L 189.174787 381.728077 
L 189.614708 381.437017 
L 192.501527 381.339997 
L 192.69471 381.145957 
L 194.016612 381.048937 
L 194.347957 380.563837 
L 196.505963 380.466817 
L 196.585679 380.369797 
L 197.024601 380.369797 
L 197.765686 379.981717 
L 198.344867 379.884697 
L 198.786319 379.593637 
L 200.117499 379.011517 
L 202.169465 378.914497 
L 202.751494 378.623437 
L 204.332232 378.526417 
L 204.510734 378.429397 
L 205.170569 378.235357 
L 205.391027 377.944297 
L 206.562782 377.653237 
L 206.712333 377.459197 
L 208.03363 377.071117 
L 208.473683 376.974097 
L 208.914992 376.586017 
L 209.25157 376.488997 
L 209.355864 376.391977 
L 209.683943 375.809857 
L 209.794895 375.712837 
L 210.463263 375.615817 
L 210.572028 375.518797 
L 216.839374 375.421777 
L 217.280766 375.324757 
L 218.894677 375.227737 
L 219.043216 374.936677 
L 219.381266 286.939537 
L 219.490761 277.334557 
L 219.930155 259.676917 
L 219.930155 259.676917 
L 220.810192 246.191137 
L 221.251098 244.153717 
L 225.562372 235.809997 
L 225.655714 235.324897 
L 226.535533 233.093437 
L 227.233815 230.473897 
L 227.418518 229.891777 
L 227.781908 229.309657 
L 227.868666 229.018597 
L 228.592833 227.660317 
L 228.736851 227.369257 
L 229.176949 226.302037 
L 229.619209 225.137797 
L 230.057749 222.809317 
L 230.830385 219.510637 
L 231.379651 218.637457 
L 231.818437 218.540437 
L 232.066228 218.249377 
L 233.500286 217.958317 
L 233.951837 217.861297 
L 234.037359 217.764277 
L 235.123274 217.667257 
L 235.620763 217.376197 
L 235.804447 217.376197 
L 236.222222 216.600037 
L 236.504889 216.114937 
L 236.87125 216.017917 
L 237.105247 215.726857 
L 237.503716 215.241757 
L 238.441855 213.204337 
L 238.662845 213.107317 
L 239.576164 211.457977 
L 239.670403 211.457977 
L 239.756272 211.069897 
L 240.028885 210.972877 
L 240.389001 210.487777 
L 240.627102 210.487777 
L 241.087031 209.808637 
L 241.508669 209.517577 
L 242.189904 209.420557 
L 242.390524 209.323537 
L 243.081148 209.226517 
L 243.403244 208.935457 
L 246.197544 208.838437 
L 246.585106 208.450357 
L 247.233313 208.450357 
L 247.574439 207.868237 
L 248.068559 207.771217 
L 248.375371 207.577177 
L 248.553211 206.995057 
L 249.725541 206.509957 
L 249.876175 206.315917 
L 250.325643 205.054657 
L 251.43256 203.405317 
L 251.965902 202.920217 
L 252.078279 202.920217 
L 252.439537 202.435117 
L 252.524512 202.435117 
L 252.869324 202.144057 
L 252.954982 202.144057 
L 254.301145 201.852997 
L 255.15966 201.755977 
L 257.170651 201.173857 
L 257.270032 201.173857 
L 257.360174 200.979817 
L 257.801231 200.591737 
L 258.134831 200.397697 
L 258.242381 200.203657 
L 259.122318 200.106637 
L 259.451253 199.912597 
L 260.311958 199.233457 
L 260.527972 198.748357 
L 260.809055 198.651337 
L 260.893949 198.554317 
L 261.189301 197.972197 
L 261.543346 197.875177 
L 261.654797 197.681137 
L 262.02221 197.584117 
L 262.466246 196.807957 
L 262.642932 196.710937 
L 262.942721 196.128817 
L 263.438145 196.031797 
L 263.527148 195.837757 
L 266.462877 195.740737 
L 266.834575 195.352657 
L 268.368196 195.255637 
L 268.80933 195.158617 
L 269.243879 195.061597 
L 269.698294 194.867557 
L 269.973367 194.867557 
L 270.132832 194.382457 
L 270.483664 194.285437 
L 270.572605 194.382457 
L 271.897046 193.509277 
L 272.334564 193.024177 
L 273.211719 192.636097 
L 273.651046 192.345037 
L 274.09295 192.150997 
L 277.026933 191.762917 
L 277.174936 191.568877 
L 277.61659 191.568877 
L 278.055384 191.374837 
L 278.497815 191.277817 
L 279.377673 191.180797 
L 280.619905 190.695697 
L 280.944145 190.598677 
L 281.144172 190.307617 
L 281.579836 190.307617 
L 282.308375 189.434437 
L 282.462136 189.434437 
L 282.899253 188.949337 
L 283.145093 188.949337 
L 283.339448 188.658277 
L 283.673016 188.464237 
L 284.661339 188.367217 
L 285.984409 188.173177 
L 288.624946 188.076157 
L 289.838533 187.591057 
L 289.94588 187.397017 
L 290.647436 187.299997 
L 290.8298 187.202977 
L 291.519938 186.814897 
L 292.151221 186.717877 
L 292.711205 186.426817 
L 293.026727 185.941717 
L 293.714382 184.874497 
L 293.908771 184.777477 
L 294.24412 184.389397 
L 294.35223 184.292377 
L 294.712584 184.195357 
L 295.135963 183.807277 
L 298.645383 183.710257 
L 298.75165 183.613237 
L 299.633294 183.419197 
L 299.933989 183.322177 
L 300.07183 183.128137 
L 300.512852 183.128137 
L 300.926695 182.546017 
L 301.756831 182.351977 
L 301.843562 182.351977 
L 302.273861 181.963897 
L 302.591399 181.963897 
L 302.716301 181.769857 
L 303.082254 181.381777 
L 303.170685 181.284757 
L 303.445285 181.284757 
L 303.929424 180.799657 
L 305.21603 180.702637 
L 305.597163 180.508597 
L 309.321346 180.411577 
L 309.764083 180.314557 
L 310.201732 180.217537 
L 311.080638 179.732437 
L 311.963319 179.732437 
L 312.413567 179.538397 
L 312.845005 179.538397 
L 313.282476 179.344357 
L 314.6038 178.762237 
L 315.376091 178.180117 
L 315.48699 177.889057 
L 316.368062 177.597997 
L 317.067782 177.500977 
L 317.939657 177.306937 
L 318.41579 177.209917 
L 318.568706 177.112897 
L 321.420734 177.015877 
L 322.047023 176.433757 
L 322.975674 175.657597 
L 323.318695 175.463557 
L 323.410507 175.172497 
L 323.85469 174.881437 
L 324.574612 174.784417 
L 325.174585 173.717197 
L 325.94326 173.426137 
L 326.053843 173.135077 
L 326.501859 172.649977 
L 326.829474 172.455937 
L 330.458719 172.358917 
L 331.660835 171.873817 
L 331.77941 171.776797 
L 332.666651 171.776797 
L 333.11038 171.582757 
L 333.380988 171.582757 
L 333.540115 171.388717 
L 333.981251 171.388717 
L 334.4213 171.000637 
L 335.301843 170.127457 
L 335.541839 170.030437 
L 335.73998 169.642357 
L 335.988522 169.642357 
L 336.183088 169.448317 
L 336.913229 168.866197 
L 337.063013 168.866197 
L 337.503251 168.478117 
L 339.267841 168.381097 
L 339.267841 168.381097 
" clip-path="url(#pe279f20f3e)" style="fill: none; stroke: #005953; stroke-width: 2; stroke-linecap: square"/>
   </g>
   <g id="line2d_10">
    <path d="M 187.431866 402.878437 
L 197.322927 402.878437 
L 197.9051 402.199297 
L 198.235124 402.102277 
L 198.344867 401.811217 
L 198.676921 401.423137 
L 198.786319 400.743997 
L 199.228098 400.064857 
L 199.668442 399.482737 
L 200.117499 399.385717 
L 201.428852 399.191677 
L 202.600071 399.094657 
L 202.751494 398.900617 
L 203.426909 398.900617 
L 203.63149 398.706577 
L 204.952574 398.318497 
L 206.712333 398.221477 
L 207.05634 397.154257 
L 207.153268 397.057237 
L 207.86612 396.766177 
L 208.675892 395.892997 
L 208.914992 395.795977 
L 209.25157 395.601937 
L 209.355864 395.601937 
L 209.683943 395.310877 
L 209.794895 395.310877 
L 210.233728 395.116837 
L 215.00406 395.019817 
L 215.082562 394.922797 
L 217.280766 394.825777 
L 217.722955 394.728757 
L 218.042695 393.564517 
L 218.601728 393.564517 
L 219.84849 392.788357 
L 219.930155 392.303257 
L 219.930155 392.303257 
L 220.371147 383.668477 
L 220.810192 376.488997 
L 221.150027 374.645617 
L 221.251098 374.451577 
L 225.487649 360.577717 
L 225.655714 356.599897 
L 226.097056 355.338637 
L 226.535533 353.301217 
L 227.694569 347.480017 
L 227.868666 346.994917 
L 228.224961 344.860477 
L 228.312779 344.763457 
L 228.592833 344.084317 
L 229.038796 342.143917 
L 229.176949 342.046897 
L 229.619209 339.912457 
L 230.304522 337.389937 
L 230.49763 337.001857 
L 230.830385 335.643577 
L 230.93881 335.643577 
L 231.613078 334.479337 
L 231.818437 334.479337 
L 232.066228 334.285297 
L 232.978402 334.188277 
L 233.153227 334.091257 
L 235.344756 333.994237 
L 235.804447 333.800197 
L 236.222222 332.927017 
L 236.995578 332.053837 
L 237.105247 332.053837 
L 239.307075 330.016417 
L 239.670403 329.240257 
L 240.185045 328.755157 
L 240.516083 328.658137 
L 241.508669 327.687937 
L 242.189904 327.590917 
L 242.390524 327.493897 
L 244.536457 327.299857 
L 245.910323 327.202837 
L 246.585106 326.620717 
L 247.081208 326.523697 
L 247.434407 326.426677 
L 247.674381 325.941577 
L 248.068559 325.165417 
L 248.553211 324.777337 
L 248.895529 324.486277 
L 249.236453 324.389257 
L 249.32854 324.292237 
L 249.436085 324.389257 
L 250.141428 323.419057 
L 250.24126 323.322037 
L 250.325643 322.933957 
L 250.618045 322.642897 
L 250.965148 321.769717 
L 251.088341 321.672697 
L 251.196473 321.381637 
L 251.43256 321.187597 
L 251.633397 320.799517 
L 252.078279 320.120377 
L 252.749633 320.023357 
L 252.954982 319.926337 
L 256.037976 319.635277 
L 256.37296 319.441237 
L 256.772363 319.441237 
L 256.921233 319.247197 
L 257.801231 318.859117 
L 258.242381 318.568057 
L 258.684939 317.791897 
L 259.451253 317.597857 
L 260.311958 317.500837 
L 260.809055 302.947837 
L 261.322877 302.268697 
L 261.763288 301.492537 
L 262.432572 300.910417 
L 262.466246 300.716377 
L 262.642932 300.619357 
L 263.338747 299.843197 
L 264.845487 299.746177 
L 265.289102 299.649157 
L 266.606265 299.649157 
L 266.939601 299.358097 
L 267.490222 299.261077 
L 268.24506 298.872997 
L 268.368196 298.678957 
L 268.80933 298.678957 
L 269.243879 298.290877 
L 269.698294 298.193857 
L 269.973367 298.096837 
L 270.132832 297.514717 
L 270.483664 290.917357 
L 270.572605 290.917357 
L 271.363904 290.335237 
L 271.451866 289.947157 
L 271.897046 289.559077 
L 272.247202 288.976957 
L 272.334564 288.976957 
L 273.211719 288.394837 
L 273.893822 288.394837 
L 274.09295 288.200797 
L 277.61659 288.103777 
L 278.055384 287.909737 
L 279.269774 287.327617 
L 279.377673 287.230597 
L 280.709157 286.842517 
L 281.144172 286.745497 
L 281.579836 282.961717 
L 281.944511 282.573637 
L 282.462136 281.603437 
L 282.791716 281.409397 
L 282.899253 281.409397 
L 283.145093 281.118337 
L 283.339448 280.730257 
L 283.779059 280.245157 
L 284.661339 280.148137 
L 285.984409 279.954097 
L 287.743474 279.857077 
L 288.185758 279.663037 
L 288.468499 279.371977 
L 289.063916 279.274957 
L 289.94588 278.789857 
L 290.368755 276.558397 
L 290.8298 276.461377 
L 291.283767 276.461377 
L 291.634599 276.267337 
L 292.151221 276.170317 
L 292.432717 275.685217 
L 292.711205 275.685217 
L 293.026727 274.715017 
L 293.46912 274.229917 
L 293.804703 273.356737 
L 293.908771 273.356737 
L 294.24412 272.774617 
L 294.35223 272.677597 
L 294.626855 272.580577 
L 294.798539 272.386537 
L 295.439612 272.289517 
L 296.989116 272.192497 
L 297.877322 272.095477 
L 298.311633 271.998457 
L 298.645383 271.513357 
L 299.528024 271.416337 
L 299.633294 270.543157 
L 300.405123 268.990837 
L 300.926695 268.602757 
L 301.400668 268.408717 
L 302.170757 267.729577 
L 302.273861 267.632557 
L 302.716301 266.856397 
L 303.170685 266.662357 
L 304.704497 265.110037 
L 307.469059 265.013017 
L 307.558906 264.818977 
L 309.321346 264.721957 
L 309.764083 264.624937 
L 310.201732 264.624937 
L 310.840902 264.042817 
L 311.080638 264.042817 
L 311.867348 263.751757 
L 311.963319 263.751757 
L 312.413567 263.557717 
L 312.845005 263.557717 
L 313.736247 262.975597 
L 314.182477 262.005397 
L 314.936258 261.035197 
L 315.046707 260.841157 
L 315.376091 260.744137 
L 315.930022 260.356057 
L 316.368062 260.356057 
L 317.067782 260.064997 
L 318.568706 259.967977 
L 318.941347 259.773937 
L 320.554035 259.773937 
L 320.771547 259.191817 
L 321.065791 258.997777 
L 321.209519 258.706717 
L 322.047023 258.415657 
L 322.532504 258.221617 
L 322.88786 257.930557 
L 323.228381 257.833537 
L 323.410507 257.639497 
L 323.85469 257.445457 
L 324.296316 257.348437 
L 324.574612 256.960357 
L 324.732241 256.960357 
L 325.063706 256.669297 
L 325.174585 256.669297 
L 325.536606 256.475257 
L 326.053843 256.378237 
L 326.740121 255.990157 
L 326.93587 255.990157 
L 328.275393 255.505057 
L 328.986579 255.505057 
L 329.137798 255.116977 
L 330.897691 255.019957 
L 331.348723 254.922937 
L 331.77941 248.713657 
L 332.111394 248.519617 
L 332.218567 248.519617 
L 332.666651 247.452397 
L 333.794285 246.967297 
L 333.895577 246.870277 
L 333.981251 246.579217 
L 334.860563 245.220937 
L 335.73998 244.056697 
L 336.620641 243.668617 
L 337.063013 242.989477 
L 337.503251 242.989477 
L 338.823476 242.795437 
L 339.267841 242.795437 
L 339.267841 242.795437 
" clip-path="url(#pe279f20f3e)" style="fill: none; stroke: #69a3a2; stroke-width: 2; stroke-linecap: square"/>
   </g>
   <g id="LineCollection_1">
    <path d="M -1 402.878437 
L 1007.45 402.878437 
" clip-path="url(#pe279f20f3e)" style="fill: none; stroke: #d3d3d3; stroke-width: 0.5"/>
    <path d="M -1 305.858437 
L 1007.45 305.858437 
" clip-path="url(#pe279f20f3e)" style="fill: none; stroke: #d3d3d3; stroke-width: 0.5"/>
    <path d="M -1 208.838437 
L 1007.45 208.838437 
" clip-path="url(#pe279f20f3e)" style="fill: none; stroke: #d3d3d3; stroke-width: 0.5"/>
    <path d="M -1 111.818437 
L 1007.45 111.818437 
" clip-path="url(#pe279f20f3e)" style="fill: none; stroke: #d3d3d3; stroke-width: 0.5"/>
    <path d="M -1 14.798437 
L 1007.45 14.798437 
" clip-path="url(#pe279f20f3e)" style="fill: none; stroke: #d3d3d3; stroke-width: 0.5"/>
    <path clip-path="url(#pe279f20f3e)" style="fill: none; stroke: #d3d3d3; stroke-width: 0.5"/>
    <path clip-path="url(#pe279f20f3e)" style="fill: none; stroke: #d3d3d3; stroke-width: 0.5"/>
    <path clip-path="url(#pe279f20f3e)" style="fill: none; stroke: #d3d3d3; stroke-width: 0.5"/>
    <path clip-path="url(#pe279f20f3e)" style="fill: none; stroke: #d3d3d3; stroke-width: 0.5"/>
    <path clip-path="url(#pe279f20f3e)" style="fill: none; stroke: #d3d3d3; stroke-width: 0.5"/>
    <path clip-path="url(#pe279f20f3e)" style="fill: none; stroke: #d3d3d3; stroke-width: 0.5"/>
    <path clip-path="url(#pe279f20f3e)" style="fill: none; stroke: #d3d3d3; stroke-width: 0.5"/>
    <path clip-path="url(#pe279f20f3e)" style="fill: none; stroke: #d3d3d3; stroke-width: 0.5"/>
    <path clip-path="url(#pe279f20f3e)" style="fill: none; stroke: #d3d3d3; stroke-width: 0.5"/>
    <path clip-path="url(#pe279f20f3e)" style="fill: none; stroke: #d3d3d3; stroke-width: 0.5"/>
    <path clip-path="url(#pe279f20f3e)" style="fill: none; stroke: #d3d3d3; stroke-width: 0.5"/>
    <path clip-path="url(#pe279f20f3e)" style="fill: none; stroke: #d3d3d3; stroke-width: 0.5"/>
    <path clip-path="url(#pe279f20f3e)" style="fill: none; stroke: #d3d3d3; stroke-width: 0.5"/>
    <path clip-path="url(#pe279f20f3e)" style="fill: none; stroke: #d3d3d3; stroke-width: 0.5"/>
    <path clip-path="url(#pe279f20f3e)" style="fill: none; stroke: #d3d3d3; stroke-width: 0.5"/>
    <path clip-path="url(#pe279f20f3e)" style="fill: none; stroke: #d3d3d3; stroke-width: 0.5"/>
    <path clip-path="url(#pe279f20f3e)" style="fill: none; stroke: #d3d3d3; stroke-width: 0.5"/>
    <path clip-path="url(#pe279f20f3e)" style="fill: none; stroke: #d3d3d3; stroke-width: 0.5"/>
    <path clip-path="url(#pe279f20f3e)" style="fill: none; stroke: #d3d3d3; stroke-width: 0.5"/>
    <path clip-path="url(#pe279f20f3e)" style="fill: none; stroke: #d3d3d3; stroke-width: 0.5"/>
    <path clip-path="url(#pe279f20f3e)" style="fill: none; stroke: #d3d3d3; stroke-width: 0.5"/>
    <path clip-path="url(#pe279f20f3e)" style="fill: none; stroke: #d3d3d3; stroke-width: 0.5"/>
    <path clip-path="url(#pe279f20f3e)" style="fill: none; stroke: #d3d3d3; stroke-width: 0.5"/>
    <path clip-path="url(#pe279f20f3e)" style="fill: none; stroke: #d3d3d3; stroke-width: 0.5"/>
    <path clip-path="url(#pe279f20f3e)" style="fill: none; stroke: #d3d3d3; stroke-width: 0.5"/>
    <path clip-path="url(#pe279f20f3e)" style="fill: none; stroke: #d3d3d3; stroke-width: 0.5"/>
    <path clip-path="url(#pe279f20f3e)" style="fill: none; stroke: #d3d3d3; stroke-width: 0.5"/>
    <path clip-path="url(#pe279f20f3e)" style="fill: none; stroke: #d3d3d3; stroke-width: 0.5"/>
    <path clip-path="url(#pe279f20f3e)" style="fill: none; stroke: #d3d3d3; stroke-width: 0.5"/>
    <path clip-path="url(#pe279f20f3e)" style="fill: none; stroke: #d3d3d3; stroke-width: 0.5"/>
    <path clip-path="url(#pe279f20f3e)" style="fill: none; stroke: #d3d3d3; stroke-width: 0.5"/>
    <path clip-path="url(#pe279f20f3e)" style="fill: none; stroke: #d3d3d3; stroke-width: 0.5"/>
    <path clip-path="url(#pe279f20f3e)" style="fill: none; stroke: #d3d3d3; stroke-width: 0.5"/>
    <path clip-path="url(#pe279f20f3e)" style="fill: none; stroke: #d3d3d3; stroke-width: 0.5"/>
    <path clip-path="url(#pe279f20f3e)" style="fill: none; stroke: #d3d3d3; stroke-width: 0.5"/>
    <path clip-path="url(#pe279f20f3e)" style="fill: none; stroke: #d3d3d3; stroke-width: 0.5"/>
    <path clip-path="url(#pe279f20f3e)" style="fill: none; stroke: #d3d3d3; stroke-width: 0.5"/>
    <path clip-path="url(#pe279f20f3e)" style="fill: none; stroke: #d3d3d3; stroke-width: 0.5"/>
    <path clip-path="url(#pe279f20f3e)" style="fill: none; stroke: #d3d3d3; stroke-width: 0.5"/>
    <path clip-path="url(#pe279f20f3e)" style="fill: none; stroke: #d3d3d3; stroke-width: 0.5"/>
    <path clip-path="url(#pe279f20f3e)" style="fill: none; stroke: #d3d3d3; stroke-width: 0.5"/>
    <path clip-path="url(#pe279f20f3e)" style="fill: none; stroke: #d3d3d3; stroke-width: 0.5"/>
    <path clip-path="url(#pe279f20f3e)" style="fill: none; stroke: #d3d3d3; stroke-width: 0.5"/>
    <path clip-path="url(#pe279f20f3e)" style="fill: none; stroke: #d3d3d3; stroke-width: 0.5"/>
    <path clip-path="url(#pe279f20f3e)" style="fill: none; stroke: #d3d3d3; stroke-width: 0.5"/>
   </g>
   <g id="patch_3">
    <path d="M 136.8 402.878437 
L 136.8 14.798437 
" style="fill: none; stroke: #000000; stroke-width: 0.8; stroke-linejoin: miter; stroke-linecap: square"/>
   </g>
   <g id="patch_4">
    <path d="M 517.254545 402.878437 
L 517.254545 14.798437 
" style="fill: none; stroke: #000000; stroke-width: 0.8; stroke-linejoin: miter; stroke-linecap: square"/>
   </g>
   <g id="patch_5">
    <path d="M 136.8 402.878437 
L 517.254545 402.878437 
" style="fill: none; stroke: #000000; stroke-width: 0.8; stroke-linejoin: miter; stroke-linecap: square"/>
   </g>
   <g id="patch_6">
    <path d="M 136.8 14.798437 
L 517.254545 14.798437 
" style="fill: none; stroke: #000000; stroke-width: 0.8; stroke-linejoin: miter; stroke-linecap: square"/>
   </g>
   <g id="text_11">
    <!-- 2417 total regs (1650 paid). -->
    <g transform="translate(138.702273 400.938037) scale(0.066667 -0.066667)">
     <defs>
      <path id="DejaVuSans-37" d="M 525 4666 
L 3525 4666 
L 3525 4397 
L 1831 0 
L 1172 0 
L 2766 4134 
L 525 4134 
L 525 4666 
z
" transform="scale(0.015625)"/>
      <path id="DejaVuSans-6c" d="M 603 4863 
L 1178 4863 
L 1178 0 
L 603 0 
L 603 4863 
z
" transform="scale(0.015625)"/>
      <path id="DejaVuSans-67" d="M 2906 1791 
Q 2906 2416 2648 2759 
Q 2391 3103 1925 3103 
Q 1463 3103 1205 2759 
Q 947 2416 947 1791 
Q 947 1169 1205 825 
Q 1463 481 1925 481 
Q 2391 481 2648 825 
Q 2906 1169 2906 1791 
z
M 3481 434 
Q 3481 -459 3084 -895 
Q 2688 -1331 1869 -1331 
Q 1566 -1331 1297 -1286 
Q 1028 -1241 775 -1147 
L 775 -588 
Q 1028 -725 1275 -790 
Q 1522 -856 1778 -856 
Q 2344 -856 2625 -561 
Q 2906 -266 2906 331 
L 2906 616 
Q 2728 306 2450 153 
Q 2172 0 1784 0 
Q 1141 0 747 490 
Q 353 981 353 1791 
Q 353 2603 747 3093 
Q 1141 3584 1784 3584 
Q 2172 3584 2450 3431 
Q 2728 3278 2906 2969 
L 2906 3500 
L 3481 3500 
L 3481 434 
z
" transform="scale(0.015625)"/>
      <path id="DejaVuSans-73" d="M 2834 3397 
L 2834 2853 
Q 2591 2978 2328 3040 
Q 2066 3103 1784 3103 
Q 1356 3103 1142 2972 
Q 928 2841 928 2578 
Q 928 2378 1081 2264 
Q 1234 2150 1697 2047 
L 1894 2003 
Q 2506 1872 2764 1633 
Q 3022 1394 3022 966 
Q 3022 478 2636 193 
Q 2250 -91 1575 -91 
Q 1294 -91 989 -36 
Q 684 19 347 128 
L 347 722 
Q 666 556 975 473 
Q 1284 391 1588 391 
Q 1994 391 2212 530 
Q 2431 669 2431 922 
Q 2431 1156 2273 1281 
Q 2116 1406 1581 1522 
L 1381 1569 
Q 847 1681 609 1914 
Q 372 2147 372 2553 
Q 372 3047 722 3315 
Q 1072 3584 1716 3584 
Q 2034 3584 2315 3537 
Q 2597 3491 2834 3397 
z
" transform="scale(0.015625)"/>
      <path id="DejaVuSans-28" d="M 1984 4856 
Q 1566 4138 1362 3434 
Q 1159 2731 1159 2009 
Q 1159 1288 1364 580 
Q 1569 -128 1984 -844 
L 1484 -844 
Q 1016 -109 783 600 
Q 550 1309 550 2009 
Q 550 2706 781 3412 
Q 1013 4119 1484 4856 
L 1984 4856 
z
" transform="scale(0.015625)"/>
      <path id="DejaVuSans-36" d="M 2113 2584 
Q 1688 2584 1439 2293 
Q 1191 2003 1191 1497 
Q 1191 994 1439 701 
Q 1688 409 2113 409 
Q 2538 409 2786 701 
Q 3034 994 3034 1497 
Q 3034 2003 2786 2293 
Q 2538 2584 2113 2584 
z
M 3366 4563 
L 3366 3988 
Q 3128 4100 2886 4159 
Q 2644 4219 2406 4219 
Q 1781 4219 1451 3797 
Q 1122 3375 1075 2522 
Q 1259 2794 1537 2939 
Q 1816 3084 2150 3084 
Q 2853 3084 3261 2657 
Q 3669 2231 3669 1497 
Q 3669 778 3244 343 
Q 2819 -91 2113 -91 
Q 1303 -91 875 529 
Q 447 1150 447 2328 
Q 447 3434 972 4092 
Q 1497 4750 2381 4750 
Q 2619 4750 2861 4703 
Q 3103 4656 3366 4563 
z
" transform="scale(0.015625)"/>
      <path id="DejaVuSans-70" d="M 1159 525 
L 1159 -1331 
L 581 -1331 
L 581 3500 
L 1159 3500 
L 1159 2969 
Q 1341 3281 1617 3432 
Q 1894 3584 2278 3584 
Q 2916 3584 3314 3078 
Q 3713 2572 3713 1747 
Q 3713 922 3314 415 
Q 2916 -91 2278 -91 
Q 1894 -91 1617 61 
Q 1341 213 1159 525 
z
M 3116 1747 
Q 3116 2381 2855 2742 
Q 2594 3103 2138 3103 
Q 1681 3103 1420 2742 
Q 1159 2381 1159 1747 
Q 1159 1113 1420 752 
Q 1681 391 2138 391 
Q 2594 391 2855 752 
Q 3116 1113 3116 1747 
z
" transform="scale(0.015625)"/>
      <path id="DejaVuSans-64" d="M 2906 2969 
L 2906 4863 
L 3481 4863 
L 3481 0 
L 2906 0 
L 2906 525 
Q 2725 213 2448 61 
Q 2172 -91 1784 -91 
Q 1150 -91 751 415 
Q 353 922 353 1747 
Q 353 2572 751 3078 
Q 1150 3584 1784 3584 
Q 2172 3584 2448 3432 
Q 2725 3281 2906 2969 
z
M 947 1747 
Q 947 1113 1208 752 
Q 1469 391 1925 391 
Q 2381 391 2643 752 
Q 2906 1113 2906 1747 
Q 2906 2381 2643 2742 
Q 2381 3103 1925 3103 
Q 1469 3103 1208 2742 
Q 947 2381 947 1747 
z
" transform="scale(0.015625)"/>
      <path id="DejaVuSans-29" d="M 513 4856 
L 1013 4856 
Q 1481 4119 1714 3412 
Q 1947 2706 1947 2009 
Q 1947 1309 1714 600 
Q 1481 -109 1013 -844 
L 513 -844 
Q 928 -128 1133 580 
Q 1338 1288 1338 2009 
Q 1338 2731 1133 3434 
Q 928 4138 513 4856 
z
" transform="scale(0.015625)"/>
      <path id="DejaVuSans-2e" d="M 684 794 
L 1344 794 
L 1344 0 
L 684 0 
L 684 794 
z
" transform="scale(0.015625)"/>
     </defs>
     <use xlink:href="#DejaVuSans-32"/>
     <use xlink:href="#DejaVuSans-34" x="63.623047"/>
     <use xlink:href="#DejaVuSans-31" x="127.246094"/>
     <use xlink:href="#DejaVuSans-37" x="190.869141"/>
     <use xlink:href="#DejaVuSans-20" x="254.492188"/>
     <use xlink:href="#DejaVuSans-74" x="286.279297"/>
     <use xlink:href="#DejaVuSans-6f" x="325.488281"/>
     <use xlink:href="#DejaVuSans-74" x="386.669922"/>
     <use xlink:href="#DejaVuSans-61" x="425.878906"/>
     <use xlink:href="#DejaVuSans-6c" x="487.158203"/>
     <use xlink:href="#DejaVuSans-20" x="514.941406"/>
     <use xlink:href="#DejaVuSans-72" x="546.728516"/>
     <use xlink:href="#DejaVuSans-65" x="585.591797"/>
     <use xlink:href="#DejaVuSans-67" x="647.115234"/>
     <use xlink:href="#DejaVuSans-73" x="710.591797"/>
     <use xlink:href="#DejaVuSans-20" x="762.691406"/>
     <use xlink:href="#DejaVuSans-28" x="794.478516"/>
     <use xlink:href="#DejaVuSans-31" x="833.492188"/>
     <use xlink:href="#DejaVuSans-36" x="897.115234"/>
     <use xlink:href="#DejaVuSans-35" x="960.738281"/>
     <use xlink:href="#DejaVuSans-30" x="1024.361328"/>
     <use xlink:href="#DejaVuSans-20" x="1087.984375"/>
     <use xlink:href="#DejaVuSans-70" x="1119.771484"/>
     <use xlink:href="#DejaVuSans-61" x="1183.248047"/>
     <use xlink:href="#DejaVuSans-69" x="1244.527344"/>
     <use xlink:href="#DejaVuSans-64" x="1272.310547"/>
     <use xlink:href="#DejaVuSans-29" x="1335.787109"/>
     <use xlink:href="#DejaVuSans-2e" x="1374.800781"/>
    </g>
   </g>
   <g id="legend_1">
    <g id="line2d_11">
     <path d="M 236.886648 34.446094 
L 251.886648 34.446094 
L 266.886648 34.446094 
" style="fill: none; stroke: #005953; stroke-width: 2; stroke-linecap: square"/>
    </g>
    <g id="text_12">
     <!-- Total -->
     <g transform="translate(278.886648 39.696094) scale(0.15 -0.15)">
      <use xlink:href="#DejaVuSans-54"/>
      <use xlink:href="#DejaVuSans-6f" x="44.083984"/>
      <use xlink:href="#DejaVuSans-74" x="105.265625"/>
      <use xlink:href="#DejaVuSans-61" x="144.474609"/>
      <use xlink:href="#DejaVuSans-6c" x="205.753906"/>
     </g>
    </g>
    <g id="line2d_12">
     <path d="M 343.916335 34.446094 
L 358.916335 34.446094 
L 373.916335 34.446094 
" style="fill: none; stroke: #69a3a2; stroke-width: 2; stroke-linecap: square"/>
    </g>
    <g id="text_13">
     <!-- Paid -->
     <g transform="translate(385.916335 39.696094) scale(0.15 -0.15)">
      <defs>
       <path id="DejaVuSans-50" d="M 1259 4147 
L 1259 2394 
L 2053 2394 
Q 2494 2394 2734 2622 
Q 2975 2850 2975 3272 
Q 2975 3691 2734 3919 
Q 2494 4147 2053 4147 
L 1259 4147 
z
M 628 4666 
L 2053 4666 
Q 2838 4666 3239 4311 
Q 3641 3956 3641 3272 
Q 3641 2581 3239 2228 
Q 2838 1875 2053 1875 
L 1259 1875 
L 1259 0 
L 628 0 
L 628 4666 
z
" transform="scale(0.015625)"/>
      </defs>
      <use xlink:href="#DejaVuSans-50"/>
      <use xlink:href="#DejaVuSans-61" x="55.802734"/>
      <use xlink:href="#DejaVuSans-69" x="117.082031"/>
      <use xlink:href="#DejaVuSans-64" x="144.865234"/>
     </g>
    </g>
   </g>
  </g>
  <g id="axes_2">
   <g id="patch_7">
    <path d="M 593.345455 402.878437 
L 973.8 402.878437 
L 973.8 14.798437 
L 593.345455 14.798437 
z
" style="fill: #ffffff"/>
   </g>
   <g id="patch_8">
    <path d="M 593.345455 260.582437 
L 746.002841 260.582437 
L 746.002841 157.094437 
L 593.345455 157.094437 
z
" clip-path="url(#pe70d7de1bb)" style="fill: #a2c5c4"/>
   </g>
   <g id="patch_9">
    <path d="M 746.002841 260.582437 
L 795.366818 260.582437 
L 795.366818 157.094437 
L 746.002841 157.094437 
z
" clip-path="url(#pe70d7de1bb)" style="fill: #69a3a2"/>
   </g>
   <g id="patch_10">
    <path d="M 795.366818 260.582437 
L 823.14 260.582437 
L 823.14 157.094437 
L 795.366818 157.094437 
z
" clip-path="url(#pe70d7de1bb)" style="fill: #005953"/>
   </g>
   <g id="matplotlib.axis_3">
    <g id="xtick_4">
     <g id="line2d_13">
      <g>
       <use xlink:href="#mf9f443736b" x="593.345455" y="402.878437" style="stroke: #000000; stroke-width: 0.8"/>
      </g>
     </g>
     <g id="text_14">
      <!-- 0 -->
      <g transform="translate(586.982955 431.575312) scale(0.2 -0.2)">
       <use xlink:href="#DejaVuSans-30"/>
      </g>
     </g>
    </g>
    <g id="xtick_5">
     <g id="line2d_14">
      <g>
       <use xlink:href="#mf9f443736b" x="688.459091" y="402.878437" style="stroke: #000000; stroke-width: 0.8"/>
      </g>
     </g>
     <g id="text_15">
      <!-- 1000 -->
      <g transform="translate(663.009091 431.575312) scale(0.2 -0.2)">
       <use xlink:href="#DejaVuSans-31"/>
       <use xlink:href="#DejaVuSans-30" x="63.623047"/>
       <use xlink:href="#DejaVuSans-30" x="127.246094"/>
       <use xlink:href="#DejaVuSans-30" x="190.869141"/>
      </g>
     </g>
    </g>
    <g id="xtick_6">
     <g id="line2d_15">
      <g>
       <use xlink:href="#mf9f443736b" x="783.572727" y="402.878437" style="stroke: #000000; stroke-width: 0.8"/>
      </g>
     </g>
     <g id="text_16">
      <!-- 2000 -->
      <g transform="translate(758.122727 431.575312) scale(0.2 -0.2)">
       <use xlink:href="#DejaVuSans-32"/>
       <use xlink:href="#DejaVuSans-30" x="63.623047"/>
       <use xlink:href="#DejaVuSans-30" x="127.246094"/>
       <use xlink:href="#DejaVuSans-30" x="190.869141"/>
      </g>
     </g>
    </g>
    <g id="xtick_7">
     <g id="line2d_16">
      <g>
       <use xlink:href="#mf9f443736b" x="878.686364" y="402.878437" style="stroke: #000000; stroke-width: 0.8"/>
      </g>
     </g>
     <g id="text_17">
      <!-- 3000 -->
      <g transform="translate(853.236364 431.575312) scale(0.2 -0.2)">
       <use xlink:href="#DejaVuSans-33"/>
       <use xlink:href="#DejaVuSans-30" x="63.623047"/>
       <use xlink:href="#DejaVuSans-30" x="127.246094"/>
       <use xlink:href="#DejaVuSans-30" x="190.869141"/>
      </g>
     </g>
    </g>
    <g id="xtick_8">
     <g id="line2d_17">
      <g>
       <use xlink:href="#mf9f443736b" x="973.8" y="402.878437" style="stroke: #000000; stroke-width: 0.8"/>
      </g>
     </g>
     <g id="text_18">
      <!-- 4000 -->
      <g transform="translate(948.35 431.575312) scale(0.2 -0.2)">
       <use xlink:href="#DejaVuSans-34"/>
       <use xlink:href="#DejaVuSans-30" x="63.623047"/>
       <use xlink:href="#DejaVuSans-30" x="127.246094"/>
       <use xlink:href="#DejaVuSans-30" x="190.869141"/>
      </g>
     </g>
    </g>
    <g id="text_19">
     <!-- Count -->
     <g transform="translate(753.875852 460.931562) scale(0.2 -0.2)">
      <use xlink:href="#DejaVuSans-43"/>
      <use xlink:href="#DejaVuSans-6f" x="69.824219"/>
      <use xlink:href="#DejaVuSans-75" x="131.005859"/>
      <use xlink:href="#DejaVuSans-6e" x="194.384766"/>
      <use xlink:href="#DejaVuSans-74" x="257.763672"/>
     </g>
    </g>
   </g>
   <g id="matplotlib.axis_4"/>
   <g id="patch_11">
    <path d="M 593.345455 402.878437 
L 593.345455 14.798438 
" style="fill: none; stroke: #000000; stroke-width: 0.8; stroke-linejoin: miter; stroke-linecap: square"/>
   </g>
   <g id="patch_12">
    <path d="M 973.8 402.878437 
L 973.8 14.798438 
" style="fill: none; stroke: #000000; stroke-width: 0.8; stroke-linejoin: miter; stroke-linecap: square"/>
   </g>
   <g id="patch_13">
    <path d="M 593.345455 402.878437 
L 973.8 402.878437 
" style="fill: none; stroke: #000000; stroke-width: 0.8; stroke-linejoin: miter; stroke-linecap: square"/>
   </g>
   <g id="patch_14">
    <path d="M 593.345455 14.798437 
L 973.8 14.798437 
" style="fill: none; stroke: #000000; stroke-width: 0.8; stroke-linejoin: miter; stroke-linecap: square"/>
   </g>
   <g id="text_20">
    <!-- Last update 2024-02-13 03:47:52 (UTC). -->
    <g transform="translate(5.4 462.305729) scale(0.066667 -0.066667)">
     <defs>
      <path id="DejaVuSans-4c" d="M 628 4666 
L 1259 4666 
L 1259 531 
L 3531 531 
L 3531 0 
L 628 0 
L 628 4666 
z
" transform="scale(0.015625)"/>
      <path id="DejaVuSans-2d" d="M 313 2009 
L 1997 2009 
L 1997 1497 
L 313 1497 
L 313 2009 
z
" transform="scale(0.015625)"/>
      <path id="DejaVuSans-3a" d="M 750 794 
L 1409 794 
L 1409 0 
L 750 0 
L 750 794 
z
M 750 3309 
L 1409 3309 
L 1409 2516 
L 750 2516 
L 750 3309 
z
" transform="scale(0.015625)"/>
      <path id="DejaVuSans-55" d="M 556 4666 
L 1191 4666 
L 1191 1831 
Q 1191 1081 1462 751 
Q 1734 422 2344 422 
Q 2950 422 3222 751 
Q 3494 1081 3494 1831 
L 3494 4666 
L 4128 4666 
L 4128 1753 
Q 4128 841 3676 375 
Q 3225 -91 2344 -91 
Q 1459 -91 1007 375 
Q 556 841 556 1753 
L 556 4666 
z
" transform="scale(0.015625)"/>
     </defs>
     <use xlink:href="#DejaVuSans-4c"/>
     <use xlink:href="#DejaVuSans-61" x="55.712891"/>
     <use xlink:href="#DejaVuSans-73" x="116.992188"/>
     <use xlink:href="#DejaVuSans-74" x="169.091797"/>
     <use xlink:href="#DejaVuSans-20" x="208.300781"/>
     <use xlink:href="#DejaVuSans-75" x="240.087891"/>
     <use xlink:href="#DejaVuSans-70" x="303.466797"/>
     <use xlink:href="#DejaVuSans-64" x="366.943359"/>
     <use xlink:href="#DejaVuSans-61" x="430.419922"/>
     <use xlink:href="#DejaVuSans-74" x="491.699219"/>
     <use xlink:href="#DejaVuSans-65" x="530.908203"/>
     <use xlink:href="#DejaVuSans-20" x="592.431641"/>
     <use xlink:href="#DejaVuSans-32" x="624.21875"/>
     <use xlink:href="#DejaVuSans-30" x="687.841797"/>
     <use xlink:href="#DejaVuSans-32" x="751.464844"/>
     <use xlink:href="#DejaVuSans-34" x="815.087891"/>
     <use xlink:href="#DejaVuSans-2d" x="878.710938"/>
     <use xlink:href="#DejaVuSans-30" x="914.794922"/>
     <use xlink:href="#DejaVuSans-32" x="978.417969"/>
     <use xlink:href="#DejaVuSans-2d" x="1042.041016"/>
     <use xlink:href="#DejaVuSans-31" x="1078.125"/>
     <use xlink:href="#DejaVuSans-33" x="1141.748047"/>
     <use xlink:href="#DejaVuSans-20" x="1205.371094"/>
     <use xlink:href="#DejaVuSans-30" x="1237.158203"/>
     <use xlink:href="#DejaVuSans-33" x="1300.78125"/>
     <use xlink:href="#DejaVuSans-3a" x="1364.404297"/>
     <use xlink:href="#DejaVuSans-34" x="1398.095703"/>
     <use xlink:href="#DejaVuSans-37" x="1461.71875"/>
     <use xlink:href="#DejaVuSans-3a" x="1525.341797"/>
     <use xlink:href="#DejaVuSans-35" x="1559.033203"/>
     <use xlink:href="#DejaVuSans-32" x="1622.65625"/>
     <use xlink:href="#DejaVuSans-20" x="1686.279297"/>
     <use xlink:href="#DejaVuSans-28" x="1718.066406"/>
     <use xlink:href="#DejaVuSans-55" x="1757.080078"/>
     <use xlink:href="#DejaVuSans-54" x="1830.273438"/>
     <use xlink:href="#DejaVuSans-43" x="1885.482422"/>
     <use xlink:href="#DejaVuSans-29" x="1955.306641"/>
     <use xlink:href="#DejaVuSans-2e" x="1994.320312"/>
    </g>
    <!-- For questions, contact @GermanCoyote. -->
    <g transform="translate(5.4 469.770937) scale(0.066667 -0.066667)">
     <defs>
      <path id="DejaVuSans-71" d="M 947 1747 
Q 947 1113 1208 752 
Q 1469 391 1925 391 
Q 2381 391 2643 752 
Q 2906 1113 2906 1747 
Q 2906 2381 2643 2742 
Q 2381 3103 1925 3103 
Q 1469 3103 1208 2742 
Q 947 2381 947 1747 
z
M 2906 525 
Q 2725 213 2448 61 
Q 2172 -91 1784 -91 
Q 1150 -91 751 415 
Q 353 922 353 1747 
Q 353 2572 751 3078 
Q 1150 3584 1784 3584 
Q 2172 3584 2448 3432 
Q 2725 3281 2906 2969 
L 2906 3500 
L 3481 3500 
L 3481 -1331 
L 2906 -1331 
L 2906 525 
z
" transform="scale(0.015625)"/>
      <path id="DejaVuSans-2c" d="M 750 794 
L 1409 794 
L 1409 256 
L 897 -744 
L 494 -744 
L 750 256 
L 750 794 
z
" transform="scale(0.015625)"/>
      <path id="DejaVuSans-63" d="M 3122 3366 
L 3122 2828 
Q 2878 2963 2633 3030 
Q 2388 3097 2138 3097 
Q 1578 3097 1268 2742 
Q 959 2388 959 1747 
Q 959 1106 1268 751 
Q 1578 397 2138 397 
Q 2388 397 2633 464 
Q 2878 531 3122 666 
L 3122 134 
Q 2881 22 2623 -34 
Q 2366 -91 2075 -91 
Q 1284 -91 818 406 
Q 353 903 353 1747 
Q 353 2603 823 3093 
Q 1294 3584 2113 3584 
Q 2378 3584 2631 3529 
Q 2884 3475 3122 3366 
z
" transform="scale(0.015625)"/>
      <path id="DejaVuSans-40" d="M 2381 1678 
Q 2381 1231 2603 976 
Q 2825 722 3213 722 
Q 3597 722 3817 978 
Q 4038 1234 4038 1678 
Q 4038 2116 3813 2373 
Q 3588 2631 3206 2631 
Q 2828 2631 2604 2375 
Q 2381 2119 2381 1678 
z
M 4084 744 
Q 3897 503 3655 389 
Q 3413 275 3091 275 
Q 2553 275 2217 664 
Q 1881 1053 1881 1678 
Q 1881 2303 2218 2693 
Q 2556 3084 3091 3084 
Q 3413 3084 3656 2967 
Q 3900 2850 4084 2613 
L 4084 3022 
L 4531 3022 
L 4531 722 
Q 4988 791 5245 1139 
Q 5503 1488 5503 2041 
Q 5503 2375 5404 2669 
Q 5306 2963 5106 3213 
Q 4781 3622 4314 3839 
Q 3847 4056 3297 4056 
Q 2913 4056 2559 3954 
Q 2206 3853 1906 3653 
Q 1416 3334 1139 2817 
Q 863 2300 863 1697 
Q 863 1200 1042 765 
Q 1222 331 1563 0 
Q 1891 -325 2322 -495 
Q 2753 -666 3244 -666 
Q 3647 -666 4036 -530 
Q 4425 -394 4750 -141 
L 5031 -488 
Q 4641 -791 4180 -952 
Q 3719 -1113 3244 -1113 
Q 2666 -1113 2153 -908 
Q 1641 -703 1241 -313 
Q 841 78 631 592 
Q 422 1106 422 1697 
Q 422 2266 634 2781 
Q 847 3297 1241 3688 
Q 1644 4084 2172 4295 
Q 2700 4506 3291 4506 
Q 3953 4506 4520 4234 
Q 5088 3963 5472 3463 
Q 5706 3156 5829 2797 
Q 5953 2438 5953 2053 
Q 5953 1231 5456 756 
Q 4959 281 4084 263 
L 4084 744 
z
" transform="scale(0.015625)"/>
      <path id="DejaVuSans-47" d="M 3809 666 
L 3809 1919 
L 2778 1919 
L 2778 2438 
L 4434 2438 
L 4434 434 
Q 4069 175 3628 42 
Q 3188 -91 2688 -91 
Q 1594 -91 976 548 
Q 359 1188 359 2328 
Q 359 3472 976 4111 
Q 1594 4750 2688 4750 
Q 3144 4750 3555 4637 
Q 3966 4525 4313 4306 
L 4313 3634 
Q 3963 3931 3569 4081 
Q 3175 4231 2741 4231 
Q 1884 4231 1454 3753 
Q 1025 3275 1025 2328 
Q 1025 1384 1454 906 
Q 1884 428 2741 428 
Q 3075 428 3337 486 
Q 3600 544 3809 666 
z
" transform="scale(0.015625)"/>
      <path id="DejaVuSans-79" d="M 2059 -325 
Q 1816 -950 1584 -1140 
Q 1353 -1331 966 -1331 
L 506 -1331 
L 506 -850 
L 844 -850 
Q 1081 -850 1212 -737 
Q 1344 -625 1503 -206 
L 1606 56 
L 191 3500 
L 800 3500 
L 1894 763 
L 2988 3500 
L 3597 3500 
L 2059 -325 
z
" transform="scale(0.015625)"/>
     </defs>
     <use xlink:href="#DejaVuSans-46"/>
     <use xlink:href="#DejaVuSans-6f" x="53.894531"/>
     <use xlink:href="#DejaVuSans-72" x="115.076172"/>
     <use xlink:href="#DejaVuSans-20" x="156.189453"/>
     <use xlink:href="#DejaVuSans-71" x="187.976562"/>
     <use xlink:href="#DejaVuSans-75" x="251.453125"/>
     <use xlink:href="#DejaVuSans-65" x="314.832031"/>
     <use xlink:href="#DejaVuSans-73" x="376.355469"/>
     <use xlink:href="#DejaVuSans-74" x="428.455078"/>
     <use xlink:href="#DejaVuSans-69" x="467.664062"/>
     <use xlink:href="#DejaVuSans-6f" x="495.447266"/>
     <use xlink:href="#DejaVuSans-6e" x="556.628906"/>
     <use xlink:href="#DejaVuSans-73" x="620.007812"/>
     <use xlink:href="#DejaVuSans-2c" x="672.107422"/>
     <use xlink:href="#DejaVuSans-20" x="703.894531"/>
     <use xlink:href="#DejaVuSans-63" x="735.681641"/>
     <use xlink:href="#DejaVuSans-6f" x="790.662109"/>
     <use xlink:href="#DejaVuSans-6e" x="851.84375"/>
     <use xlink:href="#DejaVuSans-74" x="915.222656"/>
     <use xlink:href="#DejaVuSans-61" x="954.431641"/>
     <use xlink:href="#DejaVuSans-63" x="1015.710938"/>
     <use xlink:href="#DejaVuSans-74" x="1070.691406"/>
     <use xlink:href="#DejaVuSans-20" x="1109.900391"/>
     <use xlink:href="#DejaVuSans-40" x="1141.6875"/>
     <use xlink:href="#DejaVuSans-47" x="1241.6875"/>
     <use xlink:href="#DejaVuSans-65" x="1319.177734"/>
     <use xlink:href="#DejaVuSans-72" x="1380.701172"/>
     <use xlink:href="#DejaVuSans-6d" x="1420.064453"/>
     <use xlink:href="#DejaVuSans-61" x="1517.476562"/>
     <use xlink:href="#DejaVuSans-6e" x="1578.755859"/>
     <use xlink:href="#DejaVuSans-43" x="1642.134766"/>
     <use xlink:href="#DejaVuSans-6f" x="1711.958984"/>
     <use xlink:href="#DejaVuSans-79" x="1773.140625"/>
     <use xlink:href="#DejaVuSans-6f" x="1832.320312"/>
     <use xlink:href="#DejaVuSans-74" x="1893.501953"/>
     <use xlink:href="#DejaVuSans-65" x="1932.710938"/>
     <use xlink:href="#DejaVuSans-2e" x="1994.234375"/>
    </g>
   </g>
   <g id="text_21">
    <!-- 2416 total regs (1605 normal, 519 sponsors, 292 supersponsors). -->
    <g transform="translate(595.247727 400.938037) scale(0.066667 -0.066667)">
     <defs>
      <path id="DejaVuSans-39" d="M 703 97 
L 703 672 
Q 941 559 1184 500 
Q 1428 441 1663 441 
Q 2288 441 2617 861 
Q 2947 1281 2994 2138 
Q 2813 1869 2534 1725 
Q 2256 1581 1919 1581 
Q 1219 1581 811 2004 
Q 403 2428 403 3163 
Q 403 3881 828 4315 
Q 1253 4750 1959 4750 
Q 2769 4750 3195 4129 
Q 3622 3509 3622 2328 
Q 3622 1225 3098 567 
Q 2575 -91 1691 -91 
Q 1453 -91 1209 -44 
Q 966 3 703 97 
z
M 1959 2075 
Q 2384 2075 2632 2365 
Q 2881 2656 2881 3163 
Q 2881 3666 2632 3958 
Q 2384 4250 1959 4250 
Q 1534 4250 1286 3958 
Q 1038 3666 1038 3163 
Q 1038 2656 1286 2365 
Q 1534 2075 1959 2075 
z
" transform="scale(0.015625)"/>
     </defs>
     <use xlink:href="#DejaVuSans-32"/>
     <use xlink:href="#DejaVuSans-34" x="63.623047"/>
     <use xlink:href="#DejaVuSans-31" x="127.246094"/>
     <use xlink:href="#DejaVuSans-36" x="190.869141"/>
     <use xlink:href="#DejaVuSans-20" x="254.492188"/>
     <use xlink:href="#DejaVuSans-74" x="286.279297"/>
     <use xlink:href="#DejaVuSans-6f" x="325.488281"/>
     <use xlink:href="#DejaVuSans-74" x="386.669922"/>
     <use xlink:href="#DejaVuSans-61" x="425.878906"/>
     <use xlink:href="#DejaVuSans-6c" x="487.158203"/>
     <use xlink:href="#DejaVuSans-20" x="514.941406"/>
     <use xlink:href="#DejaVuSans-72" x="546.728516"/>
     <use xlink:href="#DejaVuSans-65" x="585.591797"/>
     <use xlink:href="#DejaVuSans-67" x="647.115234"/>
     <use xlink:href="#DejaVuSans-73" x="710.591797"/>
     <use xlink:href="#DejaVuSans-20" x="762.691406"/>
     <use xlink:href="#DejaVuSans-28" x="794.478516"/>
     <use xlink:href="#DejaVuSans-31" x="833.492188"/>
     <use xlink:href="#DejaVuSans-36" x="897.115234"/>
     <use xlink:href="#DejaVuSans-30" x="960.738281"/>
     <use xlink:href="#DejaVuSans-35" x="1024.361328"/>
     <use xlink:href="#DejaVuSans-20" x="1087.984375"/>
     <use xlink:href="#DejaVuSans-6e" x="1119.771484"/>
     <use xlink:href="#DejaVuSans-6f" x="1183.150391"/>
     <use xlink:href="#DejaVuSans-72" x="1244.332031"/>
     <use xlink:href="#DejaVuSans-6d" x="1283.695312"/>
     <use xlink:href="#DejaVuSans-61" x="1381.107422"/>
     <use xlink:href="#DejaVuSans-6c" x="1442.386719"/>
     <use xlink:href="#DejaVuSans-2c" x="1470.169922"/>
     <use xlink:href="#DejaVuSans-20" x="1501.957031"/>
     <use xlink:href="#DejaVuSans-35" x="1533.744141"/>
     <use xlink:href="#DejaVuSans-31" x="1597.367188"/>
     <use xlink:href="#DejaVuSans-39" x="1660.990234"/>
     <use xlink:href="#DejaVuSans-20" x="1724.613281"/>
     <use xlink:href="#DejaVuSans-73" x="1756.400391"/>
     <use xlink:href="#DejaVuSans-70" x="1808.5"/>
     <use xlink:href="#DejaVuSans-6f" x="1871.976562"/>
     <use xlink:href="#DejaVuSans-6e" x="1933.158203"/>
     <use xlink:href="#DejaVuSans-73" x="1996.537109"/>
     <use xlink:href="#DejaVuSans-6f" x="2048.636719"/>
     <use xlink:href="#DejaVuSans-72" x="2109.818359"/>
     <use xlink:href="#DejaVuSans-73" x="2150.931641"/>
     <use xlink:href="#DejaVuSans-2c" x="2203.03125"/>
     <use xlink:href="#DejaVuSans-20" x="2234.818359"/>
     <use xlink:href="#DejaVuSans-32" x="2266.605469"/>
     <use xlink:href="#DejaVuSans-39" x="2330.228516"/>
     <use xlink:href="#DejaVuSans-32" x="2393.851562"/>
     <use xlink:href="#DejaVuSans-20" x="2457.474609"/>
     <use xlink:href="#DejaVuSans-73" x="2489.261719"/>
     <use xlink:href="#DejaVuSans-75" x="2541.361328"/>
     <use xlink:href="#DejaVuSans-70" x="2604.740234"/>
     <use xlink:href="#DejaVuSans-65" x="2668.216797"/>
     <use xlink:href="#DejaVuSans-72" x="2729.740234"/>
     <use xlink:href="#DejaVuSans-73" x="2770.853516"/>
     <use xlink:href="#DejaVuSans-70" x="2822.953125"/>
     <use xlink:href="#DejaVuSans-6f" x="2886.429688"/>
     <use xlink:href="#DejaVuSans-6e" x="2947.611328"/>
     <use xlink:href="#DejaVuSans-73" x="3010.990234"/>
     <use xlink:href="#DejaVuSans-6f" x="3063.089844"/>
     <use xlink:href="#DejaVuSans-72" x="3124.271484"/>
     <use xlink:href="#DejaVuSans-73" x="3165.384766"/>
     <use xlink:href="#DejaVuSans-29" x="3217.484375"/>
     <use xlink:href="#DejaVuSans-2e" x="3256.498047"/>
    </g>
   </g>
   <g id="legend_2">
    <g id="patch_15">
     <path d="M 644.564915 39.696094 
L 674.564915 39.696094 
L 674.564915 29.196094 
L 644.564915 29.196094 
z
" style="fill: #a2c5c4"/>
    </g>
    <g id="text_22">
     <!-- Normal -->
     <g transform="translate(686.564915 39.696094) scale(0.15 -0.15)">
      <defs>
       <path id="DejaVuSans-4e" d="M 628 4666 
L 1478 4666 
L 3547 763 
L 3547 4666 
L 4159 4666 
L 4159 0 
L 3309 0 
L 1241 3903 
L 1241 0 
L 628 0 
L 628 4666 
z
" transform="scale(0.015625)"/>
      </defs>
      <use xlink:href="#DejaVuSans-4e"/>
      <use xlink:href="#DejaVuSans-6f" x="74.804688"/>
      <use xlink:href="#DejaVuSans-72" x="135.986328"/>
      <use xlink:href="#DejaVuSans-6d" x="175.349609"/>
      <use xlink:href="#DejaVuSans-61" x="272.761719"/>
      <use xlink:href="#DejaVuSans-6c" x="334.041016"/>
     </g>
    </g>
    <g id="patch_16">
     <path d="M 644.564915 61.713281 
L 674.564915 61.713281 
L 674.564915 51.213281 
L 644.564915 51.213281 
z
" style="fill: #69a3a2"/>
    </g>
    <g id="text_23">
     <!-- Sponsor -->
     <g transform="translate(686.564915 61.713281) scale(0.15 -0.15)">
      <defs>
       <path id="DejaVuSans-53" d="M 3425 4513 
L 3425 3897 
Q 3066 4069 2747 4153 
Q 2428 4238 2131 4238 
Q 1616 4238 1336 4038 
Q 1056 3838 1056 3469 
Q 1056 3159 1242 3001 
Q 1428 2844 1947 2747 
L 2328 2669 
Q 3034 2534 3370 2195 
Q 3706 1856 3706 1288 
Q 3706 609 3251 259 
Q 2797 -91 1919 -91 
Q 1588 -91 1214 -16 
Q 841 59 441 206 
L 441 856 
Q 825 641 1194 531 
Q 1563 422 1919 422 
Q 2459 422 2753 634 
Q 3047 847 3047 1241 
Q 3047 1584 2836 1778 
Q 2625 1972 2144 2069 
L 1759 2144 
Q 1053 2284 737 2584 
Q 422 2884 422 3419 
Q 422 4038 858 4394 
Q 1294 4750 2059 4750 
Q 2388 4750 2728 4690 
Q 3069 4631 3425 4513 
z
" transform="scale(0.015625)"/>
      </defs>
      <use xlink:href="#DejaVuSans-53"/>
      <use xlink:href="#DejaVuSans-70" x="63.476562"/>
      <use xlink:href="#DejaVuSans-6f" x="126.953125"/>
      <use xlink:href="#DejaVuSans-6e" x="188.134766"/>
      <use xlink:href="#DejaVuSans-73" x="251.513672"/>
      <use xlink:href="#DejaVuSans-6f" x="303.613281"/>
      <use xlink:href="#DejaVuSans-72" x="364.794922"/>
     </g>
    </g>
    <g id="patch_17">
     <path d="M 777.453196 39.696094 
L 807.453196 39.696094 
L 807.453196 29.196094 
L 777.453196 29.196094 
z
" style="fill: #005953"/>
    </g>
    <g id="text_24">
     <!-- Supersponsor -->
     <g transform="translate(819.453196 39.696094) scale(0.15 -0.15)">
      <use xlink:href="#DejaVuSans-53"/>
      <use xlink:href="#DejaVuSans-75" x="63.476562"/>
      <use xlink:href="#DejaVuSans-70" x="126.855469"/>
      <use xlink:href="#DejaVuSans-65" x="190.332031"/>
      <use xlink:href="#DejaVuSans-72" x="251.855469"/>
      <use xlink:href="#DejaVuSans-73" x="292.96875"/>
      <use xlink:href="#DejaVuSans-70" x="345.068359"/>
      <use xlink:href="#DejaVuSans-6f" x="408.544922"/>
      <use xlink:href="#DejaVuSans-6e" x="469.726562"/>
      <use xlink:href="#DejaVuSans-73" x="533.105469"/>
      <use xlink:href="#DejaVuSans-6f" x="585.205078"/>
      <use xlink:href="#DejaVuSans-72" x="646.386719"/>
     </g>
    </g>
   </g>
  </g>
 </g>
 <defs>
  <clipPath id="pe279f20f3e">
   <rect x="136.8" y="14.798437" width="380.454545" height="388.08"/>
  </clipPath>
  <clipPath id="pe70d7de1bb">
   <rect x="593.345455" y="14.798437" width="380.454545" height="388.08"/>
  </clipPath>
 </defs>
</svg>
